<svg xmlns="http://www.w3.org/2000/svg" xmlns:xlink="http://www.w3.org/1999/xlink" xmlns:lucid="lucid" width="880.67" height="1085.6"><g transform="translate(-477.3333333333333 -180)" lucid:page-tab-id="0_0"><path d="M560 325c0-2.76 2.24-5 5-5h170c2.76 0 5 2.24 5 5v110c0 2.76-2.24 5-5 5H565c-2.76 0-5-2.24-5-5z" stroke="#000" stroke-width="2" fill="#fff"/><path d="M566 331c0-2.76 2.24-5 5-5h158c2.76 0 5 2.24 5 5v98c0 2.76-2.24 5-5 5H571c-2.76 0-5-2.24-5-5z" stroke="#000" stroke-width="2" fill="#fff"/><path d="M566 331c0-2.76 2.24-5 5-5h158c2.76 0 5 2.24 5 5v98c0 2.76-2.24 5-5 5H571c-2.76 0-5-2.24-5-5z" fill="none"/><use xlink:href="#a" transform="matrix(1,0,0,1,560,320) translate(18.45499999999999 63.15)"/><path d="M520 365c0-2.76 2.24-5 5-5h30c2.76 0 5 2.24 5 5v14c0 2.76-2.24 5-5 5h-30c-2.76 0-5-2.24-5-5z" fill="none"/><use xlink:href="#b" transform="matrix(1,0,0,1,520,360) translate(13.524999999999999 15.6)"/><path d="M582.67 232c0 17.67-19.1 32-42.67 32-23.56 0-42.67-14.33-42.67-32s19.1-32 42.67-32c23.56 0 42.67 14.33 42.67 32z" stroke="#000" stroke-width="2" fill="#fff"/><use xlink:href="#c" transform="matrix(1,0,0,1,497.3333333333333,200) translate(16.07999999999999 34.4)"/><path d="M540 265l110 54" stroke="#000" stroke-width="2" fill="none"/><path d="M540 264h.22l.22.1-.88 1.8-2.7-1.32.37-.74zM653.13 319.42l-.28.58h-3.08l-.2-.1.87-1.8z"/><path d="M1100 325c0-2.76 2.24-5 5-5h170c2.76 0 5 2.24 5 5v110c0 2.76-2.24 5-5 5h-170c-2.76 0-5-2.24-5-5z" stroke="#000" stroke-width="2" fill="#fff"/><path d="M1106 331c0-2.76 2.24-5 5-5h158c2.76 0 5 2.24 5 5v98c0 2.76-2.24 5-5 5h-158c-2.76 0-5-2.24-5-5z" stroke="#000" stroke-width="2" fill="#fff"/><path d="M1106 331c0-2.76 2.24-5 5-5h158c2.76 0 5 2.24 5 5v98c0 2.76-2.24 5-5 5h-158c-2.76 0-5-2.24-5-5z" fill="none"/><use xlink:href="#d" transform="matrix(1,0,0,1,1100,320) translate(20.804999999999986 63.15)"/><path d="M916.24 313.3c2.08-1.83 5.44-1.83 7.52 0l72.48 63.4c2.08 1.83 2.08 4.77 0 6.6l-72.48 63.4c-2.08 1.83-5.44 1.83-7.52 0l-72.48-63.4c-2.08-1.83-2.08-4.77 0-6.6z" stroke="#000" stroke-width="2" fill="#fff"/><use xlink:href="#e" transform="matrix(1,0,0,1,840,310) translate(34.254999999999995 75.65)"/><path d="M841.33 380H741" stroke="#000" stroke-width="2" fill="none"/><path d="M842.28 379.23l.13 1.77h-1.07v-2h1.06zM741 381h-1v-2h1z"/><path d="M998.67 378H1099M998.67 382H1099" stroke="#000" stroke-width="2" fill="none"/><path d="M998.67 381h-1.06l.12-.23-.13-1.77h1.07zM1100 381h-1v-2h1z"/><path d="M1136.67 257c0 17.67-19.1 32-42.67 32-23.56 0-42.67-14.33-42.67-32s19.1-32 42.67-32c23.56 0 42.67 14.33 42.67 32z" stroke="#000" stroke-width="2" fill="#fff"/><use xlink:href="#f" transform="matrix(1,0,0,1,1051.3333333333335,225) translate(11.177839506172832 36.44444444444444)"/><path d="M1132.17 272.97" stroke="#000" stroke-width="2" fill="none"/><path/><path/><path d="M1094 290l96 29" stroke="#000" stroke-width="2" fill="none"/><path d="M1094 289h.14l.15.04-.6 1.92-2.86-.87.38-1.26zM1193.16 318.9l-.33 1.1h-2.98l-.14-.04.6-1.92z"/><path d="M1338 260c0 19.33-29.55 35-66 35s-66-15.67-66-35 29.55-35 66-35 66 15.67 66 35z" fill="#fff"/><path d="M1335.64 269.28l-.6 1.13-1.07 1.67-.37.5m-5.25 5.63l-1.76 1.48-1.3.9m-6.55 4.08l-3.3 1.7-.15.05m-7.2 2.84l-3.66 1.22m-7.5 1.93l-.64.15-3.15.54m-7.65 1.1l-3.85.36m-7.72.4l-1.93.04-1.93-.07m-7.73-.3l-3.84-.45m-7.65-1.1l-3.8-.7m-7.5-1.93l-1.02-.28-2.64-.93m-7.18-2.86l-1.43-.64-2.04-1.08m-6.58-4.06l-1.97-1.48-1.04-.92m-5.26-5.64l-.67-.94-1-1.65-.37-.7m-2.25-7.34l-.07-.88-.03-1.05.05-1.43.06-.5m2.26-7.35l.6-1.13 1.07-1.67.37-.5m5.25-5.63l1.76-1.48 1.3-.9m6.55-4.08l3.3-1.7.15-.05m7.2-2.84l3.66-1.22m7.5-1.93l.64-.15 3.15-.54m7.65-1.1l3.85-.36m7.72-.4l1.93-.04 1.93.07m7.73.3l3.84.45m7.65 1.1l3.8.7m7.5 1.93l1.02.28 2.64.93m7.18 2.86l1.43.64 2.04 1.08m6.58 4.06l1.97 1.48 1.04.92m5.26 5.64l.67.94 1 1.65.37.7m2.25 7.34l.07.88.03 1.05-.05 1.43-.06.5" stroke="#000" stroke-width="2" fill="none"/><use xlink:href="#g" transform="matrix(1,0,0,1,1206,225) translate(21.07999999999999 38.4625)"/><path d="M964.45 572.72c-2.46 1.26-2.2 2.28.55 2.28h146c2.76 0 3-1.02.55-2.28l-69.1-35.44c-2.46-1.26-6.44-1.26-8.9 0z" stroke="#000" stroke-width="2" fill="#fff"/><path d="M1190 441l-152 94.37" stroke="#000" stroke-width="2" fill="none"/><path d="M1193.08 440.27l-2.55 1.58-1.06-1.7.24-.15h3.2zM1038.53 536.22l-.22.13-1.97.1-1.03.25-.38-.6 2.55-1.58z"/><path d="M1100 540c0-2.76 2.24-5 5-5h30c2.76 0 5 2.24 5 5v14c0 2.76-2.24 5-5 5h-30c-2.76 0-5-2.24-5-5z" fill="none"/><use xlink:href="#h" transform="matrix(1,0,0,1,1100,535) translate(13 15.6)"/><path d="M688.25 745.2c0-2.76 2.24-5 5-5h96.66c2.78 0 5 2.24 5 5v70c0 2.76-2.22 5-5 5h-96.65c-2.76 0-5-2.24-5-5z" stroke="#000" stroke-width="2" fill="#fff"/><use xlink:href="#i" transform="matrix(1,0,0,1,688.2479641666666,740.2022000000001) translate(23.029999999999994 44.775)"/><path d="M944.67 744c0-2.76 2.24-5 5-5h96.66c2.76 0 5 2.24 5 5v70c0 2.76-2.24 5-5 5h-96.66c-2.76 0-5-2.24-5-5z" stroke="#000" stroke-width="2" fill="#fff"/><use xlink:href="#j" transform="matrix(1,0,0,1,944.6666666666666,739) translate(21.554999999999993 44.775)"/><path d="M1182.25 745.2c0-2.76 2.24-5 5-5h96.67c2.76 0 5 2.24 5 5v70c0 2.76-2.24 5-5 5h-96.67c-2.76 0-5-2.24-5-5z" stroke="#000" stroke-width="2" fill="#fff"/><use xlink:href="#k" transform="matrix(1,0,0,1,1182.2520358333336,740.2022000000001) translate(11.604999999999992 44.775)"/><path d="M998 738l40-162" stroke="#000" stroke-width="2" fill="none"/><path d="M998.97 738.24l-.2.76h-2.05l.3-1.24zM1038.97 576.24l-1.94-.48.2-.76h2.05z"/><path d="M1115.16 574.8l120.43 164.4" stroke="#000" stroke-width="2" fill="none"/><path d="M1115.97 574.2l-1.6 1.2-1.8-2.43 1.63-1.18zM1237.56 740.2h-2.48l-.3-.4 1.6-1.2z"/><path d="M960.84 574.8L741.58 739.2" stroke="#000" stroke-width="2" fill="none"/><path d="M963.62 573.5l-.85.83.25.08-1.58 1.2-1.2-1.6 2.4-1.8zM742.18 740l-.27.2h-3.32l2.4-1.8z"/><path d="M740 365c0-2.76 2.24-5 5-5h30c2.76 0 5 2.24 5 5v14c0 2.76-2.24 5-5 5h-30c-2.76 0-5-2.24-5-5z" fill="none"/><use xlink:href="#l" transform="matrix(1,0,0,1,740,360) translate(15 15.6)"/><path d="M1060 365c0-2.76 2.24-5 5-5h30c2.76 0 5 2.24 5 5v14c0 2.76-2.24 5-5 5h-30c-2.76 0-5-2.24-5-5z" fill="none"/><use xlink:href="#b" transform="matrix(1,0,0,1,1060,360) translate(13.524999999999999 15.6)"/><path d="M788 232c0 17.67-19.1 32-42.67 32-23.56 0-42.66-14.33-42.66-32s19.1-32 42.66-32c23.57 0 42.67 14.33 42.67 32z" stroke="#000" stroke-width="2" fill="#fff"/><use xlink:href="#m" transform="matrix(1,0,0,1,702.6666666666667,200) translate(24.03 34.4)"/><path d="M745.33 265L650 319" stroke="#000" stroke-width="2" fill="none"/><path d="M748.44 264.4l-2.6 1.47-1-1.74.25-.14h.23l2.73-.06.1-.02zM650.5 319.87l-.24.13h-3.14l-.22-.4 2.6-1.47z"/><path d="M685.08 673c0 18.12-30.63 32.8-68.42 32.8-37.78 0-68.4-14.68-68.4-32.8 0-18.1 30.62-32.8 68.4-32.8 37.8 0 68.42 14.7 68.42 32.8z" stroke="#000" stroke-width="2" fill="#fff"/><use xlink:href="#n" transform="matrix(1,0,0,1,548.2479641666666,640.2022) translate(14.054999999999994 35.410000000000004)"/><path d="M666.3 696.67l20.95 51.27" stroke="#000" stroke-width="2" fill="none"/><path d="M667.22 696.3l-1.86.75-.36-.88 1.7-.8.1-.06zM688.25 747.74v3.03l-.8.32-1.13-2.8 1.85-.74z"/><path d="M986.42 699c0 17.67-32.78 32-73.2 32-40.44 0-73.22-14.33-73.22-32s32.78-32 73.2-32c40.44 0 73.22 14.33 73.22 32z" stroke="#000" stroke-width="2" fill="#fff"/><use xlink:href="#o" transform="matrix(1,0,0,1,840,667) translate(17.579999999999995 33.410000000000004)"/><path d="M913.2 732l31.35 9.14" stroke="#000" stroke-width="2" fill="none"/><path d="M913.2 731h.13l.16.04-.57 1.92-2.88-.84.35-1.22zM946.25 740.6l-.62.45-.43 1.32-.93-.27.56-1.92z"/><path d="M1338 648.2c0 17.68-30.9 32-69 32s-69-14.32-69-32c0-17.67 30.9-32 69-32s69 14.33 69 32z" stroke="#000" stroke-width="2" fill="#fff"/><use xlink:href="#p" transform="matrix(1,0,0,1,1200,616.2022000000002) translate(22.579999999999995 34.4)"/><path d="M1269 681.2l-33.08 58" stroke="#000" stroke-width="2" fill="none"/><path d="M1269.87 681.7l-1.74-1 .3-.52.57.02 1.75-.04zM1236.8 739.7l-.3.5h-2.3l.85-1.5z"/><path d="M737.5 883.5c2.06-1.82 5.43-1.82 7.5 0l54.2 47.4c2.08 1.83 2.08 4.78 0 6.6L745 984.9c-2.07 1.83-5.44 1.83-7.5 0l-54.2-47.4c-2.08-1.82-2.08-4.77 0-6.6z" stroke="#000" stroke-width="2" fill="#fff"/><use xlink:href="#q" transform="matrix(1,0,0,1,679.533678452381,880.2022000000001) translate(39.03 58.275)"/><path d="M741.25 881.16V821.2" stroke="#000" stroke-width="2" fill="none"/><path d="M742.25 882.3l-.74-.16-1.25.17v-1.14h2zM742.25 821.2h-2v-1h2z"/><path d="M661.25 1053.2c0-2.76 2.24-5 5-5h150c2.76 0 5 2.24 5 5v70c0 2.76-2.24 5-5 5h-150c-2.76 0-5-2.24-5-5z" stroke="#000" stroke-width="2" fill="#fff"/><use xlink:href="#r" transform="matrix(1,0,0,1,661.2479641666666,1048.2022000000002) translate(10.055000000000001 44.775)"/><path d="M741.25 1047.2v-59.96" stroke="#000" stroke-width="2" fill="none"/><path d="M742.25 1048.2h-2v-1h2zM742.25 987.24h-2v-1.14l.74.17 1.25-.17z"/><path d="M994.52 882.3c2.08-1.83 5.45-1.83 7.53 0l54.2 47.4c2.07 1.83 2.07 4.77 0 6.6l-54.2 47.4c-2.08 1.83-5.45 1.83-7.53 0l-54.2-47.4c-2.06-1.83-2.06-4.77 0-6.6z" stroke="#000" stroke-width="2" fill="#fff"/><use xlink:href="#q" transform="matrix(1,0,0,1,936.5714285714286,879) translate(39.03 58.275)"/><path d="M1232.73 883.5c2.08-1.82 5.44-1.82 7.52 0l54.2 47.4c2.07 1.83 2.07 4.78 0 6.6l-54.2 47.4c-2.08 1.83-5.44 1.83-7.52 0l-54.2-47.4c-2.07-1.82-2.07-4.77 0-6.6z" stroke="#000" stroke-width="2" fill="#fff"/><use xlink:href="#q" transform="matrix(1,0,0,1,1174.7758453571425,880.2022000000001) translate(39.03 58.275)"/><path d="M916 1052c0-2.76 2.24-5 5-5h150c2.76 0 5 2.24 5 5v70c0 2.76-2.24 5-5 5H921c-2.76 0-5-2.24-5-5z" stroke="#000" stroke-width="2" fill="#fff"/><use xlink:href="#s" transform="matrix(1,0,0,1,916,1047) translate(8.579999999999993 44.775)"/><path d="M998.3 986.04V1046" stroke="#000" stroke-width="2" fill="none"/><path d="M999.3 986.04h-2v-1.14l.73.17 1.26-.18zM999.3 1047h-2v-1h2z"/><path d="M998.3 879.96V820" stroke="#000" stroke-width="2" fill="none"/><path d="M999.3 881.1l-.76-.17-1.25.18v-1.14h2zM999.3 820h-2v-1h2z"/><path d="M1155.92 1053.2c0-2.76 2.24-5 5-5h150c2.76 0 5 2.24 5 5v70c0 2.76-2.24 5-5 5h-150c-2.76 0-5-2.24-5-5z" stroke="#000" stroke-width="2" fill="#fff"/><use xlink:href="#t" transform="matrix(1,0,0,1,1155.9187024999999,1048.2022000000002) translate(23.054999999999993 44.775)"/><path d="M1235.6 821.2l.9 59.96" stroke="#000" stroke-width="2" fill="none"/><path d="M1236.6 821.2l-2 .02-.03-1.02h2zM1237.5 882.3l-.75-.16-1.24.17v-1.12l2-.03z"/><path d="M1236.5 987.24l-.58 59.96" stroke="#000" stroke-width="2" fill="none"/><path d="M1237.5 987.25l-2-.02v-1.13l.73.17 1.27-.18zM1236.92 1047.2v1h-2v-1z"/><path d="M1272 296l-82 23" stroke="#000" stroke-width="2" fill="none"/><path d="M1275.16 296.15l-2.9.8-.53-1.9.15-.05h.12l2.8-.08zM1190.27 319.96l-.13.04h-2.98l-.32-1.15 2.9-.8z"/><path d="M741.25 1129.2l.33 49.8" stroke="#000" stroke-width="2" fill="none"/><path d="M742.25 1129.2h-2v-1h2zM742.6 1180.03l-1.02-.03h-1v-1h2z"/><path d="M996 1128v51" stroke="#000" stroke-width="2" fill="none"/><path d="M997 1128h-2v-1h2zM997 1180.03l-1-.03h-1v-1h2z"/><path d="M1235.92 1129.2l-.33 49.8" stroke="#000" stroke-width="2" fill="none"/><path d="M1236.92 1129.2h-2v-1h2zM1236.6 1179l-.02 1.03-1-.03h-1v-1z"/><path d="M821.58 1212.8c0 18.1-35.82 32.8-80 32.8s-80-14.7-80-32.8c0-18.1 35.82-32.8 80-32.8s80 14.7 80 32.8z" stroke="#000" stroke-width="2" fill="#fff"/><path d="M818.3 1212.8c0 16.3-34.35 29.52-76.72 29.52s-76.72-13.22-76.72-29.52c0-16.3 34.35-29.52 76.72-29.52s76.72 13.22 76.72 29.52z" stroke="#000" stroke-width="2" fill="#fff"/><path d="M818.3 1212.8c0 16.3-34.35 29.52-76.72 29.52s-76.72-13.22-76.72-29.52c0-16.3 34.35-29.52 76.72-29.52s76.72 13.22 76.72 29.52z" fill="none"/><use xlink:href="#u" transform="matrix(1,0,0,1,661.5812975,1180) translate(37.28 37.0875)"/><path d="M1076 1212.8c0 18.1-35.82 32.8-80 32.8s-80-14.7-80-32.8c0-18.1 35.82-32.8 80-32.8s80 14.7 80 32.8z" stroke="#000" stroke-width="2" fill="#fff"/><path d="M1072.72 1212.8c0 16.3-34.35 29.52-76.72 29.52s-76.72-13.22-76.72-29.52c0-16.3 34.35-29.52 76.72-29.52s76.72 13.22 76.72 29.52z" stroke="#000" stroke-width="2" fill="#fff"/><path d="M1072.72 1212.8c0 16.3-34.35 29.52-76.72 29.52s-76.72-13.22-76.72-29.52c0-16.3 34.35-29.52 76.72-29.52s76.72 13.22 76.72 29.52z" fill="none"/><use xlink:href="#u" transform="matrix(1,0,0,1,916,1180) translate(37.28 37.0875)"/><path d="M1315.6 1212.8c0 18.1-35.83 32.8-80 32.8-44.2 0-80-14.7-80-32.8 0-18.1 35.8-32.8 80-32.8 44.17 0 80 14.7 80 32.8z" stroke="#000" stroke-width="2" fill="#fff"/><path d="M1312.3 1212.8c0 16.3-34.34 29.52-76.7 29.52-42.4 0-76.73-13.22-76.73-29.52 0-16.3 34.34-29.52 76.72-29.52 42.36 0 76.7 13.22 76.7 29.52z" stroke="#000" stroke-width="2" fill="#fff"/><path d="M1312.3 1212.8c0 16.3-34.34 29.52-76.7 29.52-42.4 0-76.73-13.22-76.73-29.52 0-16.3 34.34-29.52 76.72-29.52 42.36 0 76.7 13.22 76.7 29.52z" fill="none"/><use xlink:href="#u" transform="matrix(1,0,0,1,1155.585369166667,1180) translate(37.28 37.0875)"/><defs><path d="M212-179c-10-28-35-45-73-45-59 0-87 40-87 99 0 60 29 101 89 101 43 0 62-24 78-52l27 14C228-24 195 4 139 4 59 4 22-46 18-125c-6-104 99-153 187-111 19 9 31 26 39 46" id="v"/><path d="M140-251c81 0 123 46 123 126C263-46 219 4 140 4 59 4 17-45 17-125s42-126 123-126zm0 227c63 0 89-41 89-101s-29-99-89-99c-61 0-89 39-89 99S79-25 140-24" id="w"/><path d="M240 0l2-218c-23 76-54 145-80 218h-23L58-218 59 0H30v-248h44l77 211c21-75 51-140 76-211h43V0h-30" id="x"/><path d="M30-248c87 1 191-15 191 75 0 78-77 80-158 76V0H30v-248zm33 125c57 0 124 11 124-50 0-59-68-47-124-48v98" id="y"/><path d="M30 0v-248h33v221h125V0H30" id="z"/><path d="M30 0v-248h187v28H63v79h144v27H63v87h162V0H30" id="A"/><path d="M195 0l-74-108L45 0H8l94-129-87-119h37l69 98 67-98h37l-84 118L233 0h-38" id="B"/><path d="M-5 72V49h209v23H-5" id="C"/><path d="M30-248c118-7 216 8 213 122C240-48 200 0 122 0H30v-248zM63-27c89 8 146-16 146-99s-60-101-146-95v194" id="D"/><path d="M205 0l-28-72H64L36 0H1l101-248h38L239 0h-34zm-38-99l-47-123c-12 45-31 82-46 123h93" id="E"/><path d="M127-220V0H93v-220H8v-28h204v28h-85" id="F"/><g id="a"><use transform="matrix(0.05,0,0,0.05,0,0)" xlink:href="#v"/><use transform="matrix(0.05,0,0,0.05,12.950000000000001,0)" xlink:href="#w"/><use transform="matrix(0.05,0,0,0.05,26.950000000000003,0)" xlink:href="#x"/><use transform="matrix(0.05,0,0,0.05,41.900000000000006,0)" xlink:href="#y"/><use transform="matrix(0.05,0,0,0.05,53.900000000000006,0)" xlink:href="#z"/><use transform="matrix(0.05,0,0,0.05,63.900000000000006,0)" xlink:href="#A"/><use transform="matrix(0.05,0,0,0.05,75.9,0)" xlink:href="#B"/><use transform="matrix(0.05,0,0,0.05,87.9,0)" xlink:href="#C"/><use transform="matrix(0.05,0,0,0.05,97.9,0)" xlink:href="#D"/><use transform="matrix(0.05,0,0,0.05,110.85000000000001,0)" xlink:href="#E"/><use transform="matrix(0.05,0,0,0.05,121.5,0)" xlink:href="#F"/><use transform="matrix(0.05,0,0,0.05,131.10000000000002,0)" xlink:href="#E"/></g><path d="M190 0L58-211 59 0H30v-248h39L202-35l-2-213h31V0h-41" id="G"/><use transform="matrix(0.05,0,0,0.05,0,0)" xlink:href="#G" id="b"/><path d="M33 0v-248h34V0H33" id="H"/><g id="c"><use transform="matrix(0.05,0,0,0.05,0,0)" xlink:href="#H"/><use transform="matrix(0.05,0,0,0.05,5,0)" xlink:href="#D"/><use transform="matrix(0.05,0,0,0.05,17.950000000000003,0)" xlink:href="#C"/><use transform="matrix(0.05,0,0,0.05,27.950000000000003,0)" xlink:href="#v"/><use transform="matrix(0.05,0,0,0.05,40.900000000000006,0)" xlink:href="#D"/><path d="M-.9 1.25h55.65v1.32H-.9z"/></g><path d="M143 4C61 4 22-44 18-125c-5-107 100-154 193-111 17 8 29 25 37 43l-32 9c-13-25-37-40-76-40-61 0-88 39-88 99 0 61 29 100 91 101 35 0 62-11 79-27v-45h-74v-28h105v86C228-13 192 4 143 4" id="I"/><path d="M63-220v92h138v28H63V0H30v-248h175v28H63" id="J"/><path d="M232-93c-1 65-40 97-104 97C67 4 28-28 28-90v-158h33c8 89-33 224 67 224 102 0 64-133 71-224h33v155" id="K"/><path d="M233-177c-1 41-23 64-60 70L243 0h-38l-65-103H63V0H30v-248c88 3 205-21 203 71zM63-129c60-2 137 13 137-47 0-61-80-42-137-45v92" id="L"/><path d="M185-189c-5-48-123-54-124 2 14 75 158 14 163 119 3 78-121 87-175 55-17-10-28-26-33-46l33-7c5 56 141 63 141-1 0-78-155-14-162-118-5-82 145-84 179-34 5 7 8 16 11 25" id="M"/><g id="d"><use transform="matrix(0.05,0,0,0.05,0,0)" xlink:href="#H"/><use transform="matrix(0.05,0,0,0.05,5,0)" xlink:href="#x"/><use transform="matrix(0.05,0,0,0.05,19.950000000000003,0)" xlink:href="#I"/><use transform="matrix(0.05,0,0,0.05,33.95,0)" xlink:href="#C"/><use transform="matrix(0.05,0,0,0.05,43.95,0)" xlink:href="#J"/><use transform="matrix(0.05,0,0,0.05,54.900000000000006,0)" xlink:href="#A"/><use transform="matrix(0.05,0,0,0.05,66.9,0)" xlink:href="#E"/><use transform="matrix(0.05,0,0,0.05,77.55000000000001,0)" xlink:href="#F"/><use transform="matrix(0.05,0,0,0.05,88.50000000000001,0)" xlink:href="#K"/><use transform="matrix(0.05,0,0,0.05,101.45000000000002,0)" xlink:href="#L"/><use transform="matrix(0.05,0,0,0.05,114.40000000000003,0)" xlink:href="#A"/><use transform="matrix(0.05,0,0,0.05,126.40000000000003,0)" xlink:href="#M"/></g><path d="M197 0v-115H63V0H30v-248h33v105h134v-105h34V0h-34" id="N"/><g id="e"><use transform="matrix(0.05,0,0,0.05,0,0)" xlink:href="#N"/><use transform="matrix(0.05,0,0,0.05,12.950000000000001,0)" xlink:href="#E"/><use transform="matrix(0.05,0,0,0.05,24.950000000000003,0)" xlink:href="#M"/><use transform="matrix(0.05,0,0,0.05,36.95,0)" xlink:href="#C"/><use transform="matrix(0.05,0,0,0.05,46.95,0)" xlink:href="#J"/><use transform="matrix(0.05,0,0,0.05,57.900000000000006,0)" xlink:href="#A"/><use transform="matrix(0.05,0,0,0.05,69.9,0)" xlink:href="#E"/><use transform="matrix(0.05,0,0,0.05,80.55000000000001,0)" xlink:href="#F"/></g><g id="f"><use transform="matrix(0.04320987654320988,0,0,0.04320987654320988,0,0)" xlink:href="#H"/><use transform="matrix(0.04320987654320988,0,0,0.04320987654320988,4.320987654320988,0)" xlink:href="#D"/><use transform="matrix(0.04320987654320988,0,0,0.04320987654320988,15.512345679012347,0)" xlink:href="#C"/><use transform="matrix(0.04320987654320988,0,0,0.04320987654320988,24.154320987654323,0)" xlink:href="#J"/><use transform="matrix(0.04320987654320988,0,0,0.04320987654320988,33.617283950617285,0)" xlink:href="#A"/><use transform="matrix(0.04320987654320988,0,0,0.04320987654320988,43.98765432098766,0)" xlink:href="#E"/><use transform="matrix(0.04320987654320988,0,0,0.04320987654320988,53.19135802469136,0)" xlink:href="#F"/><path d="M-.78 1.08h64.2v1.14H-.77z"/></g><g id="g"><use transform="matrix(0.05,0,0,0.05,0,0)" xlink:href="#H"/><use transform="matrix(0.05,0,0,0.05,5,0)" xlink:href="#M"/><use transform="matrix(0.05,0,0,0.05,17,0)" xlink:href="#C"/><use transform="matrix(0.05,0,0,0.05,27,0)" xlink:href="#J"/><use transform="matrix(0.05,0,0,0.05,37.95,0)" xlink:href="#w"/><use transform="matrix(0.05,0,0,0.05,51.95,0)" xlink:href="#v"/><use transform="matrix(0.05,0,0,0.05,64.9,0)" xlink:href="#K"/><use transform="matrix(0.05,0,0,0.05,77.85000000000001,0)" xlink:href="#M"/></g><path d="M141 0L90-78 38 0H4l68-98-65-92h35l48 74 47-74h35l-64 92 68 98h-35" id="O"/><path d="M59-47c-2 24 18 29 38 22v24C64 9 27 4 27-40v-127H5v-23h24l9-43h21v43h35v23H59v120" id="P"/><g id="h"><use transform="matrix(0.05,0,0,0.05,0,0)" xlink:href="#O"/><use transform="matrix(0.05,0,0,0.05,9,0)" xlink:href="#P"/></g><g id="i"><use transform="matrix(0.05,0,0,0.05,0,0)" xlink:href="#M"/><use transform="matrix(0.05,0,0,0.05,12,0)" xlink:href="#N"/><use transform="matrix(0.05,0,0,0.05,24.950000000000003,0)" xlink:href="#E"/><use transform="matrix(0.05,0,0,0.05,36.95,0)" xlink:href="#y"/><use transform="matrix(0.05,0,0,0.05,48.95,0)" xlink:href="#A"/></g><g id="j"><use transform="matrix(0.05,0,0,0.05,0,0)" xlink:href="#v"/><use transform="matrix(0.05,0,0,0.05,12.950000000000001,0)" xlink:href="#w"/><use transform="matrix(0.05,0,0,0.05,26.950000000000003,0)" xlink:href="#z"/><use transform="matrix(0.05,0,0,0.05,36.95,0)" xlink:href="#w"/><use transform="matrix(0.05,0,0,0.05,50.95,0)" xlink:href="#L"/></g><g id="k"><use transform="matrix(0.05,0,0,0.05,0,0)" xlink:href="#F"/><use transform="matrix(0.05,0,0,0.05,10.950000000000001,0)" xlink:href="#A"/><use transform="matrix(0.05,0,0,0.05,22.950000000000003,0)" xlink:href="#B"/><use transform="matrix(0.05,0,0,0.05,34.95,0)" xlink:href="#F"/><use transform="matrix(0.05,0,0,0.05,45.900000000000006,0)" xlink:href="#K"/><use transform="matrix(0.05,0,0,0.05,58.85,0)" xlink:href="#L"/><use transform="matrix(0.05,0,0,0.05,71.80000000000001,0)" xlink:href="#A"/></g><path d="M27 0v-27h64v-190l-56 39v-29l58-41h29v221h61V0H27" id="Q"/><use transform="matrix(0.05,0,0,0.05,0,0)" xlink:href="#Q" id="l"/><g id="m"><use transform="matrix(0.05,0,0,0.05,0,0)" xlink:href="#J"/><use transform="matrix(0.05,0,0,0.05,10.950000000000001,0)" xlink:href="#H"/><use transform="matrix(0.05,0,0,0.05,15.950000000000001,0)" xlink:href="#z"/><use transform="matrix(0.05,0,0,0.05,25.950000000000003,0)" xlink:href="#A"/></g><path d="M137 0h-34L2-248h35l83 218 83-218h36" id="R"/><g id="n"><use transform="matrix(0.05,0,0,0.05,0,0)" xlink:href="#M"/><use transform="matrix(0.05,0,0,0.05,12,0)" xlink:href="#N"/><use transform="matrix(0.05,0,0,0.05,24.950000000000003,0)" xlink:href="#E"/><use transform="matrix(0.05,0,0,0.05,36.95,0)" xlink:href="#y"/><use transform="matrix(0.05,0,0,0.05,48.95,0)" xlink:href="#A"/><use transform="matrix(0.05,0,0,0.05,60.95,0)" xlink:href="#C"/><use transform="matrix(0.05,0,0,0.05,70.95,0)" xlink:href="#R"/><use transform="matrix(0.05,0,0,0.05,82.95,0)" xlink:href="#A"/><use transform="matrix(0.05,0,0,0.05,94.95,0)" xlink:href="#v"/></g><g id="o"><use transform="matrix(0.05,0,0,0.05,0,0)" xlink:href="#v"/><use transform="matrix(0.05,0,0,0.05,12.950000000000001,0)" xlink:href="#w"/><use transform="matrix(0.05,0,0,0.05,26.950000000000003,0)" xlink:href="#z"/><use transform="matrix(0.05,0,0,0.05,36.95,0)" xlink:href="#w"/><use transform="matrix(0.05,0,0,0.05,50.95,0)" xlink:href="#L"/><use transform="matrix(0.05,0,0,0.05,63.900000000000006,0)" xlink:href="#C"/><use transform="matrix(0.05,0,0,0.05,73.9,0)" xlink:href="#R"/><use transform="matrix(0.05,0,0,0.05,85.9,0)" xlink:href="#A"/><use transform="matrix(0.05,0,0,0.05,97.9,0)" xlink:href="#v"/></g><g id="p"><use transform="matrix(0.05,0,0,0.05,0,0)" xlink:href="#F"/><use transform="matrix(0.05,0,0,0.05,10.950000000000001,0)" xlink:href="#A"/><use transform="matrix(0.05,0,0,0.05,22.950000000000003,0)" xlink:href="#B"/><use transform="matrix(0.05,0,0,0.05,34.95,0)" xlink:href="#F"/><use transform="matrix(0.05,0,0,0.05,45.900000000000006,0)" xlink:href="#C"/><use transform="matrix(0.05,0,0,0.05,55.900000000000006,0)" xlink:href="#R"/><use transform="matrix(0.05,0,0,0.05,67.9,0)" xlink:href="#A"/><use transform="matrix(0.05,0,0,0.05,79.9,0)" xlink:href="#v"/></g><g id="q"><use transform="matrix(0.05,0,0,0.05,0,0)" xlink:href="#H"/><use transform="matrix(0.05,0,0,0.05,5,0)" xlink:href="#M"/><use transform="matrix(0.05,0,0,0.05,17,0)" xlink:href="#C"/><use transform="matrix(0.05,0,0,0.05,27,0)" xlink:href="#H"/><use transform="matrix(0.05,0,0,0.05,32,0)" xlink:href="#G"/></g><path d="M160-131c35 5 61 23 61 61C221 17 115-2 30 0v-248c76 3 177-17 177 60 0 33-19 50-47 57zm-97-11c50-1 110 9 110-42 0-47-63-36-110-37v79zm0 115c55-2 124 14 124-45 0-56-70-42-124-44v89" id="S"/><g id="r"><use transform="matrix(0.05,0,0,0.05,0,0)" xlink:href="#M"/><use transform="matrix(0.05,0,0,0.05,12,0)" xlink:href="#N"/><use transform="matrix(0.05,0,0,0.05,24.950000000000003,0)" xlink:href="#E"/><use transform="matrix(0.05,0,0,0.05,36.95,0)" xlink:href="#y"/><use transform="matrix(0.05,0,0,0.05,48.95,0)" xlink:href="#A"/><use transform="matrix(0.05,0,0,0.05,60.95,0)" xlink:href="#C"/><use transform="matrix(0.05,0,0,0.05,70.95,0)" xlink:href="#J"/><use transform="matrix(0.05,0,0,0.05,81.9,0)" xlink:href="#C"/><use transform="matrix(0.05,0,0,0.05,91.9,0)" xlink:href="#S"/><use transform="matrix(0.05,0,0,0.05,103.9,0)" xlink:href="#E"/><use transform="matrix(0.05,0,0,0.05,115.9,0)" xlink:href="#M"/><use transform="matrix(0.05,0,0,0.05,127.9,0)" xlink:href="#A"/></g><g id="s"><use transform="matrix(0.05,0,0,0.05,0,0)" xlink:href="#v"/><use transform="matrix(0.05,0,0,0.05,12.950000000000001,0)" xlink:href="#w"/><use transform="matrix(0.05,0,0,0.05,26.950000000000003,0)" xlink:href="#z"/><use transform="matrix(0.05,0,0,0.05,36.95,0)" xlink:href="#w"/><use transform="matrix(0.05,0,0,0.05,50.95,0)" xlink:href="#L"/><use transform="matrix(0.05,0,0,0.05,63.900000000000006,0)" xlink:href="#C"/><use transform="matrix(0.05,0,0,0.05,73.9,0)" xlink:href="#J"/><use transform="matrix(0.05,0,0,0.05,84.85000000000001,0)" xlink:href="#C"/><use transform="matrix(0.05,0,0,0.05,94.85000000000001,0)" xlink:href="#S"/><use transform="matrix(0.05,0,0,0.05,106.85000000000001,0)" xlink:href="#E"/><use transform="matrix(0.05,0,0,0.05,118.85000000000001,0)" xlink:href="#M"/><use transform="matrix(0.05,0,0,0.05,130.85000000000002,0)" xlink:href="#A"/></g><g id="t"><use transform="matrix(0.05,0,0,0.05,0,0)" xlink:href="#F"/><use transform="matrix(0.05,0,0,0.05,10.950000000000001,0)" xlink:href="#A"/><use transform="matrix(0.05,0,0,0.05,22.950000000000003,0)" xlink:href="#B"/><use transform="matrix(0.05,0,0,0.05,34.95,0)" xlink:href="#C"/><use transform="matrix(0.05,0,0,0.05,44.95,0)" xlink:href="#J"/><use transform="matrix(0.05,0,0,0.05,55.900000000000006,0)" xlink:href="#C"/><use transform="matrix(0.05,0,0,0.05,65.9,0)" xlink:href="#S"/><use transform="matrix(0.05,0,0,0.05,77.9,0)" xlink:href="#E"/><use transform="matrix(0.05,0,0,0.05,89.9,0)" xlink:href="#M"/><use transform="matrix(0.05,0,0,0.05,101.9,0)" xlink:href="#A"/></g><g id="u"><use transform="matrix(0.05,0,0,0.05,0,0)" xlink:href="#J"/><use transform="matrix(0.05,0,0,0.05,10.950000000000001,0)" xlink:href="#C"/><use transform="matrix(0.05,0,0,0.05,20.950000000000003,0)" xlink:href="#D"/><use transform="matrix(0.05,0,0,0.05,33.900000000000006,0)" xlink:href="#H"/><use transform="matrix(0.05,0,0,0.05,38.900000000000006,0)" xlink:href="#M"/><use transform="matrix(0.05,0,0,0.05,50.900000000000006,0)" xlink:href="#F"/><use transform="matrix(0.05,0,0,0.05,60.5,0)" xlink:href="#E"/><use transform="matrix(0.05,0,0,0.05,72.5,0)" xlink:href="#G"/></g></defs></g></svg>