<?xml version="1.0" encoding="UTF-8" standalone="no"?>
<!-- Created with Inkscape (http://www.inkscape.org/) -->

<svg
   xmlns:dc="http://purl.org/dc/elements/1.1/"
   xmlns:cc="http://creativecommons.org/ns#"
   xmlns:rdf="http://www.w3.org/1999/02/22-rdf-syntax-ns#"
   xmlns:svg="http://www.w3.org/2000/svg"
   xmlns="http://www.w3.org/2000/svg"
   xmlns:xlink="http://www.w3.org/1999/xlink"
   xmlns:sodipodi="http://sodipodi.sourceforge.net/DTD/sodipodi-0.dtd"
   xmlns:inkscape="http://www.inkscape.org/namespaces/inkscape"
   id="svg5256"
   version="1.1"
   inkscape:version="0.91 r13725"
   xml:space="preserve"
   width="322.5"
   height="380"
   viewBox="0 0 322.5 380"
   sodipodi:docname="destri_omni.svg"><sodipodi:namedview
     pagecolor="#ffffff"
     bordercolor="#666666"
     borderopacity="1"
     objecttolerance="10"
     gridtolerance="10"
     guidetolerance="10"
     inkscape:pageopacity="0"
     inkscape:pageshadow="2"
     inkscape:window-width="1920"
     inkscape:window-height="1027"
     id="namedview5258"
     showgrid="false"
     inkscape:zoom="1.7566021"
     inkscape:cx="110.83909"
     inkscape:cy="202.42236"
     inkscape:window-x="0"
     inkscape:window-y="0"
     inkscape:window-maximized="1"
     inkscape:current-layer="svg5256" /><metadata
     id="metadata5262"><rdf:RDF><cc:Work
         rdf:about=""><dc:format>image/svg+xml</dc:format><dc:type
           rdf:resource="http://purl.org/dc/dcmitype/StillImage" /><dc:title></dc:title></cc:Work></rdf:RDF></metadata><defs
     id="defs5260"><linearGradient
       inkscape:collect="always"
       id="linearGradient8109"><stop
         style="stop-color:#e6e6e6;stop-opacity:1;"
         offset="0"
         id="stop8111" /><stop
         style="stop-color:#e6e6e6;stop-opacity:0;"
         offset="1"
         id="stop8113" /></linearGradient><linearGradient
       inkscape:collect="always"
       id="linearGradient8085"><stop
         style="stop-color:#e6e6e6;stop-opacity:1;"
         offset="0"
         id="stop8087" /><stop
         style="stop-color:#e6e6e6;stop-opacity:0;"
         offset="1"
         id="stop8089" /></linearGradient><linearGradient
       inkscape:collect="always"
       id="linearGradient8075"><stop
         style="stop-color:#e6e6e6;stop-opacity:1;"
         offset="0"
         id="stop8077" /><stop
         style="stop-color:#e6e6e6;stop-opacity:0;"
         offset="1"
         id="stop8079" /></linearGradient><linearGradient
       inkscape:collect="always"
       id="linearGradient7971"><stop
         style="stop-color:#e6e6e6;stop-opacity:1;"
         offset="0"
         id="stop7973" /><stop
         style="stop-color:#e6e6e6;stop-opacity:0;"
         offset="1"
         id="stop7975" /></linearGradient><linearGradient
       inkscape:collect="always"
       id="linearGradient7961"><stop
         style="stop-color:#e6e6e6;stop-opacity:1;"
         offset="0"
         id="stop7963" /><stop
         style="stop-color:#e6e6e6;stop-opacity:0;"
         offset="1"
         id="stop7965" /></linearGradient><linearGradient
       inkscape:collect="always"
       id="linearGradient7951"><stop
         style="stop-color:#e6e6e6;stop-opacity:1;"
         offset="0"
         id="stop7953" /><stop
         style="stop-color:#e6e6e6;stop-opacity:0;"
         offset="1"
         id="stop7955" /></linearGradient><linearGradient
       inkscape:collect="always"
       id="linearGradient7941"><stop
         style="stop-color:#e6e6e6;stop-opacity:1;"
         offset="0"
         id="stop7943" /><stop
         style="stop-color:#e6e6e6;stop-opacity:0;"
         offset="1"
         id="stop7945" /></linearGradient><linearGradient
       inkscape:collect="always"
       xlink:href="#linearGradient7941"
       id="linearGradient7947"
       x1="154.69406"
       y1="187.67003"
       x2="223.90693"
       y2="187.67003"
       gradientUnits="userSpaceOnUse" /><linearGradient
       inkscape:collect="always"
       xlink:href="#linearGradient7951"
       id="linearGradient7957"
       x1="244.22511"
       y1="201.1199"
       x2="247.28351"
       y2="201.1199"
       gradientUnits="userSpaceOnUse" /><linearGradient
       inkscape:collect="always"
       xlink:href="#linearGradient7961"
       id="linearGradient7967"
       x1="94.792214"
       y1="117.68132"
       x2="296.41227"
       y2="117.68132"
       gradientUnits="userSpaceOnUse" /><linearGradient
       inkscape:collect="always"
       xlink:href="#linearGradient7971"
       id="linearGradient7977"
       x1="155.18749"
       y1="255.11122"
       x2="310.86287"
       y2="255.11122"
       gradientUnits="userSpaceOnUse" /><linearGradient
       inkscape:collect="always"
       xlink:href="#linearGradient8075"
       id="linearGradient8081"
       x1="172.19421"
       y1="187.95091"
       x2="303.5399"
       y2="187.95091"
       gradientUnits="userSpaceOnUse" /><linearGradient
       inkscape:collect="always"
       xlink:href="#linearGradient8085"
       id="linearGradient8091"
       x1="214.13365"
       y1="164.11437"
       x2="217.82405"
       y2="164.11437"
       gradientUnits="userSpaceOnUse" /><linearGradient
       inkscape:collect="always"
       xlink:href="#linearGradient8109"
       id="linearGradient8115"
       x1="214.88564"
       y1="164.11359"
       x2="217.84879"
       y2="164.11359"
       gradientUnits="userSpaceOnUse" /></defs><g
     transform="matrix(1.25,0,0,-1.25,0,380)"
     inkscape:label="ink_ext_XXXXXX"
     inkscape:groupmode="layer"
     id="g5264"><text
       transform="scale(1,-1)"
       sodipodi:linespacing="125%"
       id="text4356"
       y="-153.28813"
       x="53.296612"
       style="font-style:normal;font-weight:normal;font-size:10px;line-height:125%;font-family:sans-serif;letter-spacing:0px;word-spacing:0px;fill:#000000;fill-opacity:1;stroke:none;stroke-width:1px;stroke-linecap:butt;stroke-linejoin:miter;stroke-opacity:1"
       xml:space="preserve"><tspan
         y="-153.28813"
         x="53.296612"
         id="tspan4358"
         sodipodi:role="line" /></text>
</g><g
     id="g8194"><path
       inkscape:connector-curvature="0"
       id="path5276"
       style="fill:#ff0000;fill-opacity:1;fill-rule:evenodd;stroke:none"
       d="m 118.01515,209.81161 c 0,-1.226 -0.996,-2.222 -2.222,-2.222 -1.231,0 -2.223,0.996 -2.223,2.222 0,1.227 0.992,2.223 2.223,2.223 1.226,0 2.222,-0.996 2.222,-2.223 z"
       transform="matrix(1.25,0,0,-1.25,0,380)" /><path
       inkscape:connector-curvature="0"
       id="path5278"
       style="fill:none;stroke:#000000;stroke-width:0.80000001;stroke-linecap:butt;stroke-linejoin:miter;stroke-miterlimit:4;stroke-dasharray:none;stroke-opacity:1"
       d="m 118.26515,209.93661 c 0,-1.226 -0.996,-2.222 -2.222,-2.222 -1.231,0 -2.223,0.996 -2.223,2.222 0,1.227 0.992,2.223 2.223,2.223 1.226,0 2.222,-0.996 2.222,-2.223 z"
       transform="matrix(1.25,0,0,-1.25,0,380)" /><path
       inkscape:connector-curvature="0"
       id="path5288"
       style="fill:#000000;fill-opacity:1;fill-rule:nonzero;stroke:none"
       d="m 179.742,150.687 c -1.402,1.734 -1.137,4.274 0.594,5.68 1.73,1.402 4.273,1.14 5.68,-0.586 1.406,-1.731 1.152,-4.27 -0.575,-5.68 -1.726,-1.41 -4.269,-1.16 -5.679,0.563 l 3.121,2.562 -3.141,-2.539 z"
       transform="matrix(1.25,0,0,-1.25,0,380)" /><path
       inkscape:connector-curvature="0"
       id="path5290"
       style="fill:none;stroke:#000000;stroke-width:0.80000001;stroke-linecap:butt;stroke-linejoin:miter;stroke-miterlimit:4;stroke-dasharray:none;stroke-opacity:1"
       d="m 179.742,150.687 c -1.402,1.735 -1.137,4.274 0.594,5.68 1.73,1.402 4.273,1.141 5.68,-0.586 1.406,-1.73 1.152,-4.27 -0.575,-5.68 -1.726,-1.41 -4.269,-1.16 -5.679,0.563 l 3.121,2.562 -3.141,-2.539 z"
       transform="matrix(1.25,0,0,-1.25,0,380)" /><path
       inkscape:connector-curvature="0"
       id="path5292"
       style="fill:none;stroke:#000000;stroke-width:1.05330002;stroke-linecap:butt;stroke-linejoin:miter;stroke-miterlimit:4;stroke-dasharray:none;stroke-opacity:1"
       d="m 136.43,115.574 c -20.938,25.898 -16.95,63.859 8.914,84.844 25.859,20.984 63.828,17.07 84.859,-8.754 21.035,-25.821 17.188,-63.797 -8.594,-84.879 -25.781,-21.078 -63.765,-17.3053 -84.894,8.437 l 46.672,38.309 -46.957,-37.957 z"
       transform="matrix(1.25,0,0,-1.25,0,380)" /><path
       inkscape:connector-curvature="0"
       id="path5294"
       style="fill:#000000;fill-opacity:1;fill-rule:nonzero;stroke:none"
       d="m 193.246,149.703 0,-1.032 c -0.305,0.157 -0.621,0.27 -0.953,0.344 -0.324,0.082 -0.664,0.125 -1.016,0.125 -0.531,0 -0.933,-0.086 -1.203,-0.25 -0.273,-0.156 -0.406,-0.402 -0.406,-0.734 0,-0.25 0.094,-0.449 0.281,-0.594 0.196,-0.137 0.586,-0.266 1.172,-0.391 l 0.359,-0.093 c 0.77,-0.157 1.317,-0.387 1.641,-0.688 0.32,-0.304 0.484,-0.719 0.484,-1.25 0,-0.617 -0.246,-1.101 -0.734,-1.453 -0.48,-0.355 -1.141,-0.531 -1.984,-0.531 -0.356,0 -0.727,0.039 -1.11,0.109 -0.375,0.063 -0.773,0.16 -1.187,0.297 l 0,1.125 c 0.394,-0.211 0.785,-0.367 1.172,-0.469 0.383,-0.105 0.769,-0.156 1.156,-0.156 0.5,0 0.883,0.082 1.156,0.25 0.281,0.176 0.422,0.426 0.422,0.75 0,0.289 -0.101,0.516 -0.297,0.672 -0.199,0.156 -0.633,0.305 -1.297,0.453 l -0.375,0.078 c -0.668,0.145 -1.152,0.363 -1.453,0.656 -0.293,0.29 -0.437,0.688 -0.437,1.188 0,0.625 0.218,1.102 0.656,1.437 0.437,0.332 1.055,0.5 1.859,0.5 0.395,0 0.77,-0.031 1.125,-0.093 0.352,-0.055 0.676,-0.137 0.969,-0.25 z"
       transform="matrix(1.25,0,0,-1.25,0,380)" /><path
       inkscape:connector-curvature="0"
       id="path5296"
       style="fill:#000000;fill-opacity:1;fill-rule:nonzero;stroke:none"
       d="m 195.379,143.117 c 0,-0.531 0.109,-0.949 0.328,-1.25 0.219,-0.305 0.516,-0.453 0.891,-0.453 0.382,0 0.687,0.148 0.906,0.453 0.219,0.301 0.328,0.719 0.328,1.25 0,0.531 -0.109,0.941 -0.328,1.234 -0.219,0.301 -0.524,0.453 -0.906,0.453 -0.375,0 -0.672,-0.152 -0.891,-0.453 -0.219,-0.293 -0.328,-0.703 -0.328,-1.234 z m 2.453,-1.531 c -0.156,-0.262 -0.352,-0.454 -0.578,-0.579 -0.231,-0.125 -0.508,-0.187 -0.828,-0.187 -0.531,0 -0.965,0.207 -1.297,0.625 -0.336,0.426 -0.5,0.984 -0.5,1.672 0,0.687 0.164,1.238 0.5,1.656 0.332,0.426 0.766,0.641 1.297,0.641 0.32,0 0.597,-0.063 0.828,-0.188 0.226,-0.125 0.422,-0.32 0.578,-0.578 l 0,0.656 0.719,0 0,-6.047 -0.719,0 0,2.329 z"
       transform="matrix(1.25,0,0,-1.25,0,380)" /><path
       inkscape:connector-curvature="0"
       id="path5298"
       style="fill:#000000;fill-opacity:1;fill-rule:nonzero;stroke:none"
       d="m 164.035,124.683 c 0.508,-0.012 0.891,-0.164 1.141,-0.453 0.269,-0.312 0.363,-0.703 0.281,-1.172 -0.094,-0.445 -0.312,-0.828 -0.656,-1.14 -0.387,-0.332 -0.899,-0.5 -1.531,-0.5 0.062,0.293 0.117,0.585 0.171,0.875 0.27,-0.02 0.504,0.058 0.704,0.234 0.144,0.137 0.234,0.277 0.265,0.422 0.039,0.211 0.016,0.398 -0.078,0.562 -0.094,0.168 -0.25,0.25 -0.469,0.25 -2.437,0 -3.492,0.852 -3.156,2.563 0.227,1.176 1.023,1.937 2.391,2.281 -1.063,0.133 -1.496,0.711 -1.297,1.734 0.144,0.758 0.676,1.301 1.594,1.625 l -1.219,0 0.219,1.094 4.625,0 -0.219,-1.094 c -2.461,0 -3.797,-0.57 -4.016,-1.703 -0.148,-0.75 0.813,-1.14 2.875,-1.172 l -0.203,-1 c -2.211,0.094 -3.434,-0.496 -3.672,-1.765 -0.199,-1.063 0.551,-1.61 2.25,-1.641 z"
       transform="matrix(1.25,0,0,-1.25,0,380)" /><path
       inkscape:connector-curvature="0"
       id="path5312"
       style="fill:#000000;fill-opacity:1;fill-rule:nonzero;stroke:none"
       d="m 14.5898,106.339 -3.2347,0.43 -2.24612,-2.437 -0.52695,3.222 -2.96094,1.332 2.90977,1.567 0.41406,3.258 2.32808,-2.254 3.2149,0.679 -1.4719,-2.957 1.5738,-2.84 z"
       transform="matrix(1.25,0,0,-1.25,0,380)" /><g
       transform="matrix(0.12365662,-0.00268679,0,0.12365662,0,380)"
       id="g5314"
       style=""><path
         inkscape:connector-curvature="0"
         id="path5316"
         style="fill:none;stroke:#000000;stroke-width:8.08691025;stroke-linecap:butt;stroke-linejoin:miter;stroke-miterlimit:4;stroke-dasharray:none;stroke-opacity:1"
         d="m 147.483,-1071.75 -32.699,-5.05 -22.7046,24.15 -5.3267,-32.69 -29.9311,-14.11 29.4138,-15.2 4.1856,-32.84 23.534,23.29 32.498,-6.17 -14.879,29.57 15.909,29.05 z" /></g><path
       inkscape:connector-curvature="0"
       id="path5318"
       style="fill:none;stroke:#000000;stroke-width:0.80000001;stroke-linecap:butt;stroke-linejoin:miter;stroke-miterlimit:4;stroke-dasharray:none;stroke-opacity:1"
       d="M 0.0390625,225.812 C 46.0391,230.293 90.3551,207.222 113.066,166.965 135.773,126.711 132.605,76.8469 104.977,39.793"
       transform="matrix(1.25,0,0,-1.25,0,380)" /><path
       inkscape:connector-curvature="0"
       id="path5320"
       style="fill:none;stroke:#000000;stroke-width:0.80000001;stroke-linecap:butt;stroke-linejoin:miter;stroke-miterlimit:4;stroke-dasharray:none;stroke-opacity:1"
       d="M 150.105,303.039 C 245.688,234.285 276.727,106.035 223.168,1.18281"
       transform="matrix(1.25,0,0,-1.25,0,380)" /><path
       inkscape:connector-curvature="0"
       id="path5330"
       style="fill:none;stroke:#000000;stroke-width:0.80000001;stroke-linecap:butt;stroke-linejoin:miter;stroke-miterlimit:4;stroke-dasharray:none;stroke-opacity:1"
       d="M 10.957,109.187 43.684,221.515"
       transform="matrix(1.25,0,0,-1.25,0,380)" /><path
       inkscape:connector-curvature="0"
       id="path5332"
       style="fill:#000000;fill-opacity:1;fill-rule:evenodd;stroke:none"
       d="m 37.8828,214.296 6.0863,8.243 0.7028,-10.219 c -1.5739,2.058 -4.3168,2.848 -6.7891,1.976 z"
       transform="matrix(1.25,0,0,-1.25,0,380)" /><path
       inkscape:connector-curvature="0"
       id="path5334"
       style="fill:none;stroke:#000000;stroke-width:0.55000001;stroke-linecap:butt;stroke-linejoin:round;stroke-miterlimit:4;stroke-dasharray:none;stroke-opacity:1"
       d="m 37.8828,214.297 6.0863,8.242 0.7028,-10.219 c -1.5739,2.059 -4.3168,2.848 -6.7891,1.977 z"
       transform="matrix(1.25,0,0,-1.25,0,380)" /><path
       inkscape:connector-curvature="0"
       id="path5336"
       style="fill:none;stroke:#000000;stroke-width:0.80000001;stroke-linecap:butt;stroke-linejoin:miter;stroke-miterlimit:4;stroke-dasharray:none;stroke-opacity:1"
       d="M 11.359,107.972 C 12.977,107.57 239.652,44.5348 239.652,44.5348"
       transform="matrix(1.25,0,0,-1.25,0,380)" /><path
       inkscape:connector-curvature="0"
       id="path5338"
       style="fill:#000000;fill-opacity:1;fill-rule:evenodd;stroke:none"
       d="m 232.363,50.2461 8.317,-5.9813 -10.211,-0.832 c 2.039,1.6024 2.797,4.3563 1.894,6.8133 z"
       transform="matrix(1.25,0,0,-1.25,0,380)" /><path
       inkscape:connector-curvature="0"
       id="path5340"
       style="fill:none;stroke:#000000;stroke-width:0.55000001;stroke-linecap:butt;stroke-linejoin:round;stroke-miterlimit:4;stroke-dasharray:none;stroke-opacity:1"
       d="m 232.363,50.2457 8.317,-5.9809 -10.211,-0.832 c 2.039,1.602 2.797,4.3559 1.894,6.8129 z"
       transform="matrix(1.25,0,0,-1.25,0,380)" /><path
       inkscape:connector-curvature="0"
       id="path5342"
       style="fill:#b3b3b3;fill-opacity:1;fill-rule:nonzero;stroke:none"
       d="m 128.219,120.105 c 0,0.106 0.09,0.246 0.203,0.316 0.109,0.067 0.199,-0.019 0.199,-0.191 0,-0.176 -0.09,-0.316 -0.199,-0.316 -0.113,0 -0.203,0.086 -0.203,0.191 z"
       transform="matrix(1.25,0,0,-1.25,0,380)" /><path
       inkscape:connector-curvature="0"
       id="path5344"
       style="fill:#b3b3b3;fill-opacity:1;fill-rule:nonzero;stroke:none"
       d="m 133.547,118.039 c -0.164,0.207 -0.719,0.992 -1.238,1.742 -0.516,0.75 -1.219,1.726 -1.559,2.172 -0.824,1.074 -0.805,1.027 -0.445,1.027 0.199,0 0.351,-0.074 0.437,-0.211 0.07,-0.117 0.481,-0.781 0.91,-1.473 0.43,-0.695 1.141,-1.773 1.578,-2.398 0.438,-0.621 0.797,-1.156 0.797,-1.187 0,-0.157 -0.218,-0.008 -0.48,0.328 z"
       transform="matrix(1.25,0,0,-1.25,0,380)" /><path
       inkscape:connector-curvature="0"
       id="path5388"
       style="fill:#000000;fill-opacity:1;fill-rule:evenodd;stroke:none"
       d="m 12.402,90.4922 1.9531,0 c 0.4539,0 0.6801,0 0.6801,0.3828 0,0.2141 -0.2262,0.2141 -0.6172,0.2141 l -1.8789,0 0.473,2.1961 c 0.0899,0.4058 0.4098,1.7726 0.5469,2.0039 0.207,0.3629 0.593,0.6558 1.066,0.6558 0.0898,0 0.684,0 1.1172,-0.3519 -1.0043,-0.07 -1.2301,-0.75 -1.2301,-1.0352 0,-0.4449 0.4098,-0.6758 0.8399,-0.6758 0.589,0 1.25,0.4258 1.25,1.1571 0,0.8859 -1.043,1.332 -1.977,1.332 -0.7699,0 -2.1988,-0.352 -2.8789,-2.2582 -0.1371,-0.4059 -0.2031,-0.5938 -0.75,-3.0238 l -1.56212,0 C 9,91.0891 8.75,91.0891 8.75,90.7219 c 0,-0.2297 0.20313,-0.2297 0.63711,-0.2297 l 1.49999,0 -1.70312,-7.6141 c -0.41093,-1.8672 -0.79687,-3.625 -1.97304,-3.625 -0.08985,0 -0.65977,0 -1.09375,0.3481 1.04297,0.059 1.25,0.75 1.25,1.0429 0,0.4418 -0.40625,0.6719 -0.84024,0.6719 -0.58593,0 -1.24609,-0.4219 -1.24609,-1.1519 0,-0.8711 0.99609,-1.3321 1.93008,-1.3321 1.24219,0 2.15195,1.136 2.55898,1.8668 0.73008,1.2153 1.24998,3.5512 1.26918,3.6793 l 1.3629,6.1141 z"
       transform="matrix(1.25,0,0,-1.25,0,380)" /><path
       inkscape:connector-curvature="0"
       id="path5392"
       style="fill:#000000;fill-opacity:1;fill-rule:nonzero;stroke:none"
       d="m 28.977,236.183 0.9839,0 0,-6.469 3.5469,0 0,-0.828 -4.5308,0 0,7.297 z"
       transform="matrix(1.25,0,0,-1.25,0,380)" /><path
       inkscape:connector-curvature="0"
       id="path5394"
       style="fill:#000000;fill-opacity:1;fill-rule:nonzero;stroke:none"
       d="m 34.4961,234.355 0.9059,0 0,-5.469 -0.9059,0 0,5.469 z m 0,2.125 0.9059,0 0,-1.141 -0.9059,0 0,1.141 z"
       transform="matrix(1.25,0,0,-1.25,0,380)" /><path
       inkscape:connector-curvature="0"
       id="path5396"
       style="fill:#000000;fill-opacity:1;fill-rule:nonzero;stroke:none"
       d="m 41.5352,233.308 c 0.2187,0.406 0.4847,0.703 0.7968,0.891 0.3129,0.187 0.6801,0.281 1.109,0.281 0.5711,0 1.0078,-0.199 1.3129,-0.594 0.3121,-0.398 0.4691,-0.965 0.4691,-1.703 l 0,-3.297 -0.907,0 0,3.266 c 0,0.531 -0.093,0.922 -0.2808,1.172 -0.1801,0.25 -0.4614,0.375 -0.8442,0.375 -0.468,0 -0.839,-0.156 -1.109,-0.469 -0.2621,-0.305 -0.391,-0.719 -0.391,-1.25 l 0,-3.094 -0.9058,0 0,3.266 c 0,0.531 -0.0942,0.922 -0.2813,1.172 -0.1879,0.25 -0.4769,0.375 -0.859,0.375 -0.4609,0 -0.825,-0.156 -1.0937,-0.469 -0.2742,-0.305 -0.4063,-0.719 -0.4063,-1.25 l 0,-3.094 -0.907,0 0,5.469 0.907,0 0,-0.844 c 0.2071,0.332 0.4531,0.578 0.734,0.735 0.2891,0.156 0.6289,0.234 1.016,0.234 0.4063,0 0.7422,-0.102 1.0153,-0.297 0.2808,-0.199 0.4878,-0.492 0.625,-0.875 z"
       transform="matrix(1.25,0,0,-1.25,0,380)" /><path
       inkscape:connector-curvature="0"
       id="path5398"
       style="fill:#000000;fill-opacity:1;fill-rule:nonzero;stroke:none"
       d="m 47.016,234.355 0.9059,0 0,-5.469 -0.9059,0 0,5.469 z m 0,2.125 0.9059,0 0,-1.141 -0.9059,0 0,1.141 z"
       transform="matrix(1.25,0,0,-1.25,0,380)" /><path
       inkscape:connector-curvature="0"
       id="path5400"
       style="fill:#000000;fill-opacity:1;fill-rule:nonzero;stroke:none"
       d="m 50.6801,235.902 0,-1.547 1.859,0 0,-0.703 -1.859,0 0,-2.969 c 0,-0.437 0.0621,-0.726 0.1871,-0.859 0.125,-0.125 0.375,-0.188 0.75,-0.188 l 0.9219,0 0,-0.75 -0.9219,0 c -0.6992,0 -1.1832,0.129 -1.4531,0.391 -0.2621,0.258 -0.3911,0.726 -0.3911,1.406 l 0,2.969 -0.6558,0 0,0.703 0.6558,0 0,1.547 0.9071,0 z"
       transform="matrix(1.25,0,0,-1.25,0,380)" /><path
       inkscape:connector-curvature="0"
       id="path5402"
       style="fill:#000000;fill-opacity:1;fill-rule:nonzero;stroke:none"
       d="m 58.402,231.839 0,-0.437 -4.1399,0 c 0.0391,-0.617 0.2258,-1.086 0.5617,-1.406 0.3321,-0.325 0.7973,-0.485 1.391,-0.485 0.3442,0 0.6762,0.039 1,0.125 0.3321,0.082 0.6563,0.207 0.9692,0.375 l 0,-0.843 c -0.325,-0.137 -0.657,-0.243 -1,-0.313 -0.336,-0.07 -0.6719,-0.109 -1.016,-0.109 -0.875,0 -1.57,0.25 -2.0782,0.75 -0.5117,0.507 -0.766,1.203 -0.766,2.078 0,0.894 0.2383,1.601 0.7192,2.125 0.4879,0.519 1.1449,0.781 1.9691,0.781 0.7379,0 1.3199,-0.234 1.75,-0.703 0.4258,-0.469 0.6399,-1.117 0.6399,-1.938 z m -0.9059,0.266 c 0,0.488 -0.1371,0.879 -0.4063,1.172 -0.2738,0.301 -0.625,0.453 -1.0628,0.453 -0.511,0 -0.918,-0.148 -1.218,-0.437 -0.293,-0.282 -0.4649,-0.68 -0.516,-1.188 l 3.2031,0 z"
       transform="matrix(1.25,0,0,-1.25,0,380)" /><path
       inkscape:connector-curvature="0"
       id="path5404"
       style="fill:#000000;fill-opacity:1;fill-rule:nonzero;stroke:none"
       d="m 63.0512,234.355 0.9058,0 0,-5.469 -0.9058,0 0,5.469 z m 0,2.125 0.9058,0 0,-1.141 -0.9058,0 0,1.141 z"
       transform="matrix(1.25,0,0,-1.25,0,380)" /><path
       inkscape:connector-curvature="0"
       id="path5406"
       style="fill:#000000;fill-opacity:1;fill-rule:nonzero;stroke:none"
       d="m 70.3711,232.183 0,-3.297 -0.891,0 0,3.266 c 0,0.519 -0.1051,0.906 -0.3121,1.156 -0.1989,0.258 -0.5,0.391 -0.9059,0.391 -0.4812,0 -0.8601,-0.156 -1.141,-0.469 -0.2813,-0.305 -0.4223,-0.719 -0.4223,-1.25 l 0,-3.094 -0.9058,0 0,5.469 0.9058,0 0,-0.844 c 0.2192,0.321 0.4731,0.563 0.766,0.719 0.2891,0.164 0.625,0.25 1,0.25 0.625,0 1.0973,-0.195 1.4223,-0.578 0.3199,-0.387 0.484,-0.961 0.484,-1.719 z"
       transform="matrix(1.25,0,0,-1.25,0,380)" /><path
       inkscape:connector-curvature="0"
       id="path5408"
       style="fill:#000000;fill-opacity:1;fill-rule:nonzero;stroke:none"
       d="m 74.9531,236.48 0,-0.75 -0.859,0 c -0.3242,0 -0.5472,-0.07 -0.6722,-0.203 -0.125,-0.125 -0.1879,-0.356 -0.1879,-0.688 l 0,-0.484 1.4691,0 0,-0.703 -1.4691,0 0,-4.766 -0.9059,0 0,4.766 -0.859,0 0,0.703 0.859,0 0,0.375 c 0,0.613 0.141,1.055 0.4219,1.328 0.2809,0.281 0.727,0.422 1.3441,0.422 l 0.859,0 z"
       transform="matrix(1.25,0,0,-1.25,0,380)" /><path
       inkscape:connector-curvature="0"
       id="path5410"
       style="fill:#000000;fill-opacity:1;fill-rule:nonzero;stroke:none"
       d="m 80.375,231.839 0,-0.437 -4.141,0 c 0.039,-0.617 0.2269,-1.086 0.5629,-1.406 0.332,-0.325 0.7972,-0.485 1.391,-0.485 0.343,0 0.675,0.039 1,0.125 0.332,0.082 0.6562,0.207 0.968,0.375 l 0,-0.843 c -0.3239,-0.137 -0.6559,-0.243 -1,-0.313 -0.336,-0.07 -0.6719,-0.109 -1.0149,-0.109 -0.875,0 -1.5711,0.25 -2.0789,0.75 -0.5109,0.507 -0.7652,1.203 -0.7652,2.078 0,0.894 0.2383,1.601 0.7191,2.125 0.4879,0.519 1.1442,0.781 1.968,0.781 0.739,0 1.3211,-0.234 1.75,-0.703 0.4262,-0.469 0.641,-1.117 0.641,-1.938 z m -0.9059,0.266 c 0,0.488 -0.1371,0.879 -0.407,1.172 -0.273,0.301 -0.6242,0.453 -1.0621,0.453 -0.5121,0 -0.918,-0.148 -1.2191,-0.437 -0.293,-0.282 -0.4649,-0.68 -0.5149,-1.188 l 3.2031,0 z"
       transform="matrix(1.25,0,0,-1.25,0,380)" /><path
       inkscape:connector-curvature="0"
       id="path5412"
       style="fill:#000000;fill-opacity:1;fill-rule:nonzero;stroke:none"
       d="m 85.0121,233.511 c -0.1062,0.063 -0.2152,0.102 -0.3281,0.125 -0.118,0.032 -0.2461,0.047 -0.391,0.047 -0.5121,0 -0.902,-0.168 -1.1719,-0.5 -0.2731,-0.324 -0.4063,-0.797 -0.4063,-1.422 l 0,-2.875 -0.9058,0 0,5.469 0.9058,0 0,-0.844 c 0.1872,0.332 0.4301,0.578 0.734,0.735 0.3012,0.156 0.6723,0.234 1.1102,0.234 0.0621,0 0.1289,-0.008 0.2031,-0.016 0.0699,0 0.1559,-0.011 0.25,-0.031 l 0,-0.922 z"
       transform="matrix(1.25,0,0,-1.25,0,380)" /><path
       inkscape:connector-curvature="0"
       id="path5414"
       style="fill:#000000;fill-opacity:1;fill-rule:nonzero;stroke:none"
       d="m 85.9609,234.355 0.9063,0 0,-5.469 -0.9063,0 0,5.469 z m 0,2.125 0.9063,0 0,-1.141 -0.9063,0 0,1.141 z"
       transform="matrix(1.25,0,0,-1.25,0,380)" /><path
       inkscape:connector-curvature="0"
       id="path5416"
       style="fill:#000000;fill-opacity:1;fill-rule:nonzero;stroke:none"
       d="m 90.859,233.73 c -0.4801,0 -0.859,-0.187 -1.1399,-0.562 -0.2812,-0.375 -0.4222,-0.891 -0.4222,-1.547 0,-0.657 0.1332,-1.172 0.4062,-1.547 0.2809,-0.375 0.6641,-0.563 1.1559,-0.563 0.4769,0 0.8601,0.188 1.141,0.563 0.2809,0.375 0.4219,0.89 0.4219,1.547 0,0.644 -0.141,1.156 -0.4219,1.531 -0.2809,0.383 -0.6641,0.578 -1.141,0.578 z m 0,0.75 c 0.782,0 1.3949,-0.258 1.8441,-0.766 0.4449,-0.5 0.6719,-1.199 0.6719,-2.093 0,-0.899 -0.227,-1.602 -0.6719,-2.11 -0.4492,-0.511 -1.0621,-0.765 -1.8441,-0.765 -0.7809,0 -1.3981,0.254 -1.843,0.765 -0.45,0.508 -0.6719,1.211 -0.6719,2.11 0,0.894 0.2219,1.593 0.6719,2.093 0.4449,0.508 1.0621,0.766 1.843,0.766 z"
       transform="matrix(1.25,0,0,-1.25,0,380)" /><path
       inkscape:connector-curvature="0"
       id="path5418"
       style="fill:#000000;fill-opacity:1;fill-rule:nonzero;stroke:none"
       d="m 98.0199,233.511 c -0.1058,0.063 -0.2148,0.102 -0.3289,0.125 -0.1172,0.032 -0.2461,0.047 -0.3898,0.047 -0.5121,0 -0.9032,-0.168 -1.1723,-0.5 -0.2738,-0.324 -0.4059,-0.797 -0.4059,-1.422 l 0,-2.875 -0.907,0 0,5.469 0.907,0 0,-0.844 c 0.1872,0.332 0.429,0.578 0.734,0.735 0.3008,0.156 0.6719,0.234 1.109,0.234 0.0629,0 0.1289,-0.008 0.2039,-0.016 0.0699,0 0.1563,-0.011 0.25,-0.031 l 0,-0.922 z"
       transform="matrix(1.25,0,0,-1.25,0,380)" /><path
       inkscape:connector-curvature="0"
       id="path5420"
       style="fill:#000000;fill-opacity:1;fill-rule:nonzero;stroke:none"
       d="m 178.848,287.558 0.984,0 0,-6.469 3.547,0 0,-0.828 -4.531,0 0,7.297 z"
       transform="matrix(1.25,0,0,-1.25,0,380)" /><path
       inkscape:connector-curvature="0"
       id="path5422"
       style="fill:#000000;fill-opacity:1;fill-rule:nonzero;stroke:none"
       d="m 184.367,285.73 0.906,0 0,-5.469 -0.906,0 0,5.469 z m 0,2.125 0.906,0 0,-1.141 -0.906,0 0,1.141 z"
       transform="matrix(1.25,0,0,-1.25,0,380)" /><path
       inkscape:connector-curvature="0"
       id="path5424"
       style="fill:#000000;fill-opacity:1;fill-rule:nonzero;stroke:none"
       d="m 191.406,284.683 c 0.219,0.406 0.485,0.703 0.797,0.891 0.313,0.187 0.68,0.281 1.109,0.281 0.571,0 1.008,-0.199 1.313,-0.594 0.313,-0.398 0.469,-0.965 0.469,-1.703 l 0,-3.297 -0.906,0 0,3.266 c 0,0.531 -0.094,0.922 -0.282,1.172 -0.179,0.25 -0.461,0.375 -0.844,0.375 -0.468,0 -0.839,-0.156 -1.109,-0.469 -0.262,-0.305 -0.391,-0.719 -0.391,-1.25 l 0,-3.094 -0.906,0 0,3.266 c 0,0.531 -0.094,0.922 -0.281,1.172 -0.187,0.25 -0.477,0.375 -0.859,0.375 -0.461,0 -0.825,-0.156 -1.094,-0.469 -0.274,-0.305 -0.406,-0.719 -0.406,-1.25 l 0,-3.094 -0.907,0 0,5.469 0.907,0 0,-0.844 c 0.207,0.332 0.453,0.578 0.734,0.735 0.289,0.156 0.629,0.234 1.016,0.234 0.406,0 0.742,-0.102 1.015,-0.297 0.281,-0.199 0.489,-0.492 0.625,-0.875 z"
       transform="matrix(1.25,0,0,-1.25,0,380)" /><path
       inkscape:connector-curvature="0"
       id="path5426"
       style="fill:#000000;fill-opacity:1;fill-rule:nonzero;stroke:none"
       d="m 196.887,285.73 0.906,0 0,-5.469 -0.906,0 0,5.469 z m 0,2.125 0.906,0 0,-1.141 -0.906,0 0,1.141 z"
       transform="matrix(1.25,0,0,-1.25,0,380)" /><path
       inkscape:connector-curvature="0"
       id="path5428"
       style="fill:#000000;fill-opacity:1;fill-rule:nonzero;stroke:none"
       d="m 200.551,287.277 0,-1.547 1.859,0 0,-0.703 -1.859,0 0,-2.969 c 0,-0.437 0.062,-0.726 0.187,-0.859 0.125,-0.125 0.375,-0.188 0.75,-0.188 l 0.922,0 0,-0.75 -0.922,0 c -0.699,0 -1.183,0.129 -1.453,0.391 -0.262,0.258 -0.39,0.726 -0.39,1.406 l 0,2.969 -0.657,0 0,0.703 0.657,0 0,1.547 0.906,0 z"
       transform="matrix(1.25,0,0,-1.25,0,380)" /><path
       inkscape:connector-curvature="0"
       id="path5430"
       style="fill:#000000;fill-opacity:1;fill-rule:nonzero;stroke:none"
       d="m 208.273,283.214 0,-0.437 -4.14,0 c 0.039,-0.617 0.226,-1.086 0.562,-1.406 0.332,-0.325 0.797,-0.485 1.391,-0.485 0.344,0 0.676,0.039 1,0.125 0.332,0.082 0.656,0.207 0.969,0.375 l 0,-0.843 c -0.325,-0.137 -0.657,-0.243 -1,-0.313 -0.336,-0.07 -0.672,-0.109 -1.016,-0.109 -0.875,0 -1.57,0.25 -2.078,0.75 -0.512,0.507 -0.766,1.203 -0.766,2.078 0,0.894 0.239,1.601 0.719,2.125 0.488,0.519 1.145,0.781 1.969,0.781 0.738,0 1.32,-0.234 1.75,-0.703 0.426,-0.469 0.64,-1.117 0.64,-1.938 z m -0.906,0.266 c 0,0.488 -0.137,0.879 -0.406,1.172 -0.273,0.301 -0.625,0.453 -1.063,0.453 -0.511,0 -0.918,-0.148 -1.218,-0.437 -0.293,-0.282 -0.465,-0.68 -0.516,-1.188 l 3.203,0 z"
       transform="matrix(1.25,0,0,-1.25,0,380)" /><path
       inkscape:connector-curvature="0"
       id="path5432"
       style="fill:#000000;fill-opacity:1;fill-rule:nonzero;stroke:none"
       d="m 217.344,287.308 0,-0.953 c -0.375,0.176 -0.731,0.305 -1.063,0.391 -0.336,0.093 -0.656,0.14 -0.969,0.14 -0.531,0 -0.945,-0.105 -1.234,-0.312 -0.293,-0.211 -0.437,-0.508 -0.437,-0.891 0,-0.324 0.093,-0.57 0.281,-0.734 0.195,-0.168 0.566,-0.297 1.109,-0.391 l 0.594,-0.125 c 0.727,-0.148 1.27,-0.398 1.625,-0.75 0.352,-0.344 0.531,-0.812 0.531,-1.406 0,-0.711 -0.242,-1.246 -0.719,-1.609 -0.468,-0.368 -1.164,-0.547 -2.078,-0.547 -0.343,0 -0.714,0.043 -1.109,0.125 -0.387,0.07 -0.789,0.187 -1.203,0.343 l 0,1.016 c 0.406,-0.23 0.797,-0.402 1.172,-0.516 0.383,-0.117 0.765,-0.171 1.14,-0.171 0.563,0 0.993,0.109 1.297,0.328 0.313,0.226 0.469,0.547 0.469,0.953 0,0.351 -0.109,0.629 -0.328,0.828 -0.219,0.207 -0.586,0.363 -1.094,0.469 l -0.594,0.109 c -0.742,0.145 -1.277,0.375 -1.609,0.688 -0.324,0.312 -0.484,0.75 -0.484,1.312 0,0.645 0.222,1.148 0.671,1.516 0.458,0.375 1.086,0.562 1.891,0.562 0.344,0 0.692,-0.031 1.047,-0.094 0.352,-0.062 0.719,-0.156 1.094,-0.281 z"
       transform="matrix(1.25,0,0,-1.25,0,380)" /><path
       inkscape:connector-curvature="0"
       id="path5434"
       style="fill:#000000;fill-opacity:1;fill-rule:nonzero;stroke:none"
       d="m 219.176,282.418 0,3.312 0.906,0 0,-3.281 c 0,-0.512 0.098,-0.899 0.297,-1.156 0.207,-0.262 0.508,-0.391 0.906,-0.391 0.488,0 0.875,0.148 1.156,0.453 0.282,0.313 0.422,0.738 0.422,1.281 l 0,3.094 0.907,0 0,-5.469 -0.907,0 0,0.844 c -0.218,-0.336 -0.476,-0.586 -0.765,-0.75 -0.282,-0.156 -0.618,-0.234 -1,-0.234 -0.625,0 -1.106,0.191 -1.438,0.578 -0.324,0.394 -0.484,0.969 -0.484,1.719 z"
       transform="matrix(1.25,0,0,-1.25,0,380)" /><path
       inkscape:connector-curvature="0"
       id="path5436"
       style="fill:#000000;fill-opacity:1;fill-rule:nonzero;stroke:none"
       d="m 226.492,281.089 0,-2.906 -0.906,0 0,7.547 0.906,0 0,-0.828 c 0.188,0.32 0.422,0.562 0.703,0.719 0.289,0.156 0.641,0.234 1.047,0.234 0.664,0 1.203,-0.266 1.61,-0.797 0.414,-0.523 0.625,-1.211 0.625,-2.062 0,-0.868 -0.211,-1.563 -0.625,-2.094 -0.407,-0.524 -0.946,-0.781 -1.61,-0.781 -0.406,0 -0.758,0.078 -1.047,0.234 -0.281,0.156 -0.515,0.398 -0.703,0.734 z m 3.063,1.907 c 0,0.656 -0.141,1.172 -0.422,1.547 -0.274,0.375 -0.641,0.562 -1.11,0.562 -0.48,0 -0.855,-0.187 -1.125,-0.562 -0.273,-0.375 -0.406,-0.891 -0.406,-1.547 0,-0.668 0.133,-1.188 0.406,-1.563 0.27,-0.375 0.645,-0.562 1.125,-0.562 0.469,0 0.836,0.187 1.11,0.562 0.281,0.375 0.422,0.895 0.422,1.563 z"
       transform="matrix(1.25,0,0,-1.25,0,380)" /><path
       inkscape:connector-curvature="0"
       id="path5438"
       style="fill:#000000;fill-opacity:1;fill-rule:nonzero;stroke:none"
       d="m 236.652,283.214 0,-0.437 -4.14,0 c 0.039,-0.617 0.226,-1.086 0.562,-1.406 0.332,-0.325 0.797,-0.485 1.391,-0.485 0.344,0 0.676,0.039 1,0.125 0.332,0.082 0.656,0.207 0.969,0.375 l 0,-0.843 c -0.325,-0.137 -0.657,-0.243 -1,-0.313 -0.336,-0.07 -0.672,-0.109 -1.016,-0.109 -0.875,0 -1.57,0.25 -2.078,0.75 -0.512,0.507 -0.766,1.203 -0.766,2.078 0,0.894 0.238,1.601 0.719,2.125 0.488,0.519 1.145,0.781 1.969,0.781 0.738,0 1.32,-0.234 1.75,-0.703 0.426,-0.469 0.64,-1.117 0.64,-1.938 z m -0.906,0.266 c 0,0.488 -0.137,0.879 -0.406,1.172 -0.274,0.301 -0.625,0.453 -1.063,0.453 -0.511,0 -0.918,-0.148 -1.218,-0.437 -0.293,-0.282 -0.465,-0.68 -0.516,-1.188 l 3.203,0 z"
       transform="matrix(1.25,0,0,-1.25,0,380)" /><path
       inkscape:connector-curvature="0"
       id="path5440"
       style="fill:#000000;fill-opacity:1;fill-rule:nonzero;stroke:none"
       d="m 241.289,284.886 c -0.105,0.063 -0.215,0.102 -0.328,0.125 -0.117,0.032 -0.246,0.047 -0.391,0.047 -0.511,0 -0.902,-0.168 -1.172,-0.5 -0.273,-0.324 -0.406,-0.797 -0.406,-1.422 l 0,-2.875 -0.906,0 0,5.469 0.906,0 0,-0.844 c 0.188,0.332 0.43,0.578 0.735,0.735 0.3,0.156 0.671,0.234 1.109,0.234 0.062,0 0.129,-0.008 0.203,-0.016 0.07,0 0.156,-0.011 0.25,-0.031 l 0,-0.922 z"
       transform="matrix(1.25,0,0,-1.25,0,380)" /><path
       inkscape:connector-curvature="0"
       id="path5442"
       style="fill:#000000;fill-opacity:1;fill-rule:nonzero;stroke:none"
       d="m 242.238,285.73 0.907,0 0,-5.469 -0.907,0 0,5.469 z m 0,2.125 0.907,0 0,-1.141 -0.907,0 0,1.141 z"
       transform="matrix(1.25,0,0,-1.25,0,380)" /><path
       inkscape:connector-curvature="0"
       id="path5444"
       style="fill:#000000;fill-opacity:1;fill-rule:nonzero;stroke:none"
       d="m 247.137,285.105 c -0.481,0 -0.86,-0.187 -1.141,-0.562 -0.281,-0.375 -0.422,-0.891 -0.422,-1.547 0,-0.657 0.133,-1.172 0.406,-1.547 0.282,-0.375 0.665,-0.563 1.157,-0.563 0.476,0 0.859,0.188 1.14,0.563 0.282,0.375 0.422,0.89 0.422,1.547 0,0.644 -0.14,1.156 -0.422,1.531 -0.281,0.383 -0.664,0.578 -1.14,0.578 z m 0,0.75 c 0.781,0 1.394,-0.258 1.843,-0.766 0.446,-0.5 0.672,-1.199 0.672,-2.093 0,-0.899 -0.226,-1.602 -0.672,-2.11 -0.449,-0.511 -1.062,-0.765 -1.843,-0.765 -0.782,0 -1.399,0.254 -1.844,0.765 -0.449,0.508 -0.672,1.211 -0.672,2.11 0,0.894 0.223,1.593 0.672,2.093 0.445,0.508 1.062,0.766 1.844,0.766 z"
       transform="matrix(1.25,0,0,-1.25,0,380)" /><path
       inkscape:connector-curvature="0"
       id="path5446"
       style="fill:#000000;fill-opacity:1;fill-rule:nonzero;stroke:none"
       d="m 254.297,284.886 c -0.106,0.063 -0.215,0.102 -0.328,0.125 -0.117,0.032 -0.246,0.047 -0.391,0.047 -0.512,0 -0.902,-0.168 -1.172,-0.5 -0.273,-0.324 -0.406,-0.797 -0.406,-1.422 l 0,-2.875 -0.906,0 0,5.469 0.906,0 0,-0.844 c 0.188,0.332 0.43,0.578 0.734,0.735 0.301,0.156 0.672,0.234 1.11,0.234 0.062,0 0.129,-0.008 0.203,-0.016 0.07,0 0.156,-0.011 0.25,-0.031 l 0,-0.922 z"
       transform="matrix(1.25,0,0,-1.25,0,380)" /><path
       inkscape:connector-curvature="0"
       id="path5448"
       style="fill:none;stroke:#d50000;stroke-width:0.75;stroke-linecap:butt;stroke-linejoin:miter;stroke-miterlimit:4;stroke-dasharray:6, 3;stroke-dashoffset:0;stroke-opacity:1"
       d="m 11.8711,108.773 171.4839,44.82"
       transform="matrix(1.25,0,0,-1.25,0,380)" /><g
       id="g4546"
       transform="matrix(0.92847836,0,0,0.77299134,16.647905,57.8581)"
       style=""><g
         word-spacing="normal"
         letter-spacing="normal"
         font-size-adjust="none"
         font-stretch="normal"
         font-weight="normal"
         font-variant="normal"
         font-style="normal"
         stroke-miterlimit="10.433"
         xml:space="preserve"
         transform="matrix(0.46071429,0,0,-0.46071429,-80.625,285)"
         id="content"
         style="font-style:normal;font-variant:normal;font-weight:normal;font-stretch:normal;letter-spacing:normal;word-spacing:normal;text-anchor:start;fill:none;fill-opacity:1;fill-rule:evenodd;stroke:#000000;stroke-linecap:butt;stroke-linejoin:miter;stroke-miterlimit:10.43299961;stroke-dasharray:none;stroke-dashoffset:0;stroke-opacity:1"><path
           id="path4549"
           d="m 475.48,424.63 -0.13,-0.01 -0.13,-0.01 -0.12,-0.02 -0.13,-0.03 -0.12,-0.03 -0.11,-0.03 -0.11,-0.04 -0.12,-0.05 -0.1,-0.05 -0.11,-0.05 -0.1,-0.06 -0.09,-0.06 -0.1,-0.07 -0.08,-0.07 -0.09,-0.07 -0.08,-0.08 -0.08,-0.08 -0.07,-0.08 -0.07,-0.09 -0.07,-0.08 -0.06,-0.09 -0.05,-0.1 -0.05,-0.09 -0.05,-0.1 -0.04,-0.09 -0.03,-0.1 -0.03,-0.1 -0.03,-0.1 -0.02,-0.11 -0.01,-0.1 -0.01,-0.1 0,-0.1 c 0,-0.7 0.45,-1.44 1.54,-1.44 1.1,0 2.29,0.84 2.29,2.78 0,2.25 -2.14,4.29 -5.93,4.29 -6.57,0 -8.42,-5.08 -8.42,-7.27 0,-3.89 3.69,-4.64 5.14,-4.94 2.59,-0.49 5.18,-1.04 5.18,-3.78 0,-1.3 -1.15,-5.48 -7.13,-5.48 -0.69,0 -4.53,0 -5.67,2.64 1.89,-0.25 3.13,1.24 3.13,2.64 0,1.14 -0.79,1.74 -1.84,1.74 -1.29,0 -2.79,-1.04 -2.79,-3.28 0,-2.84 2.84,-4.84 7.12,-4.84 8.08,0 10.02,6.03 10.02,8.27 0,1.8 -0.95,3.04 -1.55,3.64 -1.34,1.39 -2.79,1.64 -4.98,2.09 -1.79,0.4 -3.79,0.75 -3.79,2.99 0,1.44 1.2,4.48 5.58,4.48 1.25,0 3.74,-0.35 4.49,-2.29 z"
           inkscape:connector-curvature="0"
           style="fill:#000000;stroke-width:0" /><path
           id="path4551"
           d="m 490.3,420.79 0,0.06 -0.01,0.05 0,0.05 -0.01,0.06 -0.01,0.06 -0.02,0.05 -0.01,0.06 -0.02,0.06 -0.03,0.05 -0.02,0.06 -0.03,0.05 -0.03,0.06 -0.03,0.05 -0.03,0.05 -0.04,0.05 -0.04,0.05 -0.05,0.05 -0.04,0.05 -0.05,0.04 -0.06,0.05 -0.05,0.04 -0.06,0.03 -0.06,0.04 -0.07,0.03 -0.07,0.03 -0.07,0.02 -0.07,0.02 -0.08,0.02 -0.08,0.02 -0.08,0.01 -0.09,0 -0.09,0.01 c -0.94,0 -1.95,-0.91 -1.95,-1.92 0,-0.59 0.45,-1.32 1.39,-1.32 1.02,0 1.96,0.97 1.96,1.91 z"
           inkscape:connector-curvature="0"
           style="fill:#000000;stroke-width:0" /><path
           id="path4553"
           d="m 483.18,403.08 -0.05,-0.17 -0.05,-0.17 -0.03,-0.08 -0.03,-0.09 -0.02,-0.08 -0.03,-0.09 -0.02,-0.09 -0.02,-0.09 -0.01,-0.1 -0.02,-0.09 -0.01,-0.1 -0.01,-0.05 0,-0.05 0,-0.05 -0.01,-0.06 0,-0.05 0,-0.06 c 0,-1.63 1.4,-2.96 3.31,-2.96 3.49,0 5.02,4.81 5.02,5.33 0,0.46 -0.45,0.46 -0.56,0.46 -0.48,0 -0.52,-0.21 -0.66,-0.59 -0.8,-2.79 -2.33,-4.22 -3.69,-4.22 -0.7,0 -0.88,0.45 -0.88,1.22 0,0.8 0.25,1.46 0.56,2.23 0.35,0.94 0.74,1.88 1.12,2.79 0.31,0.84 1.57,4.01 1.71,4.43 0.1,0.34 0.21,0.77 0.21,1.11 0,1.64 -1.4,2.97 -3.31,2.97 -3.46,0 -5.06,-4.74 -5.06,-5.34 0,-0.45 0.49,-0.45 0.59,-0.45 0.49,0 0.52,0.17 0.63,0.56 0.91,2.99 2.44,4.25 3.73,4.25 0.56,0 0.87,-0.28 0.87,-1.22 0,-0.8 -0.21,-1.32 -1.08,-3.48 z"
           inkscape:connector-curvature="0"
           style="fill:#000000;stroke-width:0" /></g></g><path
       style="fill:none;fill-rule:evenodd;stroke:#c50000;stroke-width:0.79680004;stroke-linecap:butt;stroke-linejoin:miter;stroke-opacity:1;stroke-miterlimit:4;stroke-dasharray:6.37440033, 0.79680004000000004;stroke-dashoffset:0"
       d="M 11.042335,108.9049 114.16216,208.19609"
       id="path4616"
       inkscape:connector-curvature="0"
       transform="matrix(1.25,0,0,-1.25,0,380)" /><path
       style="fill:none;fill-rule:evenodd;stroke:#000000;stroke-width:0.80000001px;stroke-linecap:butt;stroke-linejoin:miter;stroke-opacity:1"
       d="m 182.91526,152.9661 -64.64831,55.38984"
       id="path5419"
       inkscape:connector-curvature="0"
       transform="matrix(1.25,0,0,-1.25,0,380)" /><g
       transform="matrix(0.429475,-0.40829931,0.40829931,0.429475,-22.805361,188.71165)"
       id="g5922"><g
         style="font-style:normal;font-variant:normal;font-weight:normal;font-stretch:normal;letter-spacing:normal;word-spacing:normal;text-anchor:start;fill:none;fill-opacity:1;fill-rule:evenodd;stroke:#000000;stroke-linecap:butt;stroke-linejoin:miter;stroke-miterlimit:10.43299961;stroke-dasharray:none;stroke-dashoffset:0;stroke-opacity:1"
         id="g5924"
         transform="matrix(0.46071429,0,0,-0.46071429,-80.625,285)"
         xml:space="preserve"
         stroke-miterlimit="10.433"
         font-style="normal"
         font-variant="normal"
         font-weight="normal"
         font-stretch="normal"
         font-size-adjust="none"
         letter-spacing="normal"
         word-spacing="normal"><path
           style="fill:#000000;stroke-width:0"
           inkscape:connector-curvature="0"
           d="m 481.7,440.02 0,0.01 0,0 0,0.01 0,0.01 0,0.01 0,0.01 0,0.02 0,0.02 -0.01,0.02 0,0.02 -0.01,0.02 0,0.02 -0.01,0.03 -0.01,0.02 -0.01,0.03 -0.01,0.02 -0.02,0.02 -0.01,0.03 -0.02,0.02 -0.02,0.03 -0.03,0.02 -0.01,0.01 -0.01,0.01 -0.01,0.01 -0.02,0.01 -0.01,0.01 -0.02,0.01 -0.01,0.01 -0.02,0.01 -0.02,0.01 -0.02,0.01 -0.01,0.01 -0.02,0 -0.03,0.01 -0.02,0.01 -0.02,0 -0.02,0.01 -0.02,0 -0.03,0.01 -0.02,0 -0.03,0 -0.03,0.01 -0.03,0 -0.03,0 -0.03,0 c -0.74,0 -5.47,-0.45 -6.32,-0.55 -0.4,-0.05 -0.7,-0.3 -0.7,-0.95 0,-0.59 0.45,-0.59 1.2,-0.59 2.39,0 2.49,-0.35 2.49,-0.85 l -0.15,-0.99 -2.99,-11.81 c -0.9,1.84 -2.34,3.19 -4.58,3.19 l 0.05,-1.1 c 3.24,0 3.93,-4.08 3.93,-4.38 0,-0.3 -0.1,-0.6 -0.15,-0.85 l -2.49,-9.76 c -0.25,-0.9 -0.25,-1 -0.99,-1.84 -2.19,-2.75 -4.24,-3.54 -5.63,-3.54 -2.49,0 -3.19,2.74 -3.19,4.68 0,2.49 1.59,8.62 2.74,10.91 1.54,2.94 3.78,4.78 5.78,4.78 l -0.05,1.1 c -5.83,0 -12.01,-7.32 -12.01,-14.6 0,-4.68 2.74,-7.97 6.63,-7.97 0.99,0 3.49,0.2 6.47,3.74 0.4,-2.09 2.14,-3.74 4.53,-3.74 1.75,0 2.9,1.15 3.69,2.74 0.85,1.79 1.5,4.83 1.5,4.93 0,0.5 -0.45,0.5 -0.6,0.5 -0.5,0 -0.55,-0.2 -0.7,-0.89 -0.85,-3.24 -1.74,-6.18 -3.78,-6.18 -1.35,0 -1.5,1.29 -1.5,2.29 0,1.2 0.1,1.54 0.3,2.39 z"
           id="path5926" /><path
           style="fill:#000000;stroke-width:0"
           inkscape:connector-curvature="0"
           d="m 495.19,412.77 3.42,0 c 0.69,0 1.15,0 1.15,0.77 0,0.49 -0.46,0.49 -1.08,0.49 l -3.24,0 c 0.8,4.43 1.08,6.03 1.36,7.04 0.17,0.77 0.94,1.5 1.77,1.5 0.04,0 0.98,0 1.64,-0.42 -1.42,-0.45 -1.53,-1.7 -1.53,-1.92 0,-0.76 0.59,-1.28 1.39,-1.28 0.95,0 1.99,0.8 1.99,2.12 0,1.61 -1.71,2.48 -3.49,2.48 -1.53,0 -3.24,-0.87 -4.18,-2.62 -0.7,-1.29 -0.98,-2.86 -1.71,-6.9 l -2.75,0 c -0.7,0 -1.15,0 -1.15,-0.77 0,-0.49 0.45,-0.49 1.08,-0.49 l 2.58,0 c -0.04,-0.21 -2.23,-12.76 -3.07,-16.49 -0.17,-0.77 -0.77,-3.42 -2.44,-3.42 -0.04,0 -0.88,0 -1.54,0.42 1.43,0.45 1.54,1.71 1.54,1.92 0,0.76 -0.59,1.29 -1.4,1.29 -0.94,0 -1.98,-0.8 -1.98,-2.13 0,-1.57 1.63,-2.47 3.38,-2.47 2.23,0 3.77,2.3 4.18,3.07 1.26,2.33 2.06,6.62 2.13,7.04 z"
           id="path5928" /><path
           style="fill:#000000;stroke-width:0"
           inkscape:connector-curvature="0"
           d="m 523.49,394.04 0,0.03 0,0.03 -0.01,0.01 0,0.02 0,0.01 -0.01,0.02 0,0.02 -0.01,0.01 -0.01,0.02 -0.01,0.02 -0.01,0.03 -0.01,0.02 -0.02,0.02 -0.02,0.03 -0.02,0.03 -0.02,0.03 -0.03,0.03 -0.03,0.04 -0.01,0.02 -0.02,0.02 -0.02,0.02 -0.02,0.02 -0.02,0.02 -0.02,0.03 -0.02,0.02 -0.02,0.02 -0.02,0.03 -0.03,0.02 -0.02,0.03 -0.03,0.03 -0.02,0.03 -0.03,0.03 -0.03,0.03 -0.03,0.03 -0.03,0.03 -0.03,0.03 -0.04,0.04 -0.03,0.03 -0.04,0.04 -0.03,0.03 -0.04,0.04 -0.04,0.04 c -6.23,6.28 -7.82,15.69 -7.82,23.31 0,8.67 1.9,17.34 8.02,23.57 0.65,0.59 0.65,0.69 0.65,0.84 0,0.35 -0.2,0.5 -0.5,0.5 -0.5,0 -4.98,-3.39 -7.92,-9.72 -2.54,-5.47 -3.14,-11 -3.14,-15.19 0,-3.88 0.55,-9.91 3.29,-15.54 2.99,-6.12 7.27,-9.36 7.77,-9.36 0.3,0 0.5,0.15 0.5,0.49 z"
           id="path5930" /><path
           style="fill:#000000;stroke-width:0"
           inkscape:connector-curvature="0"
           d="m 546.48,424.63 -0.13,-0.01 -0.13,-0.01 -0.12,-0.02 -0.13,-0.03 -0.12,-0.03 -0.11,-0.03 -0.11,-0.04 -0.12,-0.05 -0.1,-0.05 -0.11,-0.05 -0.1,-0.06 -0.09,-0.06 -0.1,-0.07 -0.08,-0.07 -0.09,-0.07 -0.08,-0.08 -0.08,-0.08 -0.07,-0.08 -0.07,-0.09 -0.07,-0.08 -0.06,-0.09 -0.05,-0.1 -0.05,-0.09 -0.05,-0.1 -0.04,-0.09 -0.03,-0.1 -0.03,-0.1 -0.03,-0.1 -0.02,-0.11 -0.01,-0.1 -0.01,-0.1 0,-0.1 c 0,-0.7 0.44,-1.44 1.54,-1.44 1.1,0 2.29,0.84 2.29,2.78 0,2.25 -2.14,4.29 -5.93,4.29 -6.57,0 -8.42,-5.08 -8.42,-7.27 0,-3.89 3.69,-4.64 5.14,-4.94 2.59,-0.49 5.18,-1.04 5.18,-3.78 0,-1.3 -1.15,-5.48 -7.13,-5.48 -0.69,0 -4.53,0 -5.67,2.64 1.89,-0.25 3.13,1.24 3.13,2.64 0,1.14 -0.79,1.74 -1.84,1.74 -1.29,0 -2.79,-1.04 -2.79,-3.28 0,-2.84 2.84,-4.84 7.13,-4.84 8.06,0 10.01,6.03 10.01,8.27 0,1.8 -0.95,3.04 -1.55,3.64 -1.34,1.39 -2.79,1.64 -4.98,2.09 -1.79,0.4 -3.79,0.75 -3.79,2.99 0,1.44 1.2,4.48 5.58,4.48 1.25,0 3.74,-0.35 4.49,-2.29 z"
           id="path5932" /><path
           style="fill:#000000;stroke-width:0"
           inkscape:connector-curvature="0"
           d="m 561.3,420.79 0,0.06 -0.01,0.05 0,0.05 -0.01,0.06 -0.01,0.06 -0.02,0.05 -0.01,0.06 -0.02,0.06 -0.03,0.05 -0.02,0.06 -0.03,0.05 -0.03,0.06 -0.03,0.05 -0.03,0.05 -0.04,0.05 -0.04,0.05 -0.05,0.05 -0.04,0.05 -0.05,0.04 -0.06,0.05 -0.05,0.04 -0.06,0.03 -0.06,0.04 -0.07,0.03 -0.07,0.03 -0.07,0.02 -0.07,0.02 -0.08,0.02 -0.08,0.02 -0.08,0.01 -0.09,0 -0.09,0.01 c -0.94,0 -1.95,-0.91 -1.95,-1.92 0,-0.59 0.45,-1.32 1.39,-1.32 1.01,0 1.96,0.97 1.96,1.91 z"
           id="path5934" /><path
           style="fill:#000000;stroke-width:0"
           inkscape:connector-curvature="0"
           d="m 554.18,403.08 -0.05,-0.17 -0.05,-0.17 -0.03,-0.08 -0.03,-0.09 -0.02,-0.08 -0.03,-0.09 -0.02,-0.09 -0.02,-0.09 -0.01,-0.1 -0.02,-0.09 -0.01,-0.1 -0.01,-0.05 0,-0.05 0,-0.05 -0.01,-0.06 0,-0.05 0,-0.06 c 0,-1.63 1.4,-2.96 3.31,-2.96 3.49,0 5.02,4.81 5.02,5.33 0,0.46 -0.45,0.46 -0.55,0.46 -0.49,0 -0.53,-0.21 -0.67,-0.59 -0.8,-2.79 -2.33,-4.22 -3.69,-4.22 -0.7,0 -0.88,0.45 -0.88,1.22 0,0.8 0.25,1.46 0.56,2.23 0.35,0.94 0.74,1.88 1.12,2.79 0.31,0.84 1.57,4.01 1.71,4.43 0.1,0.34 0.21,0.77 0.21,1.11 0,1.64 -1.4,2.97 -3.31,2.97 -3.46,0 -5.06,-4.74 -5.06,-5.34 0,-0.45 0.49,-0.45 0.59,-0.45 0.49,0 0.52,0.17 0.63,0.56 0.91,2.99 2.44,4.25 3.73,4.25 0.56,0 0.87,-0.28 0.87,-1.22 0,-0.8 -0.21,-1.32 -1.08,-3.48 z"
           id="path5936" /><path
           style="fill:#000000;stroke-width:0"
           inkscape:connector-curvature="0"
           d="m 581.4,418.45 -0.01,0.37 0,0.39 -0.01,0.39 -0.01,0.41 -0.04,0.84 -0.06,0.88 -0.09,0.92 -0.1,0.94 -0.14,0.98 -0.16,1 -0.2,1.02 -0.23,1.04 -0.27,1.05 -0.3,1.06 -0.35,1.06 -0.39,1.07 -0.22,0.53 -0.22,0.54 -0.24,0.53 -0.25,0.53 c -2.99,6.12 -7.27,9.36 -7.77,9.36 -0.3,0 -0.5,-0.2 -0.5,-0.5 0,-0.15 0,-0.25 0.94,-1.15 4.89,-4.92 7.73,-12.85 7.73,-23.26 0,-8.52 -1.85,-17.28 -8.02,-23.56 -0.65,-0.6 -0.65,-0.69 -0.65,-0.85 0,-0.29 0.2,-0.49 0.5,-0.49 0.5,0 4.98,3.38 7.92,9.71 2.54,5.48 3.14,11.01 3.14,15.19 z"
           id="path5938" /></g></g><g
       transform="matrix(0.59854496,-0.15766119,0.15766119,0.59854496,14.030886,200.75726)"
       id="g6086"><g
         style="font-style:normal;font-variant:normal;font-weight:normal;font-stretch:normal;letter-spacing:normal;word-spacing:normal;text-anchor:start;fill:none;fill-opacity:1;fill-rule:evenodd;stroke:#000000;stroke-linecap:butt;stroke-linejoin:miter;stroke-miterlimit:10.43299961;stroke-dasharray:none;stroke-dashoffset:0;stroke-opacity:1"
         word-spacing="normal"
         letter-spacing="normal"
         font-size-adjust="none"
         font-stretch="normal"
         font-weight="normal"
         font-variant="normal"
         font-style="normal"
         stroke-miterlimit="10.433"
         xml:space="preserve"
         transform="matrix(0.46071429,0,0,-0.46071429,-80.625,285)"
         id="g6088"><path
           style="fill:#000000;stroke-width:0"
           inkscape:connector-curvature="0"
           id="path6090"
           d="m 481.7,440.02 0,0.01 0,0 0,0.01 0,0.01 0,0.01 0,0.01 0,0.02 0,0.02 -0.01,0.02 0,0.02 -0.01,0.02 0,0.02 -0.01,0.03 -0.01,0.02 -0.01,0.03 -0.01,0.02 -0.02,0.02 -0.01,0.03 -0.02,0.02 -0.02,0.03 -0.03,0.02 -0.01,0.01 -0.01,0.01 -0.01,0.01 -0.02,0.01 -0.01,0.01 -0.02,0.01 -0.01,0.01 -0.02,0.01 -0.02,0.01 -0.02,0.01 -0.01,0.01 -0.02,0 -0.03,0.01 -0.02,0.01 -0.02,0 -0.02,0.01 -0.02,0 -0.03,0.01 -0.02,0 -0.03,0 -0.03,0.01 -0.03,0 -0.03,0 -0.03,0 c -0.74,0 -5.47,-0.45 -6.32,-0.55 -0.4,-0.05 -0.7,-0.3 -0.7,-0.95 0,-0.59 0.45,-0.59 1.2,-0.59 2.39,0 2.49,-0.35 2.49,-0.85 l -0.15,-0.99 -2.99,-11.81 c -0.9,1.84 -2.34,3.19 -4.58,3.19 l 0.05,-1.1 c 3.24,0 3.93,-4.08 3.93,-4.38 0,-0.3 -0.1,-0.6 -0.15,-0.85 l -2.49,-9.76 c -0.25,-0.9 -0.25,-1 -0.99,-1.84 -2.19,-2.75 -4.24,-3.54 -5.63,-3.54 -2.49,0 -3.19,2.74 -3.19,4.68 0,2.49 1.59,8.62 2.74,10.91 1.54,2.94 3.78,4.78 5.78,4.78 l -0.05,1.1 c -5.83,0 -12.01,-7.32 -12.01,-14.6 0,-4.68 2.74,-7.97 6.63,-7.97 0.99,0 3.49,0.2 6.47,3.74 0.4,-2.09 2.14,-3.74 4.53,-3.74 1.75,0 2.9,1.15 3.69,2.74 0.85,1.79 1.5,4.83 1.5,4.93 0,0.5 -0.45,0.5 -0.6,0.5 -0.5,0 -0.55,-0.2 -0.7,-0.89 -0.85,-3.24 -1.74,-6.18 -3.78,-6.18 -1.35,0 -1.5,1.29 -1.5,2.29 0,1.2 0.1,1.54 0.3,2.39 z" /><path
           style="fill:#000000;stroke-width:0"
           inkscape:connector-curvature="0"
           id="path6092"
           d="m 495.19,412.77 3.42,0 c 0.69,0 1.15,0 1.15,0.77 0,0.49 -0.46,0.49 -1.08,0.49 l -3.24,0 c 0.8,4.43 1.08,6.03 1.36,7.04 0.17,0.77 0.94,1.5 1.77,1.5 0.04,0 0.98,0 1.64,-0.42 -1.42,-0.45 -1.53,-1.7 -1.53,-1.92 0,-0.76 0.59,-1.28 1.39,-1.28 0.95,0 1.99,0.8 1.99,2.12 0,1.61 -1.71,2.48 -3.49,2.48 -1.53,0 -3.24,-0.87 -4.18,-2.62 -0.7,-1.29 -0.98,-2.86 -1.71,-6.9 l -2.75,0 c -0.7,0 -1.15,0 -1.15,-0.77 0,-0.49 0.45,-0.49 1.08,-0.49 l 2.58,0 c -0.04,-0.21 -2.23,-12.76 -3.07,-16.49 -0.17,-0.77 -0.77,-3.42 -2.44,-3.42 -0.04,0 -0.88,0 -1.54,0.42 1.43,0.45 1.54,1.71 1.54,1.92 0,0.76 -0.59,1.29 -1.4,1.29 -0.94,0 -1.98,-0.8 -1.98,-2.13 0,-1.57 1.63,-2.47 3.38,-2.47 2.23,0 3.77,2.3 4.18,3.07 1.26,2.33 2.06,6.62 2.13,7.04 z" /><path
           style="fill:#000000;stroke-width:0"
           inkscape:connector-curvature="0"
           id="path6094"
           d="m 523.49,394.04 0,0.03 0,0.03 -0.01,0.01 0,0.02 0,0.01 -0.01,0.02 0,0.02 -0.01,0.01 -0.01,0.02 -0.01,0.02 -0.01,0.03 -0.01,0.02 -0.02,0.02 -0.02,0.03 -0.02,0.03 -0.02,0.03 -0.03,0.03 -0.03,0.04 -0.01,0.02 -0.02,0.02 -0.02,0.02 -0.02,0.02 -0.02,0.02 -0.02,0.03 -0.02,0.02 -0.02,0.02 -0.02,0.03 -0.03,0.02 -0.02,0.03 -0.03,0.03 -0.02,0.03 -0.03,0.03 -0.03,0.03 -0.03,0.03 -0.03,0.03 -0.03,0.03 -0.04,0.04 -0.03,0.03 -0.04,0.04 -0.03,0.03 -0.04,0.04 -0.04,0.04 c -6.23,6.28 -7.82,15.69 -7.82,23.31 0,8.67 1.9,17.34 8.02,23.57 0.65,0.59 0.65,0.69 0.65,0.84 0,0.35 -0.2,0.5 -0.5,0.5 -0.5,0 -4.98,-3.39 -7.92,-9.72 -2.54,-5.47 -3.14,-11 -3.14,-15.19 0,-3.88 0.55,-9.91 3.29,-15.54 2.99,-6.12 7.27,-9.36 7.77,-9.36 0.3,0 0.5,0.15 0.5,0.49 z" /><path
           style="fill:#000000;stroke-width:0"
           inkscape:connector-curvature="0"
           id="path6096"
           d="m 546.48,424.63 -0.13,-0.01 -0.13,-0.01 -0.12,-0.02 -0.13,-0.03 -0.12,-0.03 -0.11,-0.03 -0.11,-0.04 -0.12,-0.05 -0.1,-0.05 -0.11,-0.05 -0.1,-0.06 -0.09,-0.06 -0.1,-0.07 -0.08,-0.07 -0.09,-0.07 -0.08,-0.08 -0.08,-0.08 -0.07,-0.08 -0.07,-0.09 -0.07,-0.08 -0.06,-0.09 -0.05,-0.1 -0.05,-0.09 -0.05,-0.1 -0.04,-0.09 -0.03,-0.1 -0.03,-0.1 -0.03,-0.1 -0.02,-0.11 -0.01,-0.1 -0.01,-0.1 0,-0.1 c 0,-0.7 0.44,-1.44 1.54,-1.44 1.1,0 2.29,0.84 2.29,2.78 0,2.25 -2.14,4.29 -5.93,4.29 -6.57,0 -8.42,-5.08 -8.42,-7.27 0,-3.89 3.69,-4.64 5.14,-4.94 2.59,-0.49 5.18,-1.04 5.18,-3.78 0,-1.3 -1.15,-5.48 -7.13,-5.48 -0.69,0 -4.53,0 -5.67,2.64 1.89,-0.25 3.13,1.24 3.13,2.64 0,1.14 -0.79,1.74 -1.84,1.74 -1.29,0 -2.79,-1.04 -2.79,-3.28 0,-2.84 2.84,-4.84 7.13,-4.84 8.06,0 10.01,6.03 10.01,8.27 0,1.8 -0.95,3.04 -1.55,3.64 -1.34,1.39 -2.79,1.64 -4.98,2.09 -1.79,0.4 -3.79,0.75 -3.79,2.99 0,1.44 1.2,4.48 5.58,4.48 1.25,0 3.74,-0.35 4.49,-2.29 z" /><path
           style="fill:#000000;stroke-width:0"
           inkscape:connector-curvature="0"
           id="path6098"
           d="m 567.75,413.37 0,0.01 0.01,0.01 0,0.03 0.01,0.03 0.01,0.03 0,0.03 0.01,0.04 0,0.03 0.01,0.03 0,0.04 0,0.03 0.01,0.04 0,0.03 0,0.04 0,0.03 0.01,0.04 0,0.03 c 0,0.21 -0.14,0.49 -0.46,0.49 -0.34,0 -1.81,-1.19 -2.51,-2.31 -0.35,0.7 -1.5,2.31 -3.73,2.31 l 0,-0.98 c 2.44,0 3.11,-2.69 3.11,-3.03 0,-0.18 -0.07,-0.39 -0.11,-0.53 l -1.64,-6.45 c -0.17,-0.59 -0.17,-0.66 -0.63,-1.22 -1.35,-1.6 -3,-2.54 -4.35,-2.54 -1.29,0 -2.55,0.91 -2.55,3.38 0,1.85 1.01,5.69 1.82,7.08 1.6,2.79 3.38,3.31 4.35,3.31 l 0,0.98 c -4.46,0 -8.99,-4.92 -8.99,-9.94 0,-3.38 2.27,-5.79 5.26,-5.79 1.99,0 3.63,1.26 4.39,1.92 -0.03,-0.11 -1.11,-4.5 -1.25,-5.09 -0.49,-1.92 -0.52,-1.95 -2.69,-1.99 -0.41,0 -0.9,0 -0.9,-0.77 0,-0.2 0.17,-0.49 0.52,-0.49 l 7.36,0 c 0.31,0 0.7,0.11 0.7,0.77 0,0.49 -0.49,0.49 -0.91,0.49 -0.77,0 -1.71,0 -1.71,0.42 0,0.11 0,0.17 0.17,0.77 z" /><path
           style="fill:#000000;stroke-width:0"
           inkscape:connector-curvature="0"
           id="path6100"
           d="m 586.4,418.45 -0.01,0.37 0,0.39 -0.01,0.39 -0.01,0.41 -0.04,0.84 -0.06,0.88 -0.09,0.92 -0.1,0.94 -0.14,0.98 -0.16,1 -0.2,1.02 -0.23,1.04 -0.27,1.05 -0.3,1.06 -0.35,1.06 -0.39,1.07 -0.22,0.53 -0.22,0.54 -0.24,0.53 -0.25,0.53 c -2.99,6.12 -7.27,9.36 -7.77,9.36 -0.3,0 -0.5,-0.2 -0.5,-0.5 0,-0.15 0,-0.25 0.94,-1.15 4.89,-4.92 7.73,-12.85 7.73,-23.26 0,-8.52 -1.85,-17.28 -8.02,-23.56 -0.65,-0.6 -0.65,-0.69 -0.65,-0.85 0,-0.29 0.2,-0.49 0.5,-0.49 0.5,0 4.98,3.38 7.92,9.71 2.54,5.48 3.14,11.01 3.14,15.19 z" /></g></g><g
       style="fill:#000000;fill-opacity:1;stroke:#000000"
       transform="matrix(0.55191892,0.35868111,-0.35868111,0.55191892,144.13951,40.700536)"
       id="g6264"><g
         style="font-style:normal;font-variant:normal;font-weight:normal;font-stretch:normal;letter-spacing:normal;word-spacing:normal;text-anchor:start;fill:#000000;fill-opacity:1;fill-rule:evenodd;stroke:#000000;stroke-linecap:butt;stroke-linejoin:miter;stroke-miterlimit:10.43299961;stroke-dasharray:none;stroke-dashoffset:0;stroke-opacity:1"
         id="g6266"
         transform="matrix(0.46071429,0,0,-0.46071429,-80.625,285)"
         xml:space="preserve"
         stroke-miterlimit="10.433"
         font-style="normal"
         font-variant="normal"
         font-weight="normal"
         font-stretch="normal"
         font-size-adjust="none"
         letter-spacing="normal"
         word-spacing="normal"><path
           style="fill:#000000;fill-opacity:1;stroke:#000000;stroke-width:0"
           inkscape:connector-curvature="0"
           d="m 481.7,440.02 0,0.01 0,0 0,0.01 0,0.01 0,0.01 0,0.01 0,0.02 0,0.02 -0.01,0.02 0,0.02 -0.01,0.02 0,0.02 -0.01,0.03 -0.01,0.02 -0.01,0.03 -0.01,0.02 -0.02,0.02 -0.01,0.03 -0.02,0.02 -0.02,0.03 -0.03,0.02 -0.01,0.01 -0.01,0.01 -0.01,0.01 -0.02,0.01 -0.01,0.01 -0.02,0.01 -0.01,0.01 -0.02,0.01 -0.02,0.01 -0.02,0.01 -0.01,0.01 -0.02,0 -0.03,0.01 -0.02,0.01 -0.02,0 -0.02,0.01 -0.02,0 -0.03,0.01 -0.02,0 -0.03,0 -0.03,0.01 -0.03,0 -0.03,0 -0.03,0 c -0.74,0 -5.47,-0.45 -6.32,-0.55 -0.4,-0.05 -0.7,-0.3 -0.7,-0.95 0,-0.59 0.45,-0.59 1.2,-0.59 2.39,0 2.49,-0.35 2.49,-0.85 l -0.15,-0.99 -2.99,-11.81 c -0.9,1.84 -2.34,3.19 -4.58,3.19 l 0.05,-1.1 c 3.24,0 3.93,-4.08 3.93,-4.38 0,-0.3 -0.1,-0.6 -0.15,-0.85 l -2.49,-9.76 c -0.25,-0.9 -0.25,-1 -0.99,-1.84 -2.19,-2.75 -4.24,-3.54 -5.63,-3.54 -2.49,0 -3.19,2.74 -3.19,4.68 0,2.49 1.59,8.62 2.74,10.91 1.54,2.94 3.78,4.78 5.78,4.78 l -0.05,1.1 c -5.83,0 -12.01,-7.32 -12.01,-14.6 0,-4.68 2.74,-7.97 6.63,-7.97 0.99,0 3.49,0.2 6.47,3.74 0.4,-2.09 2.14,-3.74 4.53,-3.74 1.75,0 2.9,1.15 3.69,2.74 0.85,1.79 1.5,4.83 1.5,4.93 0,0.5 -0.45,0.5 -0.6,0.5 -0.5,0 -0.55,-0.2 -0.7,-0.89 -0.85,-3.24 -1.74,-6.18 -3.78,-6.18 -1.35,0 -1.5,1.29 -1.5,2.29 0,1.2 0.1,1.54 0.3,2.39 z"
           id="path6268" /><path
           style="fill:#000000;fill-opacity:1;stroke:#000000;stroke-width:0"
           inkscape:connector-curvature="0"
           d="m 497.49,394.04 0,0.03 0,0.03 -0.01,0.01 0,0.02 0,0.01 -0.01,0.02 0,0.02 -0.01,0.01 -0.01,0.02 -0.01,0.02 -0.01,0.03 -0.01,0.02 -0.02,0.02 -0.02,0.03 -0.02,0.03 -0.02,0.03 -0.03,0.03 -0.03,0.04 -0.01,0.02 -0.02,0.02 -0.02,0.02 -0.02,0.02 -0.02,0.02 -0.02,0.03 -0.02,0.02 -0.02,0.02 -0.02,0.03 -0.03,0.02 -0.02,0.03 -0.03,0.03 -0.02,0.03 -0.03,0.03 -0.03,0.03 -0.03,0.03 -0.03,0.03 -0.03,0.03 -0.04,0.04 -0.03,0.03 -0.04,0.04 -0.03,0.03 -0.04,0.04 -0.04,0.04 c -6.23,6.28 -7.82,15.69 -7.82,23.31 0,8.67 1.89,17.34 8.02,23.57 0.65,0.59 0.65,0.69 0.65,0.84 0,0.35 -0.2,0.5 -0.5,0.5 -0.5,0 -4.98,-3.39 -7.92,-9.72 -2.54,-5.47 -3.14,-11 -3.14,-15.19 0,-3.88 0.55,-9.91 3.29,-15.54 2.99,-6.12 7.27,-9.36 7.77,-9.36 0.3,0 0.5,0.15 0.5,0.49 z"
           id="path6270" /><path
           style="fill:#000000;fill-opacity:1;stroke:#000000;stroke-width:0"
           inkscape:connector-curvature="0"
           d="m 520.48,424.63 -0.13,-0.01 -0.13,-0.01 -0.12,-0.02 -0.13,-0.03 -0.12,-0.03 -0.11,-0.03 -0.11,-0.04 -0.12,-0.05 -0.1,-0.05 -0.11,-0.05 -0.1,-0.06 -0.09,-0.06 -0.1,-0.07 -0.08,-0.07 -0.09,-0.07 -0.08,-0.08 -0.08,-0.08 -0.07,-0.08 -0.07,-0.09 -0.07,-0.08 -0.06,-0.09 -0.05,-0.1 -0.05,-0.09 -0.05,-0.1 -0.04,-0.09 -0.03,-0.1 -0.03,-0.1 -0.03,-0.1 -0.02,-0.11 -0.01,-0.1 -0.01,-0.1 0,-0.1 c 0,-0.7 0.44,-1.44 1.54,-1.44 1.1,0 2.29,0.84 2.29,2.78 0,2.25 -2.14,4.29 -5.93,4.29 -6.57,0 -8.42,-5.08 -8.42,-7.27 0,-3.89 3.69,-4.64 5.14,-4.94 2.59,-0.49 5.18,-1.04 5.18,-3.78 0,-1.3 -1.15,-5.48 -7.13,-5.48 -0.69,0 -4.53,0 -5.67,2.64 1.89,-0.25 3.13,1.24 3.13,2.64 0,1.14 -0.79,1.74 -1.84,1.74 -1.29,0 -2.79,-1.04 -2.79,-3.28 0,-2.84 2.84,-4.84 7.12,-4.84 8.07,0 10.02,6.03 10.02,8.27 0,1.8 -0.95,3.04 -1.55,3.64 -1.34,1.39 -2.79,1.64 -4.98,2.09 -1.79,0.4 -3.79,0.75 -3.79,2.99 0,1.44 1.2,4.48 5.58,4.48 1.25,0 3.74,-0.35 4.49,-2.29 z"
           id="path6272" /><path
           style="fill:#000000;fill-opacity:1;stroke:#000000;stroke-width:0"
           inkscape:connector-curvature="0"
           d="m 535.3,420.79 0,0.06 -0.01,0.05 0,0.05 -0.01,0.06 -0.01,0.06 -0.02,0.05 -0.01,0.06 -0.02,0.06 -0.03,0.05 -0.02,0.06 -0.03,0.05 -0.03,0.06 -0.03,0.05 -0.03,0.05 -0.04,0.05 -0.04,0.05 -0.05,0.05 -0.04,0.05 -0.05,0.04 -0.06,0.05 -0.05,0.04 -0.06,0.03 -0.06,0.04 -0.07,0.03 -0.07,0.03 -0.07,0.02 -0.07,0.02 -0.08,0.02 -0.08,0.02 -0.08,0.01 -0.09,0 -0.09,0.01 c -0.94,0 -1.95,-0.91 -1.95,-1.92 0,-0.59 0.45,-1.32 1.39,-1.32 1.01,0 1.96,0.97 1.96,1.91 z"
           id="path6274" /><path
           style="fill:#000000;fill-opacity:1;stroke:#000000;stroke-width:0"
           inkscape:connector-curvature="0"
           d="m 528.18,403.08 -0.05,-0.17 -0.05,-0.17 -0.03,-0.08 -0.03,-0.09 -0.02,-0.08 -0.03,-0.09 -0.02,-0.09 -0.02,-0.09 -0.01,-0.1 -0.02,-0.09 -0.01,-0.1 -0.01,-0.05 0,-0.05 0,-0.05 -0.01,-0.06 0,-0.05 0,-0.06 c 0,-1.63 1.4,-2.96 3.31,-2.96 3.49,0 5.02,4.81 5.02,5.33 0,0.46 -0.45,0.46 -0.55,0.46 -0.49,0 -0.53,-0.21 -0.67,-0.59 -0.8,-2.79 -2.33,-4.22 -3.69,-4.22 -0.7,0 -0.88,0.45 -0.88,1.22 0,0.8 0.25,1.46 0.56,2.23 0.35,0.94 0.74,1.88 1.12,2.79 0.31,0.84 1.57,4.01 1.71,4.43 0.1,0.34 0.21,0.77 0.21,1.11 0,1.64 -1.4,2.97 -3.31,2.97 -3.46,0 -5.06,-4.74 -5.06,-5.34 0,-0.45 0.49,-0.45 0.59,-0.45 0.49,0 0.52,0.17 0.63,0.56 0.91,2.99 2.44,4.25 3.73,4.25 0.56,0 0.87,-0.28 0.87,-1.22 0,-0.8 -0.21,-1.32 -1.08,-3.48 z"
           id="path6276" /><path
           style="fill:#000000;fill-opacity:1;stroke:#000000;stroke-width:0"
           inkscape:connector-curvature="0"
           d="m 551.11,406.05 0,0.31 -0.01,0.29 -0.02,0.29 -0.02,0.28 -0.04,0.27 -0.03,0.26 -0.05,0.26 -0.05,0.24 -0.06,0.24 -0.07,0.23 -0.07,0.22 -0.07,0.21 -0.09,0.2 -0.09,0.19 -0.09,0.18 -0.1,0.18 -0.11,0.16 -0.11,0.15 -0.12,0.15 -0.12,0.13 -0.13,0.13 -0.13,0.11 -0.14,0.1 -0.15,0.1 -0.15,0.08 -0.15,0.07 -0.16,0.06 -0.16,0.05 -0.17,0.04 -0.17,0.03 -0.17,0.02 -0.18,0 c -1.65,0 -2.65,-1.24 -2.65,-2.64 0,-1.34 1,-2.64 2.65,-2.64 0.59,0 1.24,0.2 1.74,0.65 0.15,0.1 0.2,0.15 0.25,0.15 0.05,0 0.1,-0.05 0.1,-0.75 0,-3.69 -1.75,-6.67 -3.39,-8.32 -0.55,-0.55 -0.55,-0.65 -0.55,-0.8 0,-0.34 0.25,-0.54 0.5,-0.54 0.55,0 4.53,3.83 4.53,9.66 z"
           id="path6278" /><path
           style="fill:#000000;fill-opacity:1;stroke:#000000;stroke-width:0"
           inkscape:connector-curvature="0"
           d="m 582.48,424.63 -0.13,-0.01 -0.13,-0.01 -0.12,-0.02 -0.13,-0.03 -0.12,-0.03 -0.11,-0.03 -0.11,-0.04 -0.12,-0.05 -0.1,-0.05 -0.11,-0.05 -0.1,-0.06 -0.09,-0.06 -0.1,-0.07 -0.08,-0.07 -0.09,-0.07 -0.08,-0.08 -0.08,-0.08 -0.07,-0.08 -0.07,-0.09 -0.07,-0.08 -0.06,-0.09 -0.05,-0.1 -0.05,-0.09 -0.05,-0.1 -0.04,-0.09 -0.03,-0.1 -0.03,-0.1 -0.03,-0.1 -0.02,-0.11 -0.01,-0.1 -0.01,-0.1 0,-0.1 c 0,-0.7 0.44,-1.44 1.54,-1.44 1.1,0 2.29,0.84 2.29,2.78 0,2.25 -2.14,4.29 -5.93,4.29 -6.57,0 -8.42,-5.08 -8.42,-7.27 0,-3.89 3.69,-4.64 5.14,-4.94 2.59,-0.49 5.18,-1.04 5.18,-3.78 0,-1.3 -1.15,-5.48 -7.13,-5.48 -0.69,0 -4.53,0 -5.67,2.64 1.89,-0.25 3.13,1.24 3.13,2.64 0,1.14 -0.79,1.74 -1.84,1.74 -1.29,0 -2.79,-1.04 -2.79,-3.28 0,-2.84 2.84,-4.84 7.13,-4.84 8.06,0 10.01,6.03 10.01,8.27 0,1.8 -0.95,3.04 -1.55,3.64 -1.34,1.39 -2.79,1.64 -4.98,2.09 -1.79,0.4 -3.79,0.75 -3.79,2.99 0,1.44 1.2,4.48 5.58,4.48 1.25,0 3.74,-0.35 4.49,-2.29 z"
           id="path6280" /><path
           style="fill:#000000;fill-opacity:1;stroke:#000000;stroke-width:0"
           inkscape:connector-curvature="0"
           d="m 603.75,413.37 0,0.01 0.01,0.01 0,0.03 0.01,0.03 0.01,0.03 0,0.03 0.01,0.04 0,0.03 0.01,0.03 0,0.04 0,0.03 0.01,0.04 0,0.03 0,0.04 0,0.03 0.01,0.04 0,0.03 c 0,0.21 -0.14,0.49 -0.46,0.49 -0.34,0 -1.81,-1.19 -2.51,-2.31 -0.35,0.7 -1.5,2.31 -3.73,2.31 l 0,-0.98 c 2.44,0 3.11,-2.69 3.11,-3.03 0,-0.18 -0.07,-0.39 -0.11,-0.53 l -1.64,-6.45 c -0.17,-0.59 -0.17,-0.66 -0.63,-1.22 -1.35,-1.6 -3,-2.54 -4.35,-2.54 -1.29,0 -2.55,0.91 -2.55,3.38 0,1.85 1.01,5.69 1.82,7.08 1.6,2.79 3.38,3.31 4.35,3.31 l 0,0.98 c -4.46,0 -8.99,-4.92 -8.99,-9.94 0,-3.38 2.27,-5.79 5.26,-5.79 1.99,0 3.63,1.26 4.39,1.92 -0.03,-0.11 -1.11,-4.5 -1.25,-5.09 -0.49,-1.92 -0.52,-1.95 -2.69,-1.99 -0.41,0 -0.9,0 -0.9,-0.77 0,-0.2 0.17,-0.49 0.52,-0.49 l 7.36,0 c 0.31,0 0.7,0.11 0.7,0.77 0,0.49 -0.49,0.49 -0.91,0.49 -0.77,0 -1.71,0 -1.71,0.42 0,0.11 0,0.17 0.17,0.77 z"
           id="path6282" /><path
           style="fill:#000000;fill-opacity:1;stroke:#000000;stroke-width:0"
           inkscape:connector-curvature="0"
           d="m 622.4,418.45 -0.01,0.37 0,0.39 -0.01,0.39 -0.01,0.41 -0.04,0.84 -0.06,0.88 -0.09,0.92 -0.1,0.94 -0.14,0.98 -0.16,1 -0.2,1.02 -0.23,1.04 -0.27,1.05 -0.3,1.06 -0.35,1.06 -0.39,1.07 -0.22,0.53 -0.22,0.54 -0.24,0.53 -0.25,0.53 c -2.99,6.12 -7.27,9.36 -7.77,9.36 -0.3,0 -0.5,-0.2 -0.5,-0.5 0,-0.15 0,-0.25 0.94,-1.15 4.89,-4.92 7.73,-12.85 7.73,-23.26 0,-8.52 -1.85,-17.28 -8.02,-23.56 -0.65,-0.6 -0.65,-0.69 -0.65,-0.85 0,-0.29 0.2,-0.49 0.5,-0.49 0.5,0 4.98,3.38 7.92,9.71 2.54,5.48 3.14,11.01 3.14,15.19 z"
           id="path6284" /></g></g><path
       inkscape:connector-curvature="0"
       id="path7939"
       d="m 168.07107,230.61324 c -3.14604,-4.39339 -7.35118,-12.67376 -9.23769,-18.18999 -1.75631,-5.13551 -1.89687,-4.82763 2.73944,-6.00028 1.33069,-0.33658 2.41944,-0.89177 2.41944,-1.23378 0,-0.60232 -1.15731,-0.51804 -5.46119,0.39767 -1.75496,0.37339 -1.7633,0.36348 -2.48558,-2.95202 -1.26441,-5.80404 -1.43467,-19.80895 -0.32173,-26.46479 1.17388,-7.02034 3.5462,-14.52066 6.54621,-20.69651 2.19299,-4.51449 6.66007,-11.63094 8.46809,-13.4904 0.87907,-0.90407 2.60542,0.46274 26.84177,21.25161 17.83774,15.30043 25.84397,22.51372 25.71499,23.16818 -0.10301,0.52269 -0.55132,1.51773 -0.99624,2.2112 -1.04743,1.63255 -1.03735,1.67767 0.46211,2.06979 0.79701,0.20842 1.06241,0.52301 0.7116,0.8435 -2.24523,2.0512 -51.74814,41.78005 -52.34332,42.00844 -0.45526,0.1747 -1.67425,-0.99037 -3.0579,-2.92262 z m 4.57171,-27.06543 c 2.15989,-0.5816 2.9813,-1.67787 1.25719,-1.67787 -1.75466,0 -7.0613,1.79512 -7.0613,2.38868 0,0.61365 1.62405,0.41476 5.80411,-0.71081 z m 10.81634,-2.84641 c 2.15988,-0.58159 2.9813,-1.67787 1.25719,-1.67787 -1.75466,0 -7.06131,1.79512 -7.06131,2.38868 0,0.61366 1.62406,0.41476 5.80412,-0.71081 z m 9.90581,-2.57219 c 3.33312,-0.96896 4.33334,-2.3458 1.25719,-1.73057 -4.02699,0.8054 -6.16785,1.56742 -5.84972,2.08218 0.45304,0.73303 1.00755,0.69058 4.59253,-0.35161 z m 10.94295,-2.82806 c 3.25093,-0.96542 4.14747,-2.3523 1.13058,-1.74892 -4.027,0.8054 -6.16786,1.56743 -5.84972,2.08218 0.45981,0.744 1.28876,0.68546 4.71914,-0.33326 z m 10.81634,-2.8464 c 2.66325,-0.7909 4.02957,-1.9871 2.23813,-1.95945 -1.75911,0.0271 -6.35,1.53361 -6.55588,2.15125 -0.30335,0.91006 0.76756,0.86249 4.31775,-0.1918 z"
       style="fill:url(#linearGradient7947);fill-opacity:1;stroke:#e6e6e6;stroke-width:0.56700379;stroke-miterlimit:4;stroke-dasharray:4.53603033, 0.56700379000000001;stroke-dashoffset:0" /><path
       inkscape:connector-curvature="0"
       id="path7949"
       d="m 244.94757,202.80002 c -1.26592,-1.1311 -0.54405,-3.94189 0.95009,-3.69942 0.27021,0.0439 0.59156,0.16288 0.71411,0.26451 0.57285,0.47506 0.78848,1.96262 0.41426,2.85786 -0.24607,0.58868 -0.51939,0.80845 -1.12837,0.90727 -0.40426,0.0656 -0.57254,0.007 -0.95009,-0.33022 z"
       style="fill:url(#linearGradient7957);fill-opacity:1;stroke:#e6e6e6;stroke-width:0.14175095;stroke-miterlimit:4;stroke-dasharray:1.13400758, 0.14175094999999999;stroke-dashoffset:0" /><path
       inkscape:connector-curvature="0"
       id="path7959"
       d="m 152.32436,193.86932 c -5.81991,-16.59762 -16.37093,-34.55921 -27.85121,-47.41267 -1.52228,-1.70436 -3.00964,-3.41118 -3.30525,-3.79292 l -0.53747,-0.69407 1.36679,-1.38767 c 1.16692,-1.18472 1.31283,-1.45268 0.99778,-1.8323 -0.32532,-0.39199 -0.53165,-0.29254 -1.74221,0.83981 -0.75526,0.70645 -1.45778,1.28446 -1.56116,1.28446 -0.10339,0 -1.63618,-1.39223 -3.40622,-3.09384 -5.78167,-5.55816 -12.34294,-10.93565 -18.724324,-15.34609 l -2.511611,-1.73588 1.088409,-0.68552 c 0.91528,-0.57647 132.813026,-80.910694 133.340546,-81.212979 0.351,-0.201131 10.33908,11.080396 15.65155,17.678413 18.49691,22.972881 33.49688,48.631106 44.51276,76.141316 2.64907,6.61561 6.76162,18.14308 6.62208,18.56169 -0.0509,0.15273 -0.76516,-0.85503 -1.58722,-2.23947 -3.2154,-5.41504 -8.19147,-11.67523 -12.66188,-15.92942 -11.69978,-11.13385 -26.09723,-18.08707 -42.46921,-20.5104 -4.64847,-0.68805 -16.27084,-0.69122 -20.7233,-0.006 -17.54493,2.7015 -32.17048,10.13776 -44.26991,22.50875 l -3.51087,3.58969 -11.36159,-9.7351 -11.36159,-9.7351 0,-1.46867 c 0,-1.79862 -0.69811,-2.81383 -2.25589,-3.28055 -2.31541,-0.69372 -4.29084,0.81124 -4.29084,3.26892 0,2.507 2.56173,4.05677 4.8329,2.92376 l 0.90049,-0.44921 11.00952,9.4219 c 6.05525,5.18205 11.18865,9.58739 11.40756,9.78963 0.33653,0.31091 0.22263,0.57949 -0.73733,1.73853 -4.50545,5.43985 -9.19973,14.02326 -11.90919,21.77574 -3.25639,9.3174 -4.82862,20.45942 -4.16883,29.54366 0.16464,2.2668 0.27321,4.14759 0.24128,4.17952 -0.0319,0.0319 -0.49298,-1.18228 -1.02456,-2.69826 z M 126.943,135.85022 c 2.58128,-2.43505 2.86338,-2.79479 2.48682,-3.17135 -0.37656,-0.37656 -0.54817,-0.32576 -1.51283,0.44782 -2.20065,1.76476 -4.73068,4.55451 -4.55223,5.01955 0.0951,0.24783 0.28401,0.45059 0.4198,0.45059 0.13579,0 1.55709,-1.23597 3.15844,-2.74661 z m 24.32616,-0.28093 c 0.83189,-0.83188 0.9791,-1.5267 0.32346,-1.5267 -0.23483,0 -0.42696,0.17228 -0.42696,0.38284 0,0.52236 -1.03544,1.42233 -1.38668,1.20525 -0.17183,-0.10619 0.0649,-0.96545 0.59943,-2.1756 0.76072,-1.72229 0.82732,-2.05448 0.47953,-2.39174 -0.9001,-0.87287 -2.42161,-0.64271 -3.0974,0.46853 -0.74924,1.23202 -0.38716,1.65304 0.47462,0.55189 0.83377,-1.06537 1.64673,-1.21445 1.34763,-0.24714 -0.10891,0.35224 -0.43776,1.11567 -0.73078,1.6965 -0.29302,0.58084 -0.53276,1.29173 -0.53276,1.57976 0,1.35687 1.77485,1.63148 2.94991,0.45641 z m -6.76431,-3.02385 c 0.5324,-0.58094 0.968,-1.32014 0.968,-1.64266 0,-0.86645 -1.20583,-1.9182 -2.4588,-2.14464 -2.12367,-0.3838 -2.51014,-0.8476 -1.52617,-1.83157 0.39412,-0.39411 0.9488,-0.56928 1.80272,-0.56928 1.43109,0 1.79677,0.2298 1.13534,0.71346 -0.60015,0.43883 -0.29884,1.27903 0.45868,1.27903 0.31251,0 0.7053,-0.25618 0.87287,-0.56928 0.43415,-0.81122 -0.0674,-1.59201 -1.27968,-1.99209 -2.58428,-0.85289 -5.66413,1.26571 -4.75157,3.26856 0.29216,0.64122 1.74781,1.27958 2.92725,1.2837 0.6653,0.002 1.44163,0.97509 1.22621,1.53648 -0.41099,1.07101 -3.30108,1.74161 -4.3843,1.01731 -0.37238,-0.249 -0.36328,-0.32302 0.0712,-0.57907 0.64815,-0.382 0.63549,-1.02566 -0.0272,-1.3803 -0.37808,-0.20234 -0.69713,-0.16074 -1.13856,0.14845 -0.83369,0.58394 -0.77054,1.37061 0.16947,2.11132 0.67717,0.53358 1.06496,0.60263 2.87466,0.51182 1.9943,-0.10007 2.13705,-0.15425 3.05988,-1.16124 l 0,0 z m -11.23758,-2.80377 c 2.79001,-2.57239 3.23153,-3.24143 2.35985,-3.57592 -0.67475,-0.25893 -6.18793,5.28605 -5.76382,5.79707 0.16977,0.20456 0.37231,0.37192 0.45009,0.37192 0.0778,0 1.40703,-1.16688 2.95388,-2.59307 z m 18.02979,-0.92175 c 0.60617,-0.44325 0.36754,-1.03942 -0.41604,-1.03942 -0.63986,0 -0.96456,0.43969 -0.74576,1.00987 0.19733,0.51424 0.48881,0.52165 1.1618,0.0296 z m -11.38436,-5.46506 c 2.68971,-2.54998 2.8112,-2.71491 2.34406,-3.18204 -0.46713,-0.46714 -0.64189,-0.34345 -3.37176,2.38641 -2.6167,2.61671 -3.18514,3.5427 -2.14805,3.49921 0.18646,-0.008 1.61554,-1.22443 3.17575,-2.70358 z"
       style="fill:url(#linearGradient7967);fill-opacity:1;stroke:#e6e6e6;stroke-width:0.28350189;stroke-miterlimit:4;stroke-dasharray:2.26801517, 0.28350189999999997;stroke-dashoffset:0" /><path
       inkscape:connector-curvature="0"
       id="path7969"
       d="m 295.27178,320.05877 c -2.51008,-1.80236 -4.69741,-3.27702 -4.86073,-3.27702 -0.19468,0 -0.24018,0.7507 -0.13211,2.17963 0.15474,2.04604 0.13159,2.1705 -0.37775,2.03061 -20.26377,-5.56521 -134.38917,-37.37689 -134.53524,-37.50077 -0.1164,-0.0987 0.0539,-1.13458 0.37853,-2.30191 3.71243,-13.35102 5.6043,-30.62091 4.87856,-44.53385 -0.20768,-3.98136 -0.22703,-6.29664 -0.0531,-6.35696 0.42505,-0.14745 0.32201,-0.82185 -0.15344,-1.0043 -0.27506,-0.10555 -0.42734,-0.54677 -0.42802,-1.24018 -6e-4,-0.59198 -0.31697,-3.247 -0.70307,-5.90003 -0.3861,-2.65304 -0.66812,-4.85758 -0.62673,-4.89898 0.0414,-0.0414 0.44048,0.78435 0.88684,1.83498 0.44636,1.05064 1.43587,3.08355 2.19891,4.51759 0.86552,1.62663 1.26362,2.64858 1.0584,2.71699 -0.34844,0.11614 2.80043,4.67199 4.58286,6.63057 0.56988,0.62621 1.79008,2.09922 2.71155,3.27336 3.88345,4.94835 10.98951,11.42235 16.79082,15.29735 25.29076,16.89303 58.5792,17.06175 83.96893,0.42558 20.86391,-13.6707 33.4698,-35.86386 34.54157,-60.81181 l 0.18457,-4.29623 0.93386,5.33596 c 1.63436,9.33853 2.74666,18.24055 3.67228,29.39017 0.63276,7.62192 0.7233,33.39886 0.14447,41.13055 -1.20403,16.08279 -3.31513,30.67777 -6.4846,44.83087 -1.14377,5.10742 -3.75772,15.5397 -3.94138,15.73003 -0.0397,0.0412 -2.12588,-1.39985 -4.63595,-3.2022 z"
       style="fill:url(#linearGradient7977);fill-opacity:1;stroke:#e6e6e6;stroke-width:0.28350189;stroke-miterlimit:4;stroke-dasharray:2.26801517, 0.28350189999999997;stroke-dashoffset:0" /><path
       inkscape:connector-curvature="0"
       id="path8073"
       d="m 217.63217,261.74324 c -16.76364,-3.02078 -30.23365,-10.01166 -41.36293,-21.4672 l -4.07503,-4.19449 26.06394,-21.34803 c 17.58896,-14.40649 26.41088,-21.28502 27.13091,-21.15423 4.80404,0.87262 5.27499,0.80927 7.0298,-0.94553 1.40536,-1.40537 1.72245,-2.1928 1.72245,-4.27741 0,-2.17201 -0.27128,-2.78322 -1.80999,-4.07795 -1.78593,-1.50276 -3.19742,-1.64968 -7.38834,-0.76901 -0.58716,0.12339 -10.22949,-7.76054 -25.51875,-20.86507 -13.51625,-11.58487 -25.13185,-21.49959 -25.81244,-22.03272 l -1.23745,-0.96932 3.13104,-3.21139 c 9.48452,-9.72789 22.15085,-17.10802 35.18695,-20.50194 33.42956,-8.7033 69.03781,7.36275 84.7697,38.24717 5.47371,10.74584 7.50877,18.67166 7.96152,31.00715 0.25562,6.96436 0.11336,10.14658 -0.66041,14.77412 -2.65963,15.9057 -9.42194,29.05076 -20.78588,40.40502 -10.9819,10.97256 -22.82287,17.49223 -37.73221,20.77545 -5.70047,1.25531 -21.06635,1.60485 -26.61288,0.60538 z m -11.41163,-34.16957 c 1.13173,-1.36364 0.50379,-3.4203 -1.11255,-3.64389 -3.41097,-0.47183 -3.30341,-3.27704 0.13841,-3.60976 2.56694,-0.24815 2.98553,-2.17082 0.47261,-2.17082 -1.14382,0 -1.74958,-0.28402 -1.74958,-0.82032 0,-1.00671 0.80212,-1.53179 3.03879,-1.98924 3.11961,-0.63802 2.48603,-1.74468 -0.99887,-1.74468 -1.74817,0 -3.19809,0.19213 -3.22204,0.42696 -0.024,0.23483 -0.16166,0.93931 -0.30602,1.56552 -0.14435,0.62621 -0.28418,1.779 -0.31073,2.56176 -0.0265,0.78276 -0.4012,1.92852 -0.83255,2.54612 -1.58388,2.26779 -0.31174,4.85453 2.38744,4.85453 0.76039,0 1.38254,0.25618 1.38254,0.56929 0,0.3131 -0.25618,0.56928 -0.56928,0.56928 -0.31311,0 -0.56928,0.38426 -0.56928,0.85392 0,1.08727 1.35906,1.10619 2.25111,0.0313 l 0,2e-5 z m 42.15279,-25.36433 0,-3.98497 -2.21621,0 c -2.39955,0 -2.90731,0.60119 -2.90731,3.44222 0,1.79444 1.57407,3.05393 3.0898,2.47229 0.63948,-0.2454 0.89516,-0.001 0.89516,0.85596 0,0.65971 0.25618,1.19946 0.56928,1.19946 0.32531,0 0.56928,-1.70784 0.56928,-3.98496 z m -6.94522,-1.8217 c 0.37572,-0.37573 0.68314,-1.29295 0.68314,-2.03828 0,-1.05402 -0.50966,-1.55534 -2.29363,-2.2561 -2.64729,-1.03989 -2.68465,-2.20577 -0.0639,-1.99401 1.21947,0.0985 1.78822,-0.10817 1.78822,-0.64989 0,-1.79412 -5.13335,-1.51239 -5.82102,0.31948 -0.5325,1.4185 0.50068,2.96032 2.41583,3.60514 3.08244,1.03785 2.94305,2.21327 -0.2202,1.85673 -1.84762,-0.20826 -2.6367,-0.091 -2.6367,0.39191 0,0.37901 0.17079,0.8599 0.37953,1.06863 0.64807,0.64808 5.04862,0.41647 5.76871,-0.30361 z m -21.12892,-30.66523 c 3.64478,-1.38097 6.44147,-5.68003 6.44147,-9.90182 0,-3.41735 -0.92275,-3.32281 -1.25438,0.12851 -0.33297,3.46526 -2.80083,7.25637 -5.67964,8.72503 -3.12697,1.59527 -2.79815,2.29509 0.49255,1.04828 z m -3.00597,-3.73123 c 2.1345,-2.42308 2.17974,-2.55595 1.13857,-3.34396 -1.44701,-1.09515 -3.04328,-1.06357 -4.3128,0.0853 -1.28611,1.16391 -1.30634,1.80612 -0.0989,3.14031 0.87669,0.96872 0.87669,1.04106 0,1.04106 -1.10371,0 -1.26215,0.91456 -0.23055,1.33082 1.10718,0.44676 1.14825,0.42035 3.5037,-2.25356 z m -3.17946,-6.33559 c 0.10005,-0.70448 0.53324,-1.28088 0.96264,-1.28088 1.31717,0 1.58154,-1.15196 0.53082,-2.313 -2.07217,-2.28972 -4.98041,-0.62502 -3.7243,2.13182 0.84747,1.86001 0.002,3.02489 -1.36958,1.88668 -0.6581,-0.54617 -0.72244,-0.8639 -0.23584,-1.16464 0.9179,-0.56729 0.11861,-1.70685 -0.91814,-1.30901 -2.21229,0.84893 0.11244,3.76385 2.79372,3.50298 1.34577,-0.13094 1.82304,-0.48487 1.96068,-1.45395 z m -10.23861,-1.62049 c 0.81317,-0.56956 1.23239,-1.36657 1.12291,-2.1348 -0.22668,-1.59059 -1.30995,-1.31143 -1.32424,0.34126 -0.006,0.7437 -0.41831,1.34631 -0.99624,1.45761 -0.5419,0.10436 -0.98528,0.42714 -0.98528,0.71728 0,0.77209 0.71423,0.64731 2.18285,-0.38135 z m -3.90718,-2.48456 c 0.46059,-0.29128 0.65217,-0.71488 0.42572,-0.94132 -0.22644,-0.22645 -0.002,-0.86468 0.49922,-1.41829 0.50101,-0.55361 0.74262,-1.27888 0.53692,-1.61172 -0.47302,-0.76536 -2.40281,-0.78949 -2.86857,-0.0359 -0.19351,0.3131 0.0759,0.56928 0.59875,0.56928 0.76286,0 0.69454,0.20734 -0.34598,1.04989 -0.82952,0.6717 -1.16627,1.38943 -0.93485,1.99249 0.40968,1.06761 0.88406,1.15744 2.08879,0.39554 z M 191.19943,143.79 c 0.99771,-1.61375 2.6489,-3.29691 3.96628,-4.04306 2.03635,-1.15336 2.11662,-1.27925 0.82117,-1.2877 -0.7897,-0.005 -2.42389,0.80509 -3.63153,1.80053 -3.36413,2.773 -5.12122,7.50816 -3.90568,10.52541 0.30121,0.74768 0.50788,0.29663 0.73028,-1.59383 0.17419,-1.48063 1.0596,-3.84878 2.01948,-5.40135 z m 7.3545,5.61854 c 0.30907,-0.70449 0.88547,-1.28089 1.28088,-1.28089 1.2934,0 0.77515,-2.27591 -0.66797,-2.93344 -2.62947,-1.19807 -4.71732,0.90621 -2.89598,2.91878 1.02455,1.13211 0.76147,2.29179 -0.5199,2.29179 -1.15867,0 -2.25837,-1.53049 -1.34075,-1.86596 0.53502,-0.1956 0.56594,-0.4499 0.11349,-0.93341 -0.47219,-0.50461 -0.77659,-0.47815 -1.26467,0.10995 -0.48581,0.58536 -0.42485,1.0857 0.2496,2.0486 1.19554,1.70687 4.23444,1.49279 5.0453,-0.35542 z m 4.84621,0.99624 c 0,-0.31311 -0.38426,-0.56928 -0.85392,-0.56928 -0.46965,0 -0.85392,0.25617 -0.85392,0.56928 0,0.3131 0.38427,0.56928 0.85392,0.56928 0.46966,0 0.85392,-0.25618 0.85392,-0.56928 z m -15.50923,-6.68944 c 0.15568,-0.47413 -0.11492,-0.58997 -0.81002,-0.34675 -0.5741,0.20088 0.46005,-1.18247 2.2981,-3.07411 3.15337,-3.24532 3.68173,-4.69101 1.71442,-4.69101 -0.46966,0 -0.71675,0.22194 -0.54911,0.4932 0.16765,0.27126 -0.20755,0.95689 -0.83377,1.52361 -0.87287,0.78993 -1.29488,0.87412 -1.80828,0.36072 -1.47315,-1.47315 -5.05326,-0.25426 -6.11819,2.083 -0.59343,1.30246 -0.52269,1.61453 0.56581,2.49594 0.68422,0.55405 1.47353,0.86553 1.75402,0.69218 0.28049,-0.17335 0.50999,0.10121 0.50999,0.61014 0,1.11447 2.90561,0.9842 3.27703,-0.14692 z"
       style="fill:url(#linearGradient8081);fill-opacity:1;stroke:none;stroke-width:0.65799999;stroke-miterlimit:4;stroke-dasharray:none;stroke-dashoffset:0;stroke-opacity:1" /><path
       inkscape:connector-curvature="0"
       id="path8083"
       d="m 214.58651,165.50604 c -0.24908,-0.1025 -0.45286,-0.33923 -0.45286,-0.52607 0,-1.02573 2.3717,-2.74397 3.18599,-2.30817 0.7502,0.4015 0.67927,0.81109 -0.31829,1.83792 -1.00453,1.03401 -1.66305,1.3057 -2.41484,0.99632 z"
       style="fill:url(#linearGradient8091);fill-opacity:1;stroke:none;stroke-width:0.65799999;stroke-miterlimit:4;stroke-dasharray:none;stroke-dashoffset:0;stroke-opacity:1" /><path
       inkscape:connector-curvature="0"
       id="path8093"
       d="m 182.77559,142.32154 c -0.45688,-0.45688 -0.25039,-1.16669 0.61388,-2.11019 1.5728,-1.71698 3.43003,-2.54082 4.13612,-1.83473 0.13284,0.13284 0.24153,0.53005 0.24153,0.88269 0,0.54663 -0.22418,0.83746 -1.5204,1.97246 -1.36261,1.19314 -1.60908,1.33129 -2.375,1.33129 -0.47003,0 -0.96329,-0.10868 -1.09613,-0.24152 z"
       style="fill:#e6e6e6;fill-opacity:1;stroke:none;stroke-width:0.65799999;stroke-miterlimit:4;stroke-dasharray:none;stroke-dashoffset:0;stroke-opacity:1" /><path
       inkscape:connector-curvature="0"
       id="path8107"
       d="m 214.90896,164.70497 c -0.0657,-0.96191 -0.0251,-1.07246 0.55576,-1.51546 0.94678,-0.722 1.5729,-0.81569 2.07771,-0.31089 0.3148,0.31481 0.37548,0.51448 0.23464,0.77221 -0.34769,0.63629 -1.72404,1.82819 -2.2643,1.96086 -0.51847,0.12733 -0.53487,0.10272 -0.60381,-0.90672 z"
       style="fill:url(#linearGradient8115);fill-opacity:1;stroke:none;stroke-width:0.65799999;stroke-miterlimit:4;stroke-dasharray:none;stroke-dashoffset:0;stroke-opacity:1" /></g></svg>