<?xml version="1.0" encoding="UTF-8" standalone="no"?>
<!-- Created with Inkscape (http://www.inkscape.org/) -->

<svg
   xmlns:dc="http://purl.org/dc/elements/1.1/"
   xmlns:cc="http://creativecommons.org/ns#"
   xmlns:rdf="http://www.w3.org/1999/02/22-rdf-syntax-ns#"
   xmlns:svg="http://www.w3.org/2000/svg"
   xmlns="http://www.w3.org/2000/svg"
   xmlns:sodipodi="http://sodipodi.sourceforge.net/DTD/sodipodi-0.dtd"
   xmlns:inkscape="http://www.inkscape.org/namespaces/inkscape"
   width="210mm"
   height="297mm"
   viewBox="0 0 744.09448819 1052.3622047"
   id="svg2"
   version="1.1"
   inkscape:version="0.92.2 (unknown)"
   sodipodi:docname="mink.svg">
  <sodipodi:namedview
     id="base"
     pagecolor="#ffffff"
     bordercolor="#666666"
     borderopacity="1.0"
     inkscape:pageopacity="0.0"
     inkscape:pageshadow="2"
     inkscape:zoom="1.6497063"
     inkscape:cx="404.80929"
     inkscape:cy="535.39226"
     inkscape:document-units="px"
     inkscape:current-layer="layer1"
     showgrid="false"
     inkscape:window-width="1920"
     inkscape:window-height="1027"
     inkscape:window-x="0"
     inkscape:window-y="0"
     inkscape:window-maximized="1" />
  <defs
     id="defs4" />
  <metadata
     id="metadata7">
    <rdf:RDF>
      <cc:Work
         rdf:about="">
        <dc:format>image/svg+xml</dc:format>
        <dc:type
           rdf:resource="http://purl.org/dc/dcmitype/StillImage" />
        <dc:title />
      </cc:Work>
    </rdf:RDF>
  </metadata>
  <g
     inkscape:label="Layer 1"
     inkscape:groupmode="layer"
     id="layer1">
    <path
       style="fill:none;fill-rule:evenodd;stroke:#000000;stroke-width:1px;stroke-linecap:butt;stroke-linejoin:miter;stroke-opacity:1"
       d="m 140.14378,489.50506 h 100"
       id="path3342"
       inkscape:connector-curvature="0" />
    <path
       style="fill:none;fill-rule:evenodd;stroke:#000000;stroke-width:1px;stroke-linecap:butt;stroke-linejoin:miter;stroke-opacity:1"
       d="m 190.00092,437.21935 v 100"
       id="path3342-3"
       inkscape:connector-curvature="0" />
    <path
       style="fill:none;fill-rule:evenodd;stroke:#0000ff;stroke-width:1px;stroke-linecap:butt;stroke-linejoin:miter;stroke-opacity:1"
       d="m 154.232,489.53475 35.57451,-35.57451 35.53663,35.53663 -35.30932,35.30931 z"
       id="path3363"
       inkscape:connector-curvature="0" />
    <path
       style="fill:none;fill-rule:evenodd;stroke:#000000;stroke-width:1px;stroke-linecap:butt;stroke-linejoin:miter;stroke-opacity:1"
       d="m 270.44352,489.26552 100,0"
       id="path3342-6"
       inkscape:connector-curvature="0" />
    <path
       style="fill:none;fill-rule:evenodd;stroke:#000000;stroke-width:1px;stroke-linecap:butt;stroke-linejoin:miter;stroke-opacity:1"
       d="m 320.30066,436.97981 0,100"
       id="path3342-3-7"
       inkscape:connector-curvature="0" />
    <circle
       style="fill:none;stroke:#0000ff"
       id="path3387"
       cx="320.36005"
       cy="489.38321"
       r="35.460857" />
    <path
       style="fill:none;fill-rule:evenodd;stroke:#000000;stroke-width:1px;stroke-linecap:butt;stroke-linejoin:miter;stroke-opacity:1"
       d="m 398.17757,489.07609 h 100"
       id="path3342-6-5"
       inkscape:connector-curvature="0" />
    <path
       style="fill:none;fill-rule:evenodd;stroke:#000000;stroke-width:1px;stroke-linecap:butt;stroke-linejoin:miter;stroke-opacity:1"
       d="m 448.03471,436.79038 v 100"
       id="path3342-3-7-3"
       inkscape:connector-curvature="0" />
    <rect
       style="fill:none;stroke:#0000ff"
       id="rect3407"
       width="50.0089"
       height="50.0089"
       x="423.1814"
       y="464.2272" />
    <g
       id="g135"
       transform="translate(-153.31154,212.77256)">
      <g
         word-spacing="normal"
         letter-spacing="normal"
         font-size-adjust="none"
         font-stretch="normal"
         font-weight="normal"
         font-variant="normal"
         font-style="normal"
         stroke-miterlimit="10.433"
         xml:space="preserve"
         transform="matrix(1.1338583,0,0,-1.1338583,-198.4252,841.88976)"
         id="g133"
         style="font-style:normal;font-variant:normal;font-weight:normal;font-stretch:normal;letter-spacing:normal;word-spacing:normal;text-anchor:start;fill:none;fill-opacity:1;fill-rule:evenodd;stroke:#000000;stroke-linecap:butt;stroke-linejoin:miter;stroke-miterlimit:10.43299961;stroke-dasharray:none;stroke-dashoffset:0;stroke-opacity:1"><path
           id="path129"
           d="m 474.63,436.14 0.04,0.16 0.04,0.16 0.04,0.15 0.04,0.14 0.05,0.14 0.04,0.13 0.05,0.12 0.06,0.12 0.05,0.11 0.07,0.1 0.07,0.1 0.08,0.1 0.09,0.08 0.1,0.08 0.11,0.08 0.12,0.07 0.14,0.06 0.14,0.06 0.16,0.06 0.18,0.05 0.09,0.02 0.1,0.02 0.1,0.03 0.11,0.02 0.11,0.01 0.12,0.02 0.12,0.02 0.12,0.01 0.13,0.02 0.14,0.01 0.14,0.01 0.14,0.01 0.15,0.01 0.16,0.01 0.16,0.01 0.17,0.01 0.17,0.01 h 0.18 l 0.18,0.01 h 0.19 0.2 l 0.2,0.01 h 0.21 0.22 c 1.5,0 1.89,0 1.89,0.95 0,0.59 -0.55,0.59 -0.79,0.59 h -14 c -0.35,0 -0.95,0 -0.95,-0.99 0,-0.55 0.45,-0.55 1.4,-0.55 0.1,0 1.04,0 1.89,-0.1 0.9,-0.1 1.35,-0.15 1.35,-0.8 0,-0.2 -0.06,-0.35 -0.2,-0.94 l -6.68,-26.75 c -0.5,-1.95 -0.6,-2.35 -4.53,-2.35 -0.85,0 -1.35,0 -1.35,-0.99 0,-0.55 0.45,-0.55 1.35,-0.55 h 23.06 c 1.2,0 1.25,0 1.54,0.85 l 3.94,10.76 c 0.2,0.55 0.2,0.64 0.2,0.69 0,0.2 -0.15,0.55 -0.6,0.55 -0.45,0 -0.5,-0.25 -0.84,-1.05 -1.7,-4.58 -3.89,-10.26 -12.51,-10.26 h -4.68 c -0.7,0 -0.8,0 -1.1,0.05 -0.5,0.05 -0.64,0.11 -0.64,0.5 0,0.15 0,0.25 0.25,1.15 z"
           inkscape:connector-curvature="0"
           style="fill:#000000;stroke-width:0" /><path
           id="path131"
           d="m 500.68,446.18 v 0.04 0.04 0.04 0.04 0.04 0.04 0.03 0.04 l -0.01,0.03 v 0.03 0.04 0.03 l -0.01,0.02 v 0.03 0.03 l -0.01,0.03 v 0.02 0.02 l -0.02,0.05 -0.01,0.04 -0.01,0.04 -0.02,0.03 -0.02,0.03 -0.02,0.03 -0.03,0.03 -0.02,0.02 -0.03,0.02 -0.04,0.02 -0.03,0.01 -0.04,0.01 -0.05,0.02 h -0.05 l -0.02,0.01 h -0.03 l -0.03,0.01 h -0.02 -0.03 -0.03 -0.04 l -0.03,0.01 h -0.03 -0.04 -0.03 -0.04 -0.04 -0.04 -0.04 -0.04 -0.05 -0.04 c -2.24,-2.19 -5.41,-2.23 -6.84,-2.23 v -1.25 c 0.84,0 3.14,0 5.06,0.97 v -17.78 c 0,-1.15 0,-1.61 -3.49,-1.61 h -1.33 V 424 h 12.45 v 1.25 h -1.32 c -3.49,0 -3.49,0.46 -3.49,1.61 z"
           inkscape:connector-curvature="0"
           style="fill:#000000;stroke-width:0" /></g>    </g>
    <g
       id="g180"
       transform="translate(-25.516634,212.77256)">
      <g
         id="content"
         transform="matrix(1.1338583,0,0,-1.1338583,-198.4252,841.88976)"
         xml:space="preserve"
         stroke-miterlimit="10.433"
         font-style="normal"
         font-variant="normal"
         font-weight="normal"
         font-stretch="normal"
         font-size-adjust="none"
         letter-spacing="normal"
         word-spacing="normal"
         style="font-style:normal;font-variant:normal;font-weight:normal;font-stretch:normal;letter-spacing:normal;word-spacing:normal;text-anchor:start;fill:none;fill-opacity:1;fill-rule:evenodd;stroke:#000000;stroke-linecap:butt;stroke-linejoin:miter;stroke-miterlimit:10.43299961;stroke-dasharray:none;stroke-dashoffset:0;stroke-opacity:1"><path
           d="m 474.63,436.14 0.04,0.16 0.04,0.16 0.04,0.15 0.04,0.14 0.05,0.14 0.04,0.13 0.05,0.12 0.06,0.12 0.05,0.11 0.07,0.1 0.07,0.1 0.08,0.1 0.09,0.08 0.1,0.08 0.11,0.08 0.12,0.07 0.14,0.06 0.14,0.06 0.16,0.06 0.18,0.05 0.09,0.02 0.1,0.02 0.1,0.03 0.11,0.02 0.11,0.01 0.12,0.02 0.12,0.02 0.12,0.01 0.13,0.02 0.14,0.01 0.14,0.01 0.14,0.01 0.15,0.01 0.16,0.01 0.16,0.01 0.17,0.01 0.17,0.01 h 0.18 l 0.18,0.01 h 0.19 0.2 l 0.2,0.01 h 0.21 0.22 c 1.5,0 1.89,0 1.89,0.95 0,0.59 -0.55,0.59 -0.79,0.59 h -14 c -0.35,0 -0.95,0 -0.95,-0.99 0,-0.55 0.45,-0.55 1.4,-0.55 0.1,0 1.04,0 1.89,-0.1 0.9,-0.1 1.35,-0.15 1.35,-0.8 0,-0.2 -0.06,-0.35 -0.2,-0.94 l -6.68,-26.75 c -0.5,-1.95 -0.6,-2.35 -4.53,-2.35 -0.85,0 -1.35,0 -1.35,-0.99 0,-0.55 0.45,-0.55 1.35,-0.55 h 23.06 c 1.2,0 1.25,0 1.54,0.85 l 3.94,10.76 c 0.2,0.55 0.2,0.64 0.2,0.69 0,0.2 -0.15,0.55 -0.6,0.55 -0.45,0 -0.5,-0.25 -0.84,-1.05 -1.7,-4.58 -3.89,-10.26 -12.51,-10.26 h -4.68 c -0.7,0 -0.8,0 -1.1,0.05 -0.5,0.05 -0.64,0.11 -0.64,0.5 0,0.15 0,0.25 0.25,1.15 z"
           id="path175"
           inkscape:connector-curvature="0"
           style="fill:#000000;stroke-width:0" /><path
           d="m 506.61,430.35 h -1.19 c -0.1,-0.77 -0.45,-2.83 -0.9,-3.18 -0.28,-0.21 -2.97,-0.21 -3.45,-0.21 h -6.42 c 3.66,3.25 4.88,4.22 6.97,5.86 2.58,2.06 4.99,4.22 4.99,7.54 0,4.21 -3.7,6.79 -8.16,6.79 -4.33,0 -7.25,-3.03 -7.25,-6.24 0,-1.78 1.5,-1.95 1.84,-1.95 0.84,0 1.85,0.59 1.85,1.85 0,0.62 -0.24,1.85 -2.05,1.85 1.08,2.47 3.45,3.24 5.09,3.24 3.48,0 5.3,-2.72 5.3,-5.54 0,-3.04 -2.16,-5.45 -3.28,-6.7 l -8.4,-8.3 c -0.35,-0.31 -0.35,-0.38 -0.35,-1.36 h 14.36 z"
           id="path177"
           inkscape:connector-curvature="0"
           style="fill:#000000;stroke-width:0" /></g>    </g>
    <g
       id="g353"
       transform="translate(99.637775,212.97347)">
      <g
         word-spacing="normal"
         letter-spacing="normal"
         font-size-adjust="none"
         font-stretch="normal"
         font-weight="normal"
         font-variant="normal"
         font-style="normal"
         stroke-miterlimit="10.433"
         xml:space="preserve"
         transform="matrix(1.1338583,0,0,-1.1338583,-198.4252,841.88976)"
         id="g351"
         style="font-style:normal;font-variant:normal;font-weight:normal;font-stretch:normal;letter-spacing:normal;word-spacing:normal;text-anchor:start;fill:none;fill-opacity:1;fill-rule:evenodd;stroke:#000000;stroke-linecap:butt;stroke-linejoin:miter;stroke-miterlimit:10.43299961;stroke-dasharray:none;stroke-dashoffset:0;stroke-opacity:1"><path
           id="path347"
           d="m 474.63,436.14 0.04,0.16 0.04,0.16 0.04,0.15 0.04,0.14 0.05,0.14 0.04,0.13 0.05,0.12 0.06,0.12 0.05,0.11 0.07,0.1 0.07,0.1 0.08,0.1 0.09,0.08 0.1,0.08 0.11,0.08 0.12,0.07 0.14,0.06 0.14,0.06 0.16,0.06 0.18,0.05 0.09,0.02 0.1,0.02 0.1,0.03 0.11,0.02 0.11,0.01 0.12,0.02 0.12,0.02 0.12,0.01 0.13,0.02 0.14,0.01 0.14,0.01 0.14,0.01 0.15,0.01 0.16,0.01 0.16,0.01 0.17,0.01 0.17,0.01 h 0.18 l 0.18,0.01 h 0.19 0.2 l 0.2,0.01 h 0.21 0.22 c 1.5,0 1.89,0 1.89,0.95 0,0.59 -0.55,0.59 -0.79,0.59 h -14 c -0.35,0 -0.95,0 -0.95,-0.99 0,-0.55 0.45,-0.55 1.4,-0.55 0.1,0 1.04,0 1.89,-0.1 0.9,-0.1 1.35,-0.15 1.35,-0.8 0,-0.2 -0.06,-0.35 -0.2,-0.94 l -6.68,-26.75 c -0.5,-1.95 -0.6,-2.35 -4.53,-2.35 -0.85,0 -1.35,0 -1.35,-0.99 0,-0.55 0.45,-0.55 1.35,-0.55 h 23.06 c 1.2,0 1.25,0 1.54,0.85 l 3.94,10.76 c 0.2,0.55 0.2,0.64 0.2,0.69 0,0.2 -0.15,0.55 -0.6,0.55 -0.45,0 -0.5,-0.25 -0.84,-1.05 -1.7,-4.58 -3.89,-10.26 -12.51,-10.26 h -4.68 c -0.7,0 -0.8,0 -1.1,0.05 -0.5,0.05 -0.64,0.11 -0.64,0.5 0,0.15 0,0.25 0.25,1.15 z"
           inkscape:connector-curvature="0"
           style="fill:#000000;stroke-width:0" /><path
           id="path349"
           d="m 509.16,433.55 -0.17,0.2 -0.17,0.19 -0.15,0.18 -0.15,0.18 -0.14,0.16 -0.14,0.16 -0.13,0.15 -0.13,0.14 -0.12,0.14 -0.12,0.13 -0.12,0.13 -0.11,0.12 -0.11,0.11 -0.1,0.11 -0.11,0.11 -0.1,0.1 -0.2,0.19 -0.19,0.19 -0.2,0.17 -0.19,0.17 -0.21,0.16 -0.21,0.17 -0.11,0.08 -0.12,0.09 -0.12,0.08 -0.12,0.09 c -2.12,1.54 -4.35,2.13 -6.27,2.13 -4.33,0 -7.47,-3.7 -7.47,-7.88 h 0.98 c 0,3.34 2.72,5.96 5.93,5.96 3.24,0 5.47,-2.65 8.82,-6.69 v 0 c -1.39,-2.27 -4.43,-5.79 -8.68,-5.79 -3.59,0 -6.07,3.17 -6.07,6.52 h -0.98 c 0,-4.08 3,-7.85 7.36,-7.85 4.85,0 8.23,3.97 9.49,5.82 1.85,-2.16 2.4,-2.75 3.73,-3.69 2.13,-1.54 4.36,-2.13 6.27,-2.13 4.33,0 7.47,3.7 7.47,7.88 h -0.98 c 0,-3.35 -2.72,-5.96 -5.93,-5.96 -3.24,0 -5.47,2.65 -8.82,6.7 v 0 c 1.39,2.26 4.43,5.78 8.68,5.78 3.59,0 6.07,-3.17 6.07,-6.52 H 526 c 0,4.08 -3,7.85 -7.36,7.85 -4.85,0 -8.23,-3.98 -9.48,-5.83 z"
           inkscape:connector-curvature="0"
           style="fill:#000000;stroke-width:0" /></g>    </g>
  </g>
</svg>
