<?xml version="1.0" encoding="UTF-8" standalone="no"?>
<!-- Created with Inkscape (http://www.inkscape.org/) -->

<svg
   xmlns:dc="http://purl.org/dc/elements/1.1/"
   xmlns:cc="http://creativecommons.org/ns#"
   xmlns:rdf="http://www.w3.org/1999/02/22-rdf-syntax-ns#"
   xmlns:svg="http://www.w3.org/2000/svg"
   xmlns="http://www.w3.org/2000/svg"
   xmlns:xlink="http://www.w3.org/1999/xlink"
   xmlns:sodipodi="http://sodipodi.sourceforge.net/DTD/sodipodi-0.dtd"
   xmlns:inkscape="http://www.inkscape.org/namespaces/inkscape"
   sodipodi:docname="rg_omni_2.svg"
   inkscape:version="0.91 r13725"
   version="1.1"
   id="svg2"
   viewBox="0 0 744.09448819 1052.3622047"
   height="297mm"
   width="210mm">
  <sodipodi:namedview
     inkscape:snap-nodes="true"
     inkscape:window-maximized="1"
     inkscape:window-y="0"
     inkscape:window-x="0"
     inkscape:window-height="1029"
     inkscape:window-width="1920"
     showguides="false"
     showgrid="false"
     inkscape:current-layer="layer1"
     inkscape:document-units="px"
     inkscape:cy="649.06373"
     inkscape:cx="212.75498"
     inkscape:zoom="1.4"
     inkscape:pageshadow="2"
     inkscape:pageopacity="0.0"
     borderopacity="1.0"
     bordercolor="#666666"
     pagecolor="#ffffff"
     id="base" />
  <defs
     id="defs4">
    <marker
       inkscape:stockid="Arrow2Lstart"
       orient="auto"
       refY="0.0"
       refX="0.0"
       id="marker6415"
       style="overflow:visible"
       inkscape:isstock="true">
      <path
         id="path6417"
         style="fill-rule:evenodd;stroke-width:0.625;stroke-linejoin:round;stroke:#000000;stroke-opacity:1;fill:#000000;fill-opacity:1"
         d="M 8.7185878,4.0337352 L -2.2072895,0.016013256 L 8.7185884,-4.0017078 C 6.9730900,-1.6296469 6.9831476,1.6157441 8.7185878,4.0337352 z "
         transform="scale(1.1) translate(1,0)" />
    </marker>
    <marker
       inkscape:stockid="Arrow2Lstart"
       orient="auto"
       refY="0.0"
       refX="0.0"
       id="marker6379"
       style="overflow:visible"
       inkscape:isstock="true">
      <path
         id="path6381"
         style="fill-rule:evenodd;stroke-width:0.625;stroke-linejoin:round;stroke:#000000;stroke-opacity:1;fill:#000000;fill-opacity:1"
         d="M 8.7185878,4.0337352 L -2.2072895,0.016013256 L 8.7185884,-4.0017078 C 6.9730900,-1.6296469 6.9831476,1.6157441 8.7185878,4.0337352 z "
         transform="scale(1.1) translate(1,0)" />
    </marker>
    <marker
       inkscape:stockid="Tail"
       orient="auto"
       refY="0.0"
       refX="0.0"
       id="Tail"
       style="overflow:visible"
       inkscape:isstock="true">
      <g
         id="g5849"
         transform="scale(-1.2)"
         style="stroke:#000000;stroke-opacity:1;fill:#000000;fill-opacity:1">
        <path
           id="path5851"
           d="M -3.8048674,-3.9585227 L 0.54352094,0"
           style="fill:#000000;fill-rule:evenodd;stroke:#000000;stroke-width:0.8;stroke-linecap:round;stroke-opacity:1;fill-opacity:1" />
        <path
           id="path5853"
           d="M -1.2866832,-3.9585227 L 3.0617053,0"
           style="fill:#000000;fill-rule:evenodd;stroke:#000000;stroke-width:0.8;stroke-linecap:round;stroke-opacity:1;fill-opacity:1" />
        <path
           id="path5855"
           d="M 1.3053582,-3.9585227 L 5.6537466,0"
           style="fill:#000000;fill-rule:evenodd;stroke:#000000;stroke-width:0.8;stroke-linecap:round;stroke-opacity:1;fill-opacity:1" />
        <path
           id="path5857"
           d="M -3.8048674,4.1775838 L 0.54352094,0.21974226"
           style="fill:#000000;fill-rule:evenodd;stroke:#000000;stroke-width:0.8;stroke-linecap:round;stroke-opacity:1;fill-opacity:1" />
        <path
           id="path5859"
           d="M -1.2866832,4.1775838 L 3.0617053,0.21974226"
           style="fill:#000000;fill-rule:evenodd;stroke:#000000;stroke-width:0.8;stroke-linecap:round;stroke-opacity:1;fill-opacity:1" />
        <path
           id="path5861"
           d="M 1.3053582,4.1775838 L 5.6537466,0.21974226"
           style="fill:#000000;fill-rule:evenodd;stroke:#000000;stroke-width:0.8;stroke-linecap:round;stroke-opacity:1;fill-opacity:1" />
      </g>
    </marker>
    <marker
       inkscape:stockid="Arrow2Lstart"
       orient="auto"
       refY="0.0"
       refX="0.0"
       id="Arrow2Lstart"
       style="overflow:visible"
       inkscape:isstock="true">
      <path
         id="path5831"
         style="fill-rule:evenodd;stroke-width:0.625;stroke-linejoin:round;stroke:#000000;stroke-opacity:1;fill:#000000;fill-opacity:1"
         d="M 8.7185878,4.0337352 L -2.2072895,0.016013256 L 8.7185884,-4.0017078 C 6.9730900,-1.6296469 6.9831476,1.6157441 8.7185878,4.0337352 z "
         transform="scale(1.1) translate(1,0)" />
    </marker>
    <marker
       inkscape:stockid="Arrow2Lend"
       orient="auto"
       refY="0.0"
       refX="0.0"
       id="marker6249"
       style="overflow:visible;"
       inkscape:isstock="true">
      <path
         id="path6251"
         style="fill-rule:evenodd;stroke-width:0.625;stroke-linejoin:round;stroke:#000000;stroke-opacity:1;fill:#000000;fill-opacity:1"
         d="M 8.7185878,4.0337352 L -2.2072895,0.016013256 L 8.7185884,-4.0017078 C 6.9730900,-1.6296469 6.9831476,1.6157441 8.7185878,4.0337352 z "
         transform="scale(1.1) rotate(180) translate(1,0)" />
    </marker>
    <marker
       inkscape:stockid="Arrow2Lend"
       orient="auto"
       refY="0.0"
       refX="0.0"
       id="marker6111"
       style="overflow:visible;"
       inkscape:isstock="true">
      <path
         id="path6113"
         style="fill-rule:evenodd;stroke-width:0.625;stroke-linejoin:round;stroke:#000000;stroke-opacity:1;fill:#000000;fill-opacity:1"
         d="M 8.7185878,4.0337352 L -2.2072895,0.016013256 L 8.7185884,-4.0017078 C 6.9730900,-1.6296469 6.9831476,1.6157441 8.7185878,4.0337352 z "
         transform="scale(1.1) rotate(180) translate(1,0)" />
    </marker>
    <inkscape:perspective
       sodipodi:type="inkscape:persp3d"
       inkscape:vp_x="0 : 526.1811 : 1"
       inkscape:vp_y="0 : 1000 : 0"
       inkscape:vp_z="744.09449 : 526.1811 : 1"
       inkscape:persp3d-origin="372.04724 : 350.7874 : 1"
       id="perspective5807" />
    <linearGradient
       id="linearGradient15364"
       inkscape:collect="always">
      <stop
         id="stop15366"
         offset="0"
         style="stop-color:#b3b3b3;stop-opacity:1;" />
      <stop
         id="stop15368"
         offset="1"
         style="stop-color:#b3b3b3;stop-opacity:0;" />
    </linearGradient>
    <marker
       inkscape:isstock="true"
       style="overflow:visible;"
       id="marker9920"
       refX="0.0"
       refY="0.0"
       orient="auto"
       inkscape:stockid="Arrow2Lend"
       inkscape:collect="always">
      <path
         transform="scale(1.1) rotate(180) translate(1,0)"
         d="M 8.7185878,4.0337352 L -2.2072895,0.016013256 L 8.7185884,-4.0017078 C 6.9730900,-1.6296469 6.9831476,1.6157441 8.7185878,4.0337352 z "
         style="fill-rule:evenodd;stroke-width:0.625;stroke-linejoin:round;stroke:#000000;stroke-opacity:1;fill:#000000;fill-opacity:1"
         id="path9922" />
    </marker>
    <marker
       inkscape:stockid="Arrow1Lend"
       orient="auto"
       refY="0.0"
       refX="0.0"
       id="Arrow1Lend"
       style="overflow:visible;"
       inkscape:isstock="true">
      <path
         id="path8379"
         d="M 0.0,0.0 L 5.0,-5.0 L -12.5,0.0 L 5.0,5.0 L 0.0,0.0 z "
         style="fill-rule:evenodd;stroke:#000000;stroke-width:1pt;stroke-opacity:1;fill:#000000;fill-opacity:1"
         transform="scale(0.8) rotate(180) translate(12.5,0)" />
    </marker>
    <linearGradient
       gradientUnits="userSpaceOnUse"
       y2="438.78523"
       x2="375.09563"
       y1="438.78523"
       x1="225.75901"
       id="linearGradient15370"
       xlink:href="#linearGradient15364"
       inkscape:collect="always" />
  </defs>
  <metadata
     id="metadata7">
    <rdf:RDF>
      <cc:Work
         rdf:about="">
        <dc:format>image/svg+xml</dc:format>
        <dc:type
           rdf:resource="http://purl.org/dc/dcmitype/StillImage" />
        <dc:title />
      </cc:Work>
    </rdf:RDF>
  </metadata>
  <g
     inkscape:label="Camada 1"
     inkscape:groupmode="layer"
     id="layer1">
    <circle
       style="fill:#ff0000;fill-rule:evenodd;stroke:#000000;stroke-width:1px;stroke-linecap:butt;stroke-linejoin:miter;stroke-opacity:1"
       id="path3344"
       cx="210.11172"
       cy="392.98514"
       r="2.7779195" />
    <circle
       style="fill:#ff0000;fill-rule:evenodd;stroke:#000000;stroke-width:1px;stroke-linecap:butt;stroke-linejoin:miter;stroke-opacity:1"
       id="path3344-6"
       cx="272.74118"
       cy="444.25037"
       r="2.7779195" />
    <circle
       style="fill:#ff0000;fill-rule:evenodd;stroke:#000000;stroke-width:1px;stroke-linecap:butt;stroke-linejoin:miter;stroke-opacity:1"
       id="path3344-8"
       cx="308.09653"
       cy="352.32648"
       r="2.7779195" />
    <circle
       style="fill:#ff0000;fill-rule:evenodd;stroke:#000000;stroke-width:1px;stroke-linecap:butt;stroke-linejoin:miter;stroke-opacity:1"
       id="path3344-9"
       cx="327.28943"
       cy="386.67169"
       r="2.7779195" />
    <circle
       style="fill:#ff0000;fill-rule:evenodd;stroke:#000000;stroke-width:1px;stroke-linecap:butt;stroke-linejoin:miter;stroke-opacity:1"
       id="path3344-4"
       cx="220.97087"
       cy="470.76688"
       r="2.7779195" />
    <circle
       style="fill:#ff0000;fill-rule:evenodd;stroke:#000000;stroke-width:1px;stroke-linecap:butt;stroke-linejoin:miter;stroke-opacity:1"
       id="path3344-61"
       cx="309.10669"
       cy="484.65646"
       r="2.7779195" />
    <circle
       style="fill:#ff0000;fill-rule:evenodd;stroke:#000000;stroke-width:1px;stroke-linecap:butt;stroke-linejoin:miter;stroke-opacity:1"
       id="path3344-5"
       cx="319.20819"
       cy="427.07779"
       r="2.7779195" />
    <circle
       style="fill:#ff0000;fill-rule:evenodd;stroke:#000000;stroke-width:1px;stroke-linecap:butt;stroke-linejoin:miter;stroke-opacity:1"
       id="path3344-66"
       cx="226.27417"
       cy="375.56"
       r="2.7779195" />
    <circle
       style="fill:#ff0000;fill-rule:evenodd;stroke:#000000;stroke-width:1px;stroke-linecap:butt;stroke-linejoin:miter;stroke-opacity:1"
       id="path3344-65"
       cx="299.00516"
       cy="498.79861"
       r="2.7779195" />
    <ellipse
       style="fill:#ff0000;fill-rule:evenodd;stroke:#000000;stroke-width:1px;stroke-linecap:butt;stroke-linejoin:miter;stroke-opacity:1"
       id="path3344-2"
       cx="387.89859"
       cy="453.34174"
       r="2.7779195" />
    <circle
       style="fill:#ff0000;fill-rule:evenodd;stroke:#000000;stroke-width:1px;stroke-linecap:butt;stroke-linejoin:miter;stroke-opacity:1"
       id="path3344-82"
       cx="386.88843"
       cy="392.7326"
       r="2.7779195" />
    <circle
       style="fill:#ff0000;fill-rule:evenodd;stroke:#000000;stroke-width:1px;stroke-linecap:butt;stroke-linejoin:miter;stroke-opacity:1"
       id="path3344-25"
       cx="366.68536"
       cy="426.06763"
       r="2.7779195" />
    <circle
       style="fill:#ff0000;fill-rule:evenodd;stroke:#000000;stroke-width:1px;stroke-linecap:butt;stroke-linejoin:miter;stroke-opacity:1"
       id="path3344-0"
       cx="368.70569"
       cy="504.85953"
       r="2.7779195" />
    <circle
       style="fill:#ff0000;fill-rule:evenodd;stroke:#000000;stroke-width:1px;stroke-linecap:butt;stroke-linejoin:miter;stroke-opacity:1"
       id="path3344-3"
       cx="349.51279"
       cy="477.58542"
       r="2.7779195" />
    <circle
       style="fill:#ff0000;fill-rule:evenodd;stroke:#000000;stroke-width:1px;stroke-linecap:butt;stroke-linejoin:miter;stroke-opacity:1"
       id="path3344-00"
       cx="265.6701"
       cy="511.9306"
       r="2.7779195" />
    <circle
       style="fill:#ff0000;fill-rule:evenodd;stroke:#000000;stroke-width:1px;stroke-linecap:butt;stroke-linejoin:miter;stroke-opacity:1"
       id="path3344-51"
       cx="202.0305"
       cy="436.16916"
       r="2.7779195" />
    <path
       style="fill:#000000;stroke:#000000"
       id="path4391"
       sodipodi:type="arc"
       sodipodi:cx="299.76276"
       sodipodi:cy="439.19962"
       sodipodi:rx="5.0507627"
       sodipodi:ry="5.0507627"
       sodipodi:start="2.4617869"
       sodipodi:end="2.4543169"
       d="m 295.8348,442.37474 a 5.0507627,5.0507627 0 0 1 0.74551,-7.09714 5.0507627,5.0507627 0 0 1 7.09851,0.73225 5.0507627,5.0507627 0 0 1 -0.71899,7.09987 5.0507627,5.0507627 0 0 1 -7.1012,-0.70573 l 3.90413,-3.20437 z" />
    <path
       style="fill:none;stroke:#000000;stroke-width:1.31662858"
       id="path4395"
       sodipodi:type="arc"
       sodipodi:cx="300.39413"
       sodipodi:cy="438.8208"
       sodipodi:rx="75.477249"
       sodipodi:ry="75.477249"
       sodipodi:start="2.4617869"
       sodipodi:end="2.4543169"
       d="m 241.69587,486.26897 a 75.477249,75.477249 0 0 1 11.14056,-106.05773 75.477249,75.477249 0 0 1 106.07834,10.94249 75.477249,75.477249 0 0 1 -10.74436,106.09859 75.477249,75.477249 0 0 1 -106.11847,-10.5462 l 58.34219,-47.88532 z" />
    <text
       xml:space="preserve"
       style="font-style:normal;font-weight:normal;font-size:15px;line-height:125%;font-family:'Noto Sans Old Persian';letter-spacing:0px;word-spacing:0px;fill:#000000;fill-opacity:1;stroke:none;stroke-width:1px;stroke-linecap:butt;stroke-linejoin:miter;stroke-opacity:1;-inkscape-font-specification:'Noto Sans Old Persian';font-stretch:normal;font-variant:normal;"
       x="306.07623"
       y="451.57397"
       id="text4421"
       sodipodi:linespacing="125%"><tspan
         sodipodi:role="line"
         id="tspan4423"
         x="306.07623"
         y="451.57397">s<tspan
   style="font-size:64.99999762%;baseline-shift:sub;-inkscape-font-specification:'Noto Sans Old Persian';font-family:'Noto Sans Old Persian';font-weight:normal;font-style:normal;font-stretch:normal;font-variant:normal;"
   id="tspan4425">q</tspan></tspan></text>
    <text
       xml:space="preserve"
       style="font-style:normal;font-weight:normal;font-size:15px;line-height:125%;font-family:sans-serif;letter-spacing:0px;word-spacing:0px;fill:#000000;fill-opacity:1;stroke:none;stroke-width:1px;stroke-linecap:butt;stroke-linejoin:miter;stroke-opacity:1"
       x="271.47849"
       y="475.81763"
       id="text4431"
       sodipodi:linespacing="125%"><tspan
         sodipodi:role="line"
         id="tspan4433"
         x="271.47849"
         y="475.81763"
         style="font-style:italic;font-variant:normal;font-weight:normal;font-stretch:normal;font-family:sans-serif;-inkscape-font-specification:'sans-serif Italic'">ξ</tspan></text>
    <text
       xml:space="preserve"
       style="font-style:normal;font-weight:normal;font-size:15px;line-height:125%;font-family:sans-serif;letter-spacing:0px;word-spacing:0px;fill:#000000;fill-opacity:1;stroke:none;stroke-width:1px;stroke-linecap:butt;stroke-linejoin:miter;stroke-opacity:1"
       x="155.81602"
       y="362.93307"
       id="text4435"
       sodipodi:linespacing="125%"><tspan
         sodipodi:role="line"
         id="tspan4437"
         x="155.81602"
         y="362.93307" /></text>
    <circle
       style="fill:#ff0000;fill-rule:evenodd;stroke:#000000;stroke-width:1px;stroke-linecap:butt;stroke-linejoin:miter;stroke-opacity:1"
       id="path3344-4-6"
       cx="380.82751"
       cy="363.94324"
       r="2.7779195" />
    <circle
       style="fill:#ff0000;fill-rule:evenodd;stroke:#000000;stroke-width:1px;stroke-linecap:butt;stroke-linejoin:miter;stroke-opacity:1"
       id="path3344-4-60"
       cx="408.60669"
       cy="421.01688"
       r="2.7779195" />
    <circle
       style="fill:#ff0000;fill-rule:evenodd;stroke:#000000;stroke-width:1px;stroke-linecap:butt;stroke-linejoin:miter;stroke-opacity:1"
       id="path3344-4-7"
       cx="391.43411"
       cy="497.28339"
       r="2.7779195" />
    <circle
       style="fill:#ff0000;fill-rule:evenodd;stroke:#000000;stroke-width:1px;stroke-linecap:butt;stroke-linejoin:miter;stroke-opacity:1"
       id="path3344-4-2"
       cx="258.09396"
       cy="329.09299"
       r="2.7779195" />
    <circle
       style="fill:#ff0000;fill-rule:evenodd;stroke:#000000;stroke-width:1px;stroke-linecap:butt;stroke-linejoin:miter;stroke-opacity:1"
       id="path3344-4-62"
       cx="189.40359"
       cy="512.94073"
       r="2.7779195" />
    <circle
       style="fill:#ff0000;fill-rule:evenodd;stroke:#000000;stroke-width:1px;stroke-linecap:butt;stroke-linejoin:miter;stroke-opacity:1"
       id="path3344-4-9"
       cx="279.81226"
       cy="395.76306"
       r="2.7779195" />
    <circle
       style="fill:#ff0000;fill-rule:evenodd;stroke:#000000;stroke-width:1px;stroke-linecap:butt;stroke-linejoin:miter;stroke-opacity:1"
       id="path3344-4-5"
       cx="300.52039"
       cy="538.19458"
       r="2.7779195" />
    <path
       sodipodi:type="star"
       style="fill:#000000;stroke:#000000"
       id="path3630"
       sodipodi:sides="5"
       sodipodi:cx="136.37057"
       sodipodi:cy="462.43311"
       sodipodi:r1="6.1652417"
       sodipodi:r2="3.0826209"
       sodipodi:arg1="0.61072596"
       sodipodi:arg2="1.2390445"
       inkscape:flatsided="false"
       inkscape:rounded="0"
       inkscape:randomized="0"
       d="m 141.42134,465.96864 -4.04676,-0.621 -2.80573,2.98157 -0.65991,-4.04059 -3.70265,-1.74706 3.6389,-1.87622 0.51737,-4.06131 2.90888,2.88102 4.0224,-0.76297 -1.84112,3.6568 z"
       inkscape:transform-center-x="169.25224"
       inkscape:transform-center-y="27.98395"
       transform="matrix(1,-0.02172783,0,1,-52.022856,34.912693)" />
    <path
       sodipodi:open="true"
       style="fill:none;stroke:#000000;stroke-width:1;stroke-linecap:butt;stroke-miterlimit:4;stroke-dasharray:none;stroke-dashoffset:0"
       id="path9252"
       sodipodi:type="arc"
       sodipodi:cx="84.852814"
       sodipodi:cy="493.74786"
       sodipodi:rx="297.8717"
       sodipodi:ry="297.8717"
       sodipodi:start="5.3010536"
       sodipodi:end="0.48973939"
       d="M 250.24635,246.01306 A 297.8717,297.8717 0 0 1 347.71133,633.8655" />
    <circle
       style="fill:#ff0000;fill-rule:evenodd;stroke:#000000;stroke-width:1px;stroke-linecap:butt;stroke-linejoin:miter;stroke-opacity:1"
       id="path3344-4-60-6"
       cx="163.13963"
       cy="460.91791"
       r="2.7779195" />
    <circle
       style="fill:#ff0000;fill-rule:evenodd;stroke:#000000;stroke-width:1px;stroke-linecap:butt;stroke-linejoin:miter;stroke-opacity:1"
       id="path3344-4-60-7"
       cx="156.06857"
       cy="419.50165"
       r="2.7779195" />
    <circle
       style="fill:#ff0000;fill-rule:evenodd;stroke:#000000;stroke-width:1px;stroke-linecap:butt;stroke-linejoin:miter;stroke-opacity:1"
       id="path3344-4-60-9"
       cx="156.06857"
       cy="531.6286"
       r="2.7779195" />
    <circle
       style="fill:#ff0000;fill-rule:evenodd;stroke:#000000;stroke-width:1px;stroke-linecap:butt;stroke-linejoin:miter;stroke-opacity:1"
       id="path3344-4-60-95"
       cx="436.38589"
       cy="468.49405"
       r="2.7779195" />
    <circle
       style="fill:#ff0000;fill-rule:evenodd;stroke:#000000;stroke-width:1px;stroke-linecap:butt;stroke-linejoin:miter;stroke-opacity:1"
       id="path3344-4-60-97"
       cx="377.79706"
       cy="332.12344"
       r="2.7779195" />
    <path
       style="fill:none;fill-rule:evenodd;stroke:#000000;stroke-width:1px;stroke-linecap:butt;stroke-linejoin:miter;stroke-opacity:1;marker-end:url(#marker9920)"
       d="m 85.357889,495.76816 c 2.020306,0.50507 285.368091,79.29697 285.368091,79.29697"
       id="path9912"
       inkscape:connector-curvature="0" />
    <path
       inkscape:connector-curvature="0"
       id="path13684"
       d="m 294.83324,513.36532 c -19.35601,-1.64894 -36.92423,-10.17605 -49.47665,-24.01455 -1.12266,-1.23769 -2.05937,-2.34614 -2.08157,-2.46322 -0.0222,-0.11709 11.82324,-9.94259 26.32319,-21.83445 l 26.36354,-21.62158 0.97487,0.58704 c 3.55968,2.14353 8.1253,-0.29837 8.38889,-4.48675 0.14445,-2.29525 -1.06554,-4.37757 -3.13255,-5.39093 -1.33409,-0.65405 -3.405,-0.70098 -4.71621,-0.10689 -1.07456,0.48687 -2.38769,1.80056 -2.87225,2.87347 -0.53408,1.18259 -0.54105,3.37498 -0.0143,4.51839 l 0.37892,0.82261 -26.48438,21.40549 c -14.56641,11.77303 -26.5501,21.42435 -26.63042,21.44739 -0.17037,0.0489 -2.14614,-2.61536 -3.93167,-5.30167 -5.51901,-8.30331 -9.51766,-18.44039 -11.20316,-28.40139 -0.80855,-4.77841 -1.0427,-8.28147 -0.93642,-14.00933 0.099,-5.33557 0.36995,-8.16462 1.19751,-12.50323 4.76912,-25.00311 21.78897,-45.73658 45.442,-55.35717 20.18778,-8.21115 43.19785,-7.06901 62.68002,3.1112 18.95731,9.90595 32.95261,27.86512 37.95643,48.7068 2.14187,8.92122 2.61749,19.03735 1.31676,28.00669 -2.76162,19.04305 -12.45075,35.93938 -27.48893,47.93642 -11.06177,8.82477 -23.95391,14.1498 -38.30357,15.82108 -2.8533,0.33232 -11.05495,0.48417 -13.75,0.25458 z m 5.49027,-11.51889 c 0.88551,-0.36999 1.28374,-0.75072 1.67389,-1.60033 0.97805,-2.12992 -0.34602,-4.50713 -2.61522,-4.69531 -0.52856,-0.0438 -1.16415,-0.0287 -1.41242,0.0336 -0.57394,0.14405 -1.64835,1.08205 -1.98493,1.73292 -0.32676,0.63188 -0.334,2.13861 -0.0139,2.88988 0.67063,1.5739 2.68935,2.33418 4.35257,1.63924 z m 10.14212,-14.16813 c 1.94943,-0.88551 2.58699,-3.26054 1.33808,-4.98461 -1.19535,-1.65013 -3.76078,-1.83206 -5.13159,-0.36391 -0.52366,0.56085 -0.94694,1.60778 -0.9421,2.33022 0.008,1.25573 1.19605,2.86662 2.36087,3.20222 0.74793,0.21549 1.64908,0.1457 2.37474,-0.18392 z m 40.60784,-7.15937 c 2.37524,-1.21175 2.35445,-4.71957 -0.0348,-5.8762 -2.31123,-1.11885 -4.80508,0.38591 -4.83961,2.92016 -0.0339,2.48743 2.62836,4.10191 4.87444,2.95604 z m -74.50285,-1.78423 c 1.37785,-0.62547 1.92771,-2.31959 1.07474,-3.31124 -0.33007,-0.38373 -0.63481,-0.49676 -1.69982,-0.63048 -1.47475,-0.18518 -1.88649,-0.36048 -2.2888,-0.97448 -0.35875,-0.54752 -0.20493,-1.33524 0.40146,-2.05589 0.51558,-0.61273 1.8447,-1.07009 3.10977,-1.07009 0.88563,0 1.05813,-0.15828 1.05813,-0.97092 0,-0.36935 -0.10434,-0.41575 -1.15568,-0.51392 -1.19791,-0.11186 -2.1874,-0.49909 -2.34857,-0.91909 -0.13385,-0.3488 0.39978,-1.29278 0.92555,-1.63728 0.58453,-0.383 2.26268,-0.77389 3.33763,-0.77743 0.59929,-0.002 0.84821,-0.0748 0.84821,-0.24832 0,-0.13504 0.0502,-0.49665 0.11161,-0.80357 l 0.1116,-0.55804 -2.95671,0 c -3.23857,0 -2.96616,-0.094 -3.23545,1.11607 -0.10181,0.45747 -0.0693,0.49128 0.47448,0.49408 l 0.58376,0.003 -0.56379,0.36118 c -0.70104,0.44911 -1.20248,1.61527 -1.04819,2.43768 0.0677,0.36099 0.31379,0.73971 0.63487,0.97709 l 0.52429,0.38762 -0.87006,0.49691 c -0.62689,0.35803 -0.97537,0.71443 -1.24681,1.27516 -0.42061,0.86886 -0.49403,2.17698 -0.16298,2.90356 0.29786,0.65373 1.38732,1.15682 2.8417,1.31222 0.67859,0.0725 1.32354,0.22158 1.43324,0.33127 0.3401,0.3401 0.0123,1.13562 -0.55644,1.35028 -0.47031,0.17752 -0.70909,0.56199 -0.71554,1.15209 -0.003,0.31699 0.50163,0.27027 1.3778,-0.12747 l 0,10e-6 z m 42.68581,-25.85468 0.0482,-3.79464 -0.52439,0 c -0.28841,0 -0.55501,0.0919 -0.59244,0.20418 -0.0511,0.15319 -0.16333,0.15319 -0.44957,0 -0.49285,-0.26377 -1.5128,-0.26131 -2.0974,0.005 -1.44556,0.65864 -1.72459,3.65935 -0.45352,4.87711 0.64061,0.61374 1.7015,0.7746 2.47401,0.37512 l 0.56478,-0.29206 0,1.13554 c 0,1.24741 0.077,1.41392 0.61765,1.33652 0.35211,-0.0504 0.36613,-0.18104 0.41268,-3.84682 z m -7.71157,-1.31476 c 0.85939,-0.26006 1.52929,-1.07691 1.63224,-1.99029 0.16861,-1.49586 -0.64636,-2.31158 -2.80815,-2.81074 -1.51705,-0.35028 -1.96428,-0.63369 -1.96428,-1.24474 0,-0.75625 0.56391,-1.07864 1.87009,-1.06913 0.59199,0.004 1.39777,0.12364 1.79062,0.26517 0.39286,0.14153 0.73438,0.25854 0.75893,0.26002 0.0245,0.001 0.0446,-0.31251 0.0446,-0.69775 0,-0.64334 -0.0514,-0.7174 -0.63055,-0.90854 -0.95479,-0.31511 -3.3021,-0.27614 -3.96334,0.0658 -1.16078,0.60026 -1.64945,1.71471 -1.26096,2.8757 0.30667,0.91651 0.86719,1.29441 2.56203,1.72731 0.7798,0.19917 1.55845,0.48858 1.73032,0.64312 0.44389,0.39911 0.39957,1.21581 -0.0844,1.55478 -0.56513,0.39583 -2.24957,0.35661 -3.39585,-0.0791 -0.51668,-0.19638 -0.95951,-0.35709 -0.98406,-0.35714 -0.0246,-5e-5 -0.0446,0.35575 -0.0446,0.79067 l 0,0.79077 0.9375,0.19116 c 1.77765,0.36248 2.59355,0.36096 3.80983,-0.007 l 0,-10e-6 z m -37.19249,-4.4001 c 0.29276,-0.17156 0.78188,-0.62072 1.08694,-0.99814 0.49757,-0.6156 0.55464,-0.8099 0.55464,-1.88808 0,-0.98705 -0.0798,-1.31977 -0.44642,-1.86148 -0.5193,-0.76726 -1.93438,-1.54636 -2.80866,-1.54636 -0.68239,0 -1.75327,0.40722 -2.24845,0.85502 -1.03461,0.9356 -1.34452,2.79768 -0.68183,4.09666 0.83312,1.63304 2.97031,2.26444 4.54378,1.34238 z M 320.7261,430.0596 c 0.61107,-0.31215 1.36662,-1.13824 1.59578,-1.74477 0.44723,-1.18369 0.0613,-2.93065 -0.82439,-3.73157 -0.50544,-0.45707 -1.57091,-0.85502 -2.28925,-0.85502 -0.71834,0 -1.78381,0.39795 -2.28925,0.85502 -0.92302,0.8347 -1.28263,2.62144 -0.77306,3.841 0.29783,0.71282 1.38436,1.69067 2.0388,1.83488 0.26829,0.0591 0.56815,0.13411 0.66637,0.16665 0.28915,0.0958 1.3924,-0.11966 1.875,-0.36619 z m 47.75669,-1.17022 c 1.25904,-0.86271 1.83342,-2.537 1.36121,-3.96783 -0.4352,-1.31865 -2.32793,-2.44487 -3.64177,-2.16695 -1.69422,0.35839 -2.79756,1.64933 -2.79756,3.27323 0,1.49733 0.76323,2.63556 2.16878,3.23436 0.66065,0.28145 2.25213,0.0775 2.90934,-0.37281 z m -87.34638,-30.04526 c 1.26043,-0.52664 2.25749,-2.31278 1.99189,-3.56832 -0.35839,-1.69422 -1.64932,-2.79756 -3.27322,-2.79756 -1.21143,0 -2.20557,0.51367 -2.83414,1.4644 -0.40419,0.61135 -0.49073,0.93867 -0.48822,1.8465 0.003,0.91751 0.0882,1.22627 0.50834,1.83258 0.88729,1.28036 2.67765,1.81475 4.09535,1.2224 z m 47.39056,-9.05581 c 1.21614,-0.45949 2.07158,-1.74524 2.07158,-3.11364 0,-1.92199 -1.41076,-3.30357 -3.37334,-3.30357 -1.36531,0 -2.48194,0.74551 -3.01016,2.00972 -0.91697,2.19462 0.62143,4.57018 2.97264,4.59027 0.46012,0.004 1.0628,-0.0783 1.33928,-0.18278 z"
       style="fill:url(#linearGradient15370);stroke:none;stroke-width:1;stroke-linecap:butt;stroke-miterlimit:4;stroke-dasharray:none;stroke-dashoffset:0;fill-opacity:1" />
    <path
       inkscape:connector-curvature="0"
       id="path13696"
       d="m 231.43211,480.60383 c 0,-0.1307 0.11365,-0.30787 0.25254,-0.39371 0.1389,-0.0858 0.25254,0.0211 0.25254,0.23763 0,0.21654 -0.11364,0.39371 -0.25254,0.39371 -0.13889,0 -0.25254,-0.10693 -0.25254,-0.23763 z"
       style="fill:#b3b3b3;stroke:none;stroke-width:1;stroke-linecap:butt;stroke-miterlimit:4;stroke-dasharray:none;stroke-dashoffset:0" />
    <path
       inkscape:connector-curvature="0"
       id="path13882"
       d="m 268.99805,511.84995 c 0,-0.44195 -0.11263,-0.84709 -0.38954,-1.40125 -0.60682,-1.21433 -1.5924,-1.81795 -2.95451,-1.80946 -0.41783,0.003 -0.92383,0.0673 -1.12445,0.14381 -0.20061,0.0765 -0.38982,0.11402 -0.42045,0.0834 -0.0306,-0.0306 0.0715,-0.27666 0.22688,-0.54671 0.5443,-0.94574 0.10279,-1.52625 -2.50469,-3.29325 -0.85019,-0.57615 -1.54581,-1.10783 -1.54581,-1.1815 0,-0.18156 0.23358,-0.0795 1.30053,0.56805 3.42227,2.07717 8.67316,4.54538 13.06258,6.14015 0.43405,0.1577 0.78918,0.3377 0.78918,0.4 0,0.14702 -0.20619,0.0931 -3.28299,-0.85841 -1.42369,-0.44028 -2.77319,-0.8006 -2.99889,-0.8007 -0.51003,-2.3e-4 -0.52053,0.14662 -0.0878,1.22826 0.33931,0.84815 0.38337,1.80023 0.0878,1.89742 -0.11193,0.0368 -0.15784,-0.12893 -0.15784,-0.56979 z"
       style="fill:#b3b3b3;stroke:none;stroke-width:1;stroke-linecap:butt;stroke-miterlimit:4;stroke-dasharray:none;stroke-dashoffset:0" />
    <path
       inkscape:connector-curvature="0"
       id="path13884"
       d=""
       style="fill:#b3b3b3;stroke:none;stroke-width:1;stroke-linecap:butt;stroke-miterlimit:4;stroke-dasharray:none;stroke-dashoffset:0" />
    <path
       inkscape:connector-curvature="0"
       id="path13886"
       d="m 238.09166,483.18774 c -0.20377,-0.26042 -0.89905,-1.24059 -1.54506,-2.17814 -0.64601,-0.93754 -1.52334,-2.1592 -1.94961,-2.71478 -1.03178,-1.34475 -1.00521,-1.28374 -0.55904,-1.28374 0.25279,0 0.43999,0.0899 0.54752,0.26306 0.0899,0.14469 0.60266,0.97333 1.13956,1.84143 0.5369,0.8681 1.42444,2.21594 1.97231,2.99521 0.54788,0.77927 0.99613,1.44692 0.99613,1.48366 0,0.19678 -0.27507,0.0109 -0.60181,-0.4067 z"
       style="fill:#b3b3b3;stroke:none;stroke-width:1;stroke-linecap:butt;stroke-miterlimit:4;stroke-dasharray:none;stroke-dashoffset:0" />
    <path
       inkscape:connector-curvature="0"
       id="path13906"
       d=""
       style="fill:#b3b3b3;stroke:none;stroke-width:1;stroke-linecap:butt;stroke-miterlimit:4;stroke-dasharray:none;stroke-dashoffset:0" />
    <path
       inkscape:connector-curvature="0"
       id="path13910"
       d="m 156.57449,514.84016 c -43.50565,-12.11578 -66.969307,-18.87432 -67.531307,-19.45192 -0.811996,-0.83454 -0.804777,-0.99582 0.126269,-2.82082 1.340153,-2.62692 1.262919,-3.01589 -0.527724,-2.65776 -0.960733,0.19214 -1.515229,0.0964 -1.515229,-0.26161 0,-0.72306 36.362881,-125.49135 36.660291,-125.78876 0.12248,-0.12249 0.89255,0.27254 1.71127,0.87784 0.81871,0.6053 1.63056,1.10054 1.80412,1.10054 0.17356,0 0.15352,-2.50012 -0.0445,-5.55584 -0.19805,-3.05571 -0.24247,-5.55584 -0.0987,-5.55584 0.14376,0 2.92187,0.91738 6.17359,2.03862 33.25034,11.4652 61.66917,35.4806 79.17179,66.9043 16.58296,29.77256 22.06047,66.28929 14.9629,99.75256 -1.67307,7.88809 -2.41925,10.10887 -3.37462,10.0435 -0.46643,-0.0319 -30.84958,-8.41307 -67.51811,-18.62481 z m 35.1893,0.67434 c 0.92809,-0.83991 1.24018,-3.46511 0.53711,-4.51806 -0.65964,-0.9879 -2.65541,-1.78153 -3.67016,-1.45946 -2.46481,0.7823 -3.38011,4.00387 -1.6734,5.88977 1.04154,1.15088 3.58048,1.19724 4.80645,0.0878 z m 31.50372,-42.32516 c 1.5016,-1.5016 1.59467,-3.4561 0.22958,-4.82118 -2.09511,-2.09512 -6.06091,-0.59292 -6.06091,2.29579 0,1.5542 2.0761,3.76512 3.53553,3.76512 0.58084,0 1.61395,-0.55788 2.2958,-1.23973 z m -57.76769,-9.69769 c 0.92809,-0.83991 1.24018,-3.46512 0.53711,-4.51806 -0.65964,-0.98791 -2.6554,-1.78154 -3.67015,-1.45947 -2.46481,0.7823 -3.38012,4.00387 -1.6734,5.88977 1.04153,1.15088 3.58047,1.19724 4.80644,0.0878 z m 38.89087,-24.74874 c 0.9281,-0.83991 1.24019,-3.46511 0.53712,-4.51806 -0.65964,-0.98791 -2.65541,-1.78153 -3.67016,-1.45947 -2.46481,0.7823 -3.38012,4.00388 -1.6734,5.88977 1.04153,1.15089 3.58048,1.19725 4.80644,0.0878 z m -45.96194,-16.66752 c 0.92809,-0.83991 1.24019,-3.46511 0.53712,-4.51806 -0.65964,-0.9879 -2.65541,-1.78153 -3.67016,-1.45946 -2.46481,0.7823 -3.38012,4.00387 -1.6734,5.88977 1.04153,1.15088 3.58048,1.19724 4.80644,0.0878 z"
       style="fill:none;stroke:none;stroke-width:1;stroke-linecap:butt;stroke-miterlimit:4;stroke-dasharray:none;stroke-dashoffset:0;fill-opacity:1" />
    <path
       sodipodi:type="star"
       style="fill:#000000;stroke:#000000"
       id="path3630-0"
       sodipodi:sides="5"
       sodipodi:cx="136.37057"
       sodipodi:cy="462.43311"
       sodipodi:r1="6.1652417"
       sodipodi:r2="3.0826209"
       sodipodi:arg1="0.61072596"
       sodipodi:arg2="1.2390445"
       inkscape:flatsided="false"
       inkscape:rounded="0"
       inkscape:randomized="0"
       d="m 141.42134,465.96864 -4.04676,-0.621 -2.80573,2.98157 -0.65991,-4.04059 -3.70265,-1.74706 3.6389,-1.87622 0.51737,-4.06131 2.90888,2.88102 4.0224,-0.76297 -1.84112,3.6568 z"
       inkscape:transform-center-x="169.25224"
       inkscape:transform-center-y="27.98395"
       transform="matrix(1,-0.02172783,0,1,383.50662,-75.412398)" />
    <g
       id="g5656"
       transform="matrix(0.48791071,0,0,0.48791071,379.66255,228.41573)">
      <g
         word-spacing="normal"
         letter-spacing="normal"
         font-size-adjust="none"
         font-stretch="normal"
         font-weight="normal"
         font-variant="normal"
         font-style="normal"
         stroke-miterlimit="10.433"
         xml:space="preserve"
         transform="matrix(1.0629921,0,0,-1.0629921,-186.02362,789.27165)"
         id="content"
         style="font-style:normal;font-variant:normal;font-weight:normal;font-stretch:normal;letter-spacing:normal;word-spacing:normal;text-anchor:start;fill:none;fill-opacity:1;fill-rule:evenodd;stroke:#000000;stroke-linecap:butt;stroke-linejoin:miter;stroke-miterlimit:10.43299961;stroke-dasharray:none;stroke-dashoffset:0;stroke-opacity:1"><path
           id="path5659"
           d="m 474.28,425.93 4.29,0 c 0.99,0 1.49,0 1.49,0.99 0,0.55 -0.5,0.55 -1.35,0.55 l -4.13,0 1.04,5.68 c 0.2,1.05 0.9,4.58 1.2,5.18 0.45,0.94 1.3,1.69 2.34,1.69 0.2,0 1.5,0 2.45,-0.9 -2.2,-0.19 -2.7,-1.94 -2.7,-2.68 0,-1.15 0.9,-1.75 1.85,-1.75 1.29,0 2.74,1.1 2.74,2.99 0,2.29 -2.29,3.44 -4.34,3.44 -1.69,0 -4.83,-0.9 -6.32,-5.83 -0.3,-1.05 -0.45,-1.54 -1.65,-7.82 l -3.43,0 c -0.95,0 -1.5,0 -1.5,-0.95 0,-0.59 0.45,-0.59 1.4,-0.59 l 3.29,0 -3.74,-19.68 c -0.9,-4.83 -1.75,-9.37 -4.33,-9.37 -0.2,0 -1.45,0 -2.4,0.9 2.29,0.15 2.74,1.94 2.74,2.69 0,1.15 -0.89,1.74 -1.84,1.74 -1.29,0 -2.74,-1.09 -2.74,-2.98 0,-2.25 2.19,-3.44 4.24,-3.44 2.73,0 4.73,2.94 5.62,4.83 1.6,3.14 2.74,9.17 2.79,9.51 z"
           inkscape:connector-curvature="0"
           style="fill:#000000;stroke-width:0" /><path
           id="path5661"
           d="m 497.61,405.35 -1.19,0 c -0.1,-0.77 -0.45,-2.83 -0.9,-3.18 -0.28,-0.21 -2.97,-0.21 -3.45,-0.21 l -6.42,0 c 3.66,3.25 4.88,4.22 6.97,5.86 2.58,2.06 4.99,4.22 4.99,7.54 0,4.21 -3.7,6.79 -8.16,6.79 -4.33,0 -7.25,-3.03 -7.25,-6.24 0,-1.78 1.5,-1.95 1.84,-1.95 0.84,0 1.85,0.59 1.85,1.85 0,0.62 -0.24,1.85 -2.05,1.85 1.08,2.47 3.45,3.24 5.09,3.24 3.48,0 5.3,-2.72 5.3,-5.54 0,-3.04 -2.16,-5.45 -3.28,-6.7 l -8.4,-8.3 c -0.35,-0.31 -0.35,-0.38 -0.35,-1.36 l 14.36,0 z"
           inkscape:connector-curvature="0"
           style="fill:#000000;stroke-width:0" /></g>    </g>
    <path
       style="fill:none;fill-rule:evenodd;stroke:#000000;stroke-width:1;stroke-linecap:butt;stroke-linejoin:miter;stroke-opacity:1;stroke-miterlimit:4;stroke-dasharray:1,2;stroke-dashoffset:0"
       d="M 84.852813,495.26306 520.73363,383.13613"
       id="path5762"
       inkscape:connector-curvature="0" />
    <path
       style="fill:none;fill-opacity:1;stroke:#000000;stroke-width:1;stroke-linecap:butt;stroke-miterlimit:4;stroke-dasharray:none;stroke-dashoffset:0"
       id="path5797"
       sodipodi:type="arc"
       sodipodi:cx="522.24884"
       sodipodi:cy="383.6412"
       sodipodi:rx="304.05591"
       sodipodi:ry="304.05591"
       sodipodi:start="2.1816616"
       sodipodi:end="3.6180675"
       d="M 347.84953,632.70922 A 304.05591,304.05591 0 0 1 252.05952,244.18611"
       sodipodi:open="true" />
    <path
       style="fill:none;fill-rule:evenodd;stroke:#000000;stroke-width:1px;stroke-linecap:butt;stroke-linejoin:miter;stroke-opacity:1;marker-start:url(#marker6415)"
       d="M 218.50974,366.29468 523.2578,384.2527 Z"
       id="path5805"
       inkscape:connector-curvature="0" />
    <path
       style="fill:#e6e6e6;fill-opacity:1;stroke:none;stroke-width:1;stroke-linecap:butt;stroke-miterlimit:4;stroke-dasharray:none;stroke-dashoffset:0"
       d="m 341.82129,372.6294 c -2.57869,-0.27242 -5.85048,-1.2658 -8.21428,-2.494 -16.62439,-8.6379 -38.75719,-9.98199 -58.13026,-3.53016 l -5.64523,1.88003 -20.42731,-1.21721 c -11.23501,-0.66946 -20.53657,-1.32648 -20.67012,-1.46004 -0.13356,-0.13355 0.13069,-0.94073 0.5872,-1.79374 0.45652,-0.85301 0.67434,-1.70661 0.48404,-1.89691 -0.19029,-0.1903 -2.51525,0.32403 -5.16658,1.14294 -2.65132,0.81891 -4.88917,1.40392 -4.97299,1.30002 -0.32233,-0.39955 1.78599,-20.37528 2.87613,-27.25054 4.61889,-29.13023 13.78921,-58.77913 25.92616,-83.8228 l 2.85178,-5.88443 6.98225,5.0572 c 40.62513,29.42449 74.30773,69.74151 94.67149,113.31881 l 3.42132,7.32143 -5.14394,-0.10893 c -2.82917,-0.0599 -7.07251,-0.31265 -9.42966,-0.56167 z M 310.3417,355.03469 c 1.33218,-1.33218 1.46727,-3.9613 0.26531,-5.16327 -1.3582,-1.35819 -4.70827,-1.0414 -5.5463,0.52448 -1.05044,1.96276 -0.93122,2.71229 0.68915,4.33267 1.7198,1.7198 3.08702,1.81095 4.59184,0.30612 z m -49.62768,-23.47722 c 2.70061,-3.25403 -1.82207,-7.88674 -4.94253,-5.06276 -1.75896,1.59184 -1.8405,3.04723 -0.26806,4.78476 1.41524,1.56383 4.02777,1.70322 5.21059,0.278 z"
       id="path6785"
       inkscape:connector-curvature="0" />
    <path
       style="fill:#e6e6e6;fill-opacity:1;stroke:none;stroke-width:1;stroke-linecap:butt;stroke-miterlimit:4;stroke-dasharray:none;stroke-dashoffset:0"
       d="m 222.54565,429.55 c -0.16624,-0.49108 -0.83538,-5.07143 -1.487,-10.17858 -1.21428,-9.51717 -2.3683,-51.07142 -1.41832,-51.07142 0.26816,0 2.09932,0.69335 4.06924,1.54079 l 3.58168,1.5408 -2.24564,0.94422 c -1.93857,0.81511 -2.21488,1.25385 -2.02069,3.2086 0.26987,2.71658 1.82928,3.85954 4.38923,3.21703 2.0048,-0.50317 3.21239,-3.20309 2.17987,-4.87375 -0.31683,-0.51264 -0.63949,-2.16624 -0.71702,-3.67467 l -0.14096,-2.7426 4.04262,0.40557 c 2.22345,0.22306 10.63192,0.77076 18.68549,1.21712 8.05357,0.44635 14.71376,0.87187 14.80042,0.94559 0.0867,0.0737 -1.89108,1.31232 -4.39498,2.75244 -19.67353,11.31522 -33.23504,31.37756 -37.16688,54.98314 -0.43729,2.62536 -1.55861,3.55363 -2.15706,1.78572 z"
       id="path6787"
       inkscape:connector-curvature="0" />
    <path
       style="fill:#e6e6e6;fill-opacity:1;stroke:none;stroke-width:1;stroke-linecap:butt;stroke-miterlimit:4;stroke-dasharray:none;stroke-dashoffset:0"
       d="m 366.45489,570.46589 c -4.60633,-3.33089 -5.63473,-3.54879 -5.16556,-1.09447 0.23007,1.20353 0.0231,1.78144 -0.63477,1.7726 -0.53687,-0.007 -22.19041,-5.90932 -48.11898,-13.11579 l -47.14286,-13.10267 -4.20855,-7.06279 c -6.52322,-10.94725 -15.52678,-29.43461 -20.71811,-42.5413 -2.59391,-6.54891 -4.7162,-12.25427 -4.7162,-12.67858 0,-1.4559 1.17399,-0.76849 3.25702,1.90711 3.61194,4.63944 10.40477,11.50624 14.17943,14.33384 1.99924,1.49764 5.32248,3.97356 7.38498,5.50205 4.0597,3.00859 4.30039,3.46576 2.67857,5.08757 -1.28783,1.28784 -1.3985,3.92803 -0.21428,5.11225 2.20324,2.20324 6.28571,0.12497 6.28571,-3.19988 0,-1.53128 0.24909,-1.74506 1.60715,-1.37938 12.34152,3.32315 16.25865,4.17112 22.42153,4.85372 21.02184,2.32838 43.51312,-5.46635 59.62261,-20.66323 11.83824,-11.1676 19.99634,-26.41232 22.8241,-42.6505 0.9252,-5.31288 2.14926,-5.86663 2.92488,-1.32318 1.81988,10.66048 2.94023,27.17515 2.94653,43.43388 0.007,19.10716 -0.68043,28.33838 -3.45881,46.41979 -1.73264,11.27579 -6.64002,33.22306 -7.42863,33.22306 -0.22354,0 -2.17013,-1.27534 -4.32576,-2.8341 z m -62.89544,-30.86708 c 0.97835,-1.74879 0.95525,-2.04404 -0.26541,-3.39286 -2.52606,-2.79126 -6.1156,-1.49915 -6.1156,2.20141 0,3.70966 4.50193,4.55026 6.38101,1.19145 z m 68.11641,-32.7954 c 1.14929,-1.83684 0.004,-4.85049 -2.03708,-5.36291 -2.07707,-0.52131 -4.6032,1.31586 -4.6032,3.34775 0,3.13522 4.99165,4.65006 6.64028,2.01516 z"
       id="path6789"
       inkscape:connector-curvature="0" />
    <path
       style="fill:#e6e6e6;fill-opacity:1;stroke:none;stroke-width:1;stroke-linecap:butt;stroke-miterlimit:4;stroke-dasharray:none;stroke-dashoffset:0"
       d="m 339.49163,625.5487 c -16.5346,-12.52041 -36.10799,-31.0287 -48.83465,-46.17728 -10.26235,-12.21529 -23.45543,-30.61835 -22.5787,-31.49508 0.29565,-0.29565 87.61288,23.55472 91.87596,25.09558 0.81223,0.29358 0.78016,0.58982 -0.17858,1.64921 -0.64276,0.71024 -1.16865,1.55475 -1.16865,1.87669 0,0.32194 2.57143,0.38705 5.71428,0.14469 3.14286,-0.24236 5.71429,-0.1976 5.71429,0.0995 0,1.09731 -7.05957,21.43427 -9.86821,28.42802 -4.40122,10.9594 -11.67419,25.99082 -12.55982,25.95802 -0.43244,-0.016 -4.08461,-2.5267 -8.11592,-5.57932 z"
       id="path6791"
       inkscape:connector-curvature="0" />
    <path
       style="fill:#e6e6e6;fill-opacity:1;stroke:none;stroke-width:1;stroke-linecap:butt;stroke-miterlimit:4;stroke-dasharray:none;stroke-dashoffset:0"
       d="m 369.20224,572.76428 c -0.24096,-0.54218 -6.82337,-5.17857 -7.35215,-5.17857 -0.15762,0 -0.3893,0.72321 -0.51483,1.60714 -0.22672,1.59634 -2.23182,2.20312 -3.79968,1.14985 -0.39286,-0.26391 -1.67857,-0.65793 -2.85714,-0.87559 -1.17858,-0.21767 -3.42858,-0.73929 -5,-1.15917 -1.57143,-0.41987 -3.42085,-0.89664 -4.10983,-1.05947 -0.68898,-0.16283 -1.51507,-0.45822 -1.83577,-0.65642 -0.32069,-0.1982 -1.36413,-0.52756 -2.31874,-0.73192 -1.71059,-0.36619 -6.4306,-1.58643 -8.52138,-2.20299 -0.58928,-0.17378 -2.35714,-0.66478 -3.92857,-1.09112 -3.63189,-0.98534 -7.54967,-2.07368 -8.92857,-2.48031 -1.51614,-0.4471 -5.36942,-1.50462 -10.35714,-2.84249 -2.35715,-0.63226 -5.25,-1.43583 -6.42858,-1.78572 -1.17857,-0.34988 -4.07142,-1.15345 -6.42857,-1.78571 -2.35714,-0.63226 -5.25,-1.42475 -6.42857,-1.76107 -7.385,-2.10747 -16.33785,-4.54188 -20.17007,-5.48455 -3.36452,-0.82762 -4.80773,-1.59033 -5.89286,-3.11424 -0.79039,-1.11 -1.43707,-2.26468 -1.43707,-2.56596 0,-0.30128 -0.45417,-1.05523 -1.00927,-1.67545 -0.5551,-0.62022 -2.20981,-3.53838 -3.67712,-6.48481 -1.46732,-2.94643 -2.89892,-5.51786 -3.18133,-5.71429 -0.68741,-0.47811 -5.95455,-11.64033 -5.81414,-12.32143 0.0607,-0.29464 -0.22997,-0.53571 -0.64601,-0.53571 -0.41604,0 -0.55778,-0.32143 -0.31499,-0.71429 0.2428,-0.39285 0.0475,-0.71428 -0.43403,-0.71428 -0.48152,0 -0.67498,-0.20052 -0.4299,-0.44559 0.24507,-0.24507 -0.14904,-1.61114 -0.8758,-3.03571 -0.72676,-1.42457 -1.34022,-2.83999 -1.36324,-3.14536 -0.023,-0.30538 -0.74074,-1.91253 -1.59495,-3.57143 -2.65051,-5.14742 -2.80208,-5.47918 -2.80208,-6.13356 0,-0.35021 -0.54297,-1.88136 -1.2066,-3.40255 -0.66363,-1.52119 -1.25389,-2.92652 -1.31169,-3.12294 -0.0578,-0.19643 -0.29009,-0.83929 -0.5162,-1.42858 -0.60046,-1.56489 -1.96551,-5.88017 -1.96551,-6.2135 0,-0.85516 2.44609,1.46107 6.60029,6.24987 4.52193,5.21271 11.47119,11.34952 17.27159,15.25233 1.54024,1.03636 3.25975,2.54004 3.82113,3.34152 0.89826,1.28245 0.87349,1.6199 -0.20653,2.8133 -2.87912,3.18139 1.50092,7.48356 4.68516,4.60187 0.76989,-0.69674 1.39979,-1.84087 1.39979,-2.54251 0,-0.70164 0.29927,-1.46067 0.66504,-1.68672 0.36577,-0.22606 4.0594,0.5421 8.20806,1.70702 16.91389,4.74934 32.40769,4.3739 47.8219,-1.15879 15.42917,-5.53806 29.21665,-16.37589 38.02631,-29.89111 5.0781,-7.7905 7.78904,-14.08728 10.59791,-24.61613 1.20527,-4.51786 2.51044,-8.21429 2.90038,-8.21429 1.19756,0 2.38848,8.84782 3.60537,26.78572 0.40752,6.00715 0.41473,36.846 0.01,40.71428 -0.14404,1.375 -0.49909,4.91072 -0.78901,7.85714 -0.61969,6.29775 -0.66087,6.63005 -1.2837,10.35715 -0.2626,1.57143 -0.66799,4.30357 -0.90085,6.07143 -0.64026,4.86062 -0.76427,5.54001 -2.34685,12.85714 -0.8072,3.73214 -1.62233,7.58928 -1.81139,8.57143 -0.18906,0.98214 -0.53993,2.58928 -0.77971,3.57143 -0.23979,0.98214 -0.60954,2.75 -0.82167,3.92857 -0.65054,3.61414 -2.43052,5.88428 -3.22037,4.10714 l 3e-5,0 z m -66.30952,-32.32143 c 1.76752,-1.76752 1.77611,-2.26969 0.0748,-4.37076 -1.16374,-1.43717 -1.64006,-1.57178 -3.39285,-0.95885 -2.41902,0.84592 -3.11134,3.79814 -1.31252,5.59695 1.54281,1.54281 2.89874,1.46453 4.63061,-0.26734 z m 68.16327,-33.2653 c 1.52675,-1.52676 1.41011,-3.39581 -0.30903,-4.95161 -2.95027,-2.66997 -7.26655,1.74313 -4.59363,4.69667 1.51041,1.66898 3.39083,1.76676 4.90266,0.25494 z"
       id="path6793"
       inkscape:connector-curvature="0" />
    <path
       style="fill:#e6e6e6;fill-opacity:1;stroke:none;stroke-width:1;stroke-linecap:butt;stroke-miterlimit:4;stroke-dasharray:none;stroke-dashoffset:0"
       d="m 345.09247,629.65874 c -1.32361,-0.80494 -2.80279,-1.84173 -3.28706,-2.30399 -0.48428,-0.46226 -1.59272,-1.32261 -2.46322,-1.9119 -0.87049,-0.58928 -2.15274,-1.55357 -2.84945,-2.14286 -0.6967,-0.58928 -2.3024,-1.86458 -3.56821,-2.834 -1.26581,-0.9694 -3.03256,-2.41583 -3.92611,-3.21428 -0.89355,-0.79844 -3.13805,-2.73743 -4.98778,-4.30886 -4.2906,-3.64506 -27.81692,-26.9242 -31.11792,-30.79097 -1.375,-1.61067 -3.46428,-4.12383 -4.64286,-5.5848 -1.17857,-1.46096 -2.625,-3.24977 -3.21428,-3.97513 -0.58929,-0.72535 -1.69424,-2.16885 -2.45546,-3.20777 -0.76121,-1.03893 -1.96657,-2.56064 -2.67857,-3.38158 -0.712,-0.82094 -1.29494,-1.68451 -1.29541,-1.91904 -4.8e-4,-0.23453 -0.80406,-1.36035 -1.78572,-2.50181 -0.98166,-1.14146 -1.7856,-2.26646 -1.78652,-2.5 -9.2e-4,-0.23354 -0.96445,-1.54961 -2.14118,-2.92461 -1.17673,-1.375 -2.14026,-2.90179 -2.14118,-3.39286 -9.2e-4,-0.49107 -0.28562,-0.89286 -0.63265,-0.89286 -1.02247,0 -1.53848,-3.11353 -0.61102,-3.68674 0.46593,-0.28796 1.03265,-0.22341 1.25938,0.14345 0.22673,0.36686 1.37475,0.77238 2.55116,0.90117 1.17641,0.12879 2.44826,0.42534 2.82634,0.65901 0.37808,0.23367 1.97069,0.6806 3.53913,0.99319 3.47196,0.69195 3.32152,0.65271 4.63741,1.20953 0.58929,0.24936 1.95006,0.60114 3.02393,0.78173 1.07388,0.1806 2.2214,0.49455 2.55006,0.69767 0.32865,0.20311 1.45895,0.54679 2.51178,0.76372 l 3.82847,0.78883 c 1.05283,0.21693 2.17662,0.55658 2.49731,0.75478 0.3207,0.1982 1.14679,0.47987 1.83577,0.62592 7.86467,1.66719 58.21706,15.97498 59.00994,16.76786 0.56167,0.56167 0.52378,1.18611 -0.13611,2.24276 -0.88142,1.41137 -0.77739,1.46022 2.87503,1.34985 7.89694,-0.23864 7.64356,-0.33677 6.96204,2.69642 -0.33231,1.47903 -1.25759,4.16622 -2.05617,5.97154 -0.79857,1.80531 -1.59362,4.05055 -1.76678,4.98942 -0.17315,0.93887 -0.37889,1.78739 -0.45719,1.88561 -0.0783,0.0982 -0.20948,0.41964 -0.2915,0.71428 -0.082,0.29465 -0.55591,1.5 -1.05307,2.67857 -0.49716,1.17858 -0.98418,2.46429 -1.08226,2.85715 -0.44255,1.77258 -2.43556,6.78669 -5.39438,13.57143 -1.84394,4.22826 -8.57264,17.63165 -9.22473,18.37541 -0.24992,0.28505 -1.53735,-0.14031 -2.86096,-0.94524 z"
       id="path6795"
       inkscape:connector-curvature="0" />
    <path
       style="fill:#e6e6e6;fill-opacity:1;stroke:none;stroke-width:1;stroke-linecap:butt;stroke-miterlimit:4;stroke-dasharray:none;stroke-dashoffset:0"
       d="m 344.30191,629.15553 c -12.89722,-8.17918 -45.3649,-38.87623 -57.94409,-54.78411 -7.64276,-9.66519 -16.57253,-22.16441 -17.30953,-24.2286 -0.54925,-1.53834 0.86059,-2.8334 2.03476,-1.86911 0.40603,0.33345 1.70253,0.77069 2.8811,0.97164 3.14976,0.53705 11.88055,2.91338 50.35714,13.70614 19.05357,5.34457 35.014,9.75225 35.46762,9.79485 0.86225,0.081 0.52505,1.69381 -0.67908,3.24804 -0.55778,0.71995 0.42828,0.87943 4.74785,0.76792 2.99851,-0.0774 5.63921,0.0466 5.86822,0.27563 1.11186,1.11186 -9.66113,29.8766 -16.12228,43.04778 -5.90911,12.04582 -5.39677,11.54626 -9.30171,9.06982 z"
       id="path6797"
       inkscape:connector-curvature="0" />
    <path
       style="fill:#e6e6e6;fill-opacity:1;stroke:none;stroke-width:1;stroke-linecap:butt;stroke-miterlimit:4;stroke-dasharray:none;stroke-dashoffset:0"
       d="m 365.74986,570.34202 c -3.88049,-2.80104 -3.93345,-2.81559 -4.32778,-1.18888 -0.29038,1.19787 -0.87459,1.62234 -2.14286,1.55693 -1.96648,-0.10142 -1.07843,0.13834 -54.60078,-14.74117 l -39.28572,-10.92165 -4.08569,-6.76648 c -4.07029,-6.74098 -13.30618,-24.71786 -15.79398,-30.74166 -0.71953,-1.74223 -2.04882,-4.77483 -2.95397,-6.73912 -2.7929,-6.0609 -6.89978,-17.59071 -6.57555,-18.46044 0.16922,-0.4539 1.87088,0.94259 3.78147,3.1033 6.06706,6.86132 11.5751,11.96837 17.7349,16.44376 6.49805,4.72115 7.4301,5.98543 5.76719,7.82293 -1.4637,1.61736 -1.37069,3.11381 0.28677,4.61379 1.92685,1.74377 3.77877,1.16423 5.16919,-1.61766 0.6531,-1.30672 1.35331,-2.5417 1.55601,-2.7444 0.20271,-0.2027 3.20406,0.45094 6.66968,1.45254 9.53611,2.75603 14.75374,3.50591 24.15827,3.47203 26.84969,-0.0967 51.74641,-14.5413 65.23413,-37.84756 3.56517,-6.16047 6.09187,-12.58166 8.41051,-21.37386 2.87041,-10.8845 3.44953,-10.68083 4.91581,1.72883 1.59656,13.51227 1.89058,19.43525 1.8868,38.00995 -0.004,21.83148 -1.61077,39.15401 -5.10387,55.03965 -0.73427,3.33929 -1.52914,7.19643 -1.76638,8.57143 -1.25897,7.29686 -3.46289,14.33459 -4.45455,14.2246 -0.30306,-0.0336 -2.31888,-1.33719 -4.4796,-2.89686 z m -62.85714,-29.89917 c 1.75941,-1.75941 1.77375,-2.27261 0.12051,-4.31426 -1.00974,-1.24699 -1.7403,-1.5069 -3.2034,-1.13968 -2.48758,0.62433 -3.30065,3.53051 -1.53392,5.48272 1.60797,1.77679 2.81879,1.76924 4.61681,-0.0288 z m 68.16327,-33.2653 c 1.62993,-1.62994 1.37705,-3.6778 -0.61537,-4.98328 -3.20608,-2.10071 -6.44281,1.20123 -4.33335,4.42066 1.27415,1.94459 3.3327,2.17863 4.94872,0.56262 z"
       id="path6799"
       inkscape:connector-curvature="0" />
    <path
       style="fill:#e6e6e6;fill-opacity:1;stroke:none;stroke-width:1;stroke-linecap:butt;stroke-miterlimit:4;stroke-dasharray:none;stroke-dashoffset:0"
       d="m 344.30191,629.15553 c -7.68801,-4.87559 -22.83597,-17.98744 -36.46937,-31.56734 -14.88364,-14.82523 -25.11745,-26.87059 -34.77429,-40.9299 -4.55158,-6.62662 -5.04154,-7.64241 -3.9743,-8.23967 0.67317,-0.37672 1.87631,-0.42346 2.69161,-0.10456 0.81087,0.31717 21.16433,5.9884 45.22991,12.60273 31.32459,8.60945 43.65255,12.27972 43.39286,12.91892 -0.19952,0.49107 -0.55729,1.37354 -0.79507,1.96104 -0.36257,0.89587 0.38055,1.04368 4.60678,0.91629 2.77149,-0.0835 5.2281,0.0371 5.45912,0.26816 1.13679,1.13678 -9.2532,29.10282 -15.9773,43.005 -5.82488,12.04304 -5.44441,11.67151 -9.38995,9.16933 z"
       id="path6801"
       inkscape:connector-curvature="0" />
    <path
       style="fill:#e6e6e6;fill-opacity:1;stroke:none;stroke-width:1;stroke-linecap:butt;stroke-miterlimit:4;stroke-dasharray:none;stroke-dashoffset:0"
       d="m 344.23355,629.11217 c -7.62219,-4.83385 -22.8137,-17.98999 -36.40101,-31.52398 -14.88364,-14.82523 -25.11745,-26.87059 -34.77429,-40.9299 -4.34596,-6.32726 -5.00854,-7.66088 -4.06769,-8.1874 1.09898,-0.61502 8.28375,1.27618 70.1576,18.46714 15.32675,4.25837 21.50713,6.2645 21.25,6.89768 -1.4082,3.46767 -1.61832,3.28769 3.26847,2.79948 6.83971,-0.68332 6.95426,-0.47117 4.22862,7.83187 -5.25995,16.02321 -17.66295,44.887 -19.87605,46.25476 -0.34749,0.21476 -2.05102,-0.50958 -3.78565,-1.60965 z"
       id="path6803"
       inkscape:connector-curvature="0" />
    <path
       style="fill:#e6e6e6;fill-opacity:1;stroke:none;stroke-width:1;stroke-linecap:butt;stroke-miterlimit:4;stroke-dasharray:none;stroke-dashoffset:0"
       d="m 343.97889,628.95067 c -11.8869,-7.53845 -37.17981,-30.78802 -51.60543,-47.43639 -7.57784,-8.74545 -15.19934,-18.62183 -20.78138,-26.92968 -3.11841,-4.64119 -3.52137,-5.59894 -2.57783,-6.12697 1.11544,-0.62423 9.69205,1.62869 67.63672,17.76696 17.15357,4.77747 24.00991,6.97444 23.75,7.6102 -1.40049,3.42571 -1.60012,3.25706 3.27162,2.76403 6.92565,-0.70089 6.99011,-0.55128 3.852,8.93975 -5.30219,16.03617 -17.2497,43.78916 -19.43148,45.13757 -0.38813,0.23989 -2.23953,-0.53657 -4.11422,-1.72547 z"
       id="path6805"
       inkscape:connector-curvature="0" />
    <path
       style="fill:#e6e6e6;fill-opacity:1;stroke:none;stroke-width:1;stroke-linecap:butt;stroke-miterlimit:4;stroke-dasharray:none;stroke-dashoffset:0"
       d="m 359.67844,390.66997 c -2.35715,-3.00838 -6.77679,-7.55574 -9.82143,-10.10525 -3.04465,-2.5495 -5.53572,-4.90562 -5.53572,-5.23581 0,-0.70197 8.81688,-0.68184 11.42857,0.0261 1.50095,0.40685 2.37945,1.96173 5.50884,9.75023 5.3056,13.20471 5.06625,14.04756 -1.58026,5.56473 z"
       id="path6848"
       inkscape:connector-curvature="0" />
    <path
       style="fill:#e6e6e6;fill-opacity:1;stroke:none;stroke-width:1;stroke-linecap:butt;stroke-miterlimit:4;stroke-dasharray:none;stroke-dashoffset:0"
       d="m 316.26546,453.73944 c -0.87745,-0.44079 -1.11316,-2.4741 -0.38617,-3.33122 0.49635,-0.58521 1.1557,-0.63278 1.74497,-0.12592 0.47162,0.40567 0.5162,0.54517 0.5162,1.61524 0,0.93768 -0.0712,1.23969 -0.35714,1.51465 -0.50092,0.48171 -0.99735,0.58874 -1.51786,0.32725 z"
       id="path6850"
       inkscape:connector-curvature="0" />
  </g>
  <g
     id="g13400">
    <g
       style="font-style:normal;font-variant:normal;font-weight:normal;font-stretch:normal;letter-spacing:normal;word-spacing:normal;text-anchor:start;fill:none;fill-opacity:1;fill-rule:evenodd;stroke:#000000;stroke-linecap:butt;stroke-linejoin:miter;stroke-miterlimit:10.43299961;stroke-dasharray:none;stroke-dashoffset:0;stroke-opacity:1"
       word-spacing="normal"
       letter-spacing="normal"
       font-size-adjust="none"
       font-stretch="normal"
       font-weight="normal"
       font-variant="normal"
       font-style="normal"
       stroke-miterlimit="10.433"
       xml:space="preserve"
       transform="matrix(0.5692585,0,0,-0.48359742,-183.32643,723.59772)"
       id="g5664"><path
         style="fill:#000000;stroke-width:0"
         inkscape:connector-curvature="0"
         id="path13403"
         d="m 474.28,425.93 4.29,0 c 0.99,0 1.49,0 1.49,0.99 0,0.55 -0.5,0.55 -1.35,0.55 l -4.13,0 1.04,5.68 c 0.2,1.05 0.9,4.58 1.2,5.18 0.45,0.94 1.3,1.69 2.34,1.69 0.2,0 1.5,0 2.45,-0.9 -2.2,-0.19 -2.7,-1.94 -2.7,-2.68 0,-1.15 0.9,-1.75 1.85,-1.75 1.29,0 2.74,1.1 2.74,2.99 0,2.29 -2.29,3.44 -4.34,3.44 -1.69,0 -4.83,-0.9 -6.32,-5.83 -0.3,-1.05 -0.45,-1.54 -1.65,-7.82 l -3.43,0 c -0.95,0 -1.5,0 -1.5,-0.95 0,-0.59 0.45,-0.59 1.4,-0.59 l 3.29,0 -3.74,-19.68 c -0.9,-4.83 -1.75,-9.37 -4.33,-9.37 -0.2,0 -1.45,0 -2.4,0.9 2.29,0.15 2.74,1.94 2.74,2.69 0,1.15 -0.89,1.74 -1.84,1.74 -1.29,0 -2.74,-1.09 -2.74,-2.98 0,-2.25 2.19,-3.44 4.24,-3.44 2.73,0 4.73,2.94 5.62,4.83 1.6,3.14 2.74,9.17 2.79,9.51 z" /><path
         style="fill:#000000;stroke-width:0"
         inkscape:connector-curvature="0"
         id="path13405"
         d="m 491.68,421.18 0,0.04 0,0.04 0,0.04 0,0.04 0,0.04 0,0.04 0,0.03 0,0.04 -0.01,0.03 0,0.03 0,0.04 0,0.03 -0.01,0.02 0,0.03 0,0.03 -0.01,0.03 0,0.02 0,0.02 -0.02,0.05 -0.01,0.04 -0.01,0.04 -0.02,0.03 -0.02,0.03 -0.02,0.03 -0.03,0.03 -0.02,0.02 -0.03,0.02 -0.04,0.02 -0.03,0.01 -0.04,0.01 -0.05,0.02 -0.05,0 -0.02,0.01 -0.03,0 -0.03,0.01 -0.02,0 -0.03,0 -0.03,0 -0.04,0 -0.03,0.01 -0.03,0 -0.04,0 -0.03,0 -0.04,0 -0.04,0 -0.04,0 -0.04,0 -0.04,0 -0.05,0 -0.04,0 c -2.24,-2.19 -5.41,-2.23 -6.84,-2.23 l 0,-1.25 c 0.84,0 3.14,0 5.06,0.97 l 0,-17.78 c 0,-1.15 0,-1.61 -3.49,-1.61 l -1.33,0 0,-1.25 12.45,0 0,1.25 -1.32,0 c -3.49,0 -3.49,0.46 -3.49,1.61 z" /></g>  </g>
</svg>
