<?xml version="1.0" encoding="UTF-8" standalone="no"?>
<!-- Created with Inkscape (http://www.inkscape.org/) -->

<svg
   xmlns:dc="http://purl.org/dc/elements/1.1/"
   xmlns:cc="http://creativecommons.org/ns#"
   xmlns:rdf="http://www.w3.org/1999/02/22-rdf-syntax-ns#"
   xmlns:svg="http://www.w3.org/2000/svg"
   xmlns="http://www.w3.org/2000/svg"
   xmlns:xlink="http://www.w3.org/1999/xlink"
   xmlns:sodipodi="http://sodipodi.sourceforge.net/DTD/sodipodi-0.dtd"
   xmlns:inkscape="http://www.inkscape.org/namespaces/inkscape"
   sodipodi:docname="rqu.svg"
   inkscape:version="0.91 r13725"
   version="1.1"
   id="svg2"
   viewBox="0 0 744.09448819 1052.3622047"
   height="297mm"
   width="210mm">
  <sodipodi:namedview
     inkscape:snap-nodes="true"
     inkscape:window-maximized="1"
     inkscape:window-y="0"
     inkscape:window-x="0"
     inkscape:window-height="1029"
     inkscape:window-width="1920"
     showguides="false"
     showgrid="false"
     inkscape:current-layer="layer1"
     inkscape:document-units="px"
     inkscape:cy="736.81979"
     inkscape:cx="342.73212"
     inkscape:zoom="0.9899495"
     inkscape:pageshadow="2"
     inkscape:pageopacity="0.0"
     borderopacity="1.0"
     bordercolor="#666666"
     pagecolor="#ffffff"
     id="base" />
  <defs
     id="defs4">
    <marker
       inkscape:stockid="Arrow2Lend"
       orient="auto"
       refY="0.0"
       refX="0.0"
       id="Arrow2Lend"
       style="overflow:visible;"
       inkscape:isstock="true">
      <path
         id="path9608"
         style="fill-rule:evenodd;stroke-width:0.62500000;stroke-linejoin:round;"
         d="M 8.7185878,4.0337352 L -2.2072895,0.016013256 L 8.7185884,-4.0017078 C 6.9730900,-1.6296469 6.9831476,1.6157441 8.7185878,4.0337352 z "
         transform="scale(1.1) rotate(180) translate(1,0)" />
    </marker>
    <linearGradient
       inkscape:collect="always"
       id="linearGradient15364">
      <stop
         style="stop-color:#b3b3b3;stop-opacity:1;"
         offset="0"
         id="stop15366" />
      <stop
         style="stop-color:#b3b3b3;stop-opacity:0;"
         offset="1"
         id="stop15368" />
    </linearGradient>
    <marker
       inkscape:stockid="Arrow2Lend"
       orient="auto"
       refY="0.0"
       refX="0.0"
       id="marker9920"
       style="overflow:visible;"
       inkscape:isstock="true">
      <path
         id="path9922"
         style="fill-rule:evenodd;stroke-width:0.625;stroke-linejoin:round;stroke:#000000;stroke-opacity:1;fill:#000000;fill-opacity:1"
         d="M 8.7185878,4.0337352 L -2.2072895,0.016013256 L 8.7185884,-4.0017078 C 6.9730900,-1.6296469 6.9831476,1.6157441 8.7185878,4.0337352 z "
         transform="scale(1.1) rotate(180) translate(1,0)" />
    </marker>
    <marker
       inkscape:isstock="true"
       style="overflow:visible;"
       id="Arrow1Lend"
       refX="0.0"
       refY="0.0"
       orient="auto"
       inkscape:stockid="Arrow1Lend">
      <path
         transform="scale(0.8) rotate(180) translate(12.5,0)"
         style="fill-rule:evenodd;stroke:#000000;stroke-width:1pt;stroke-opacity:1;fill:#000000;fill-opacity:1"
         d="M 0.0,0.0 L 5.0,-5.0 L -12.5,0.0 L 5.0,5.0 L 0.0,0.0 z "
         id="path8379" />
    </marker>
    <linearGradient
       inkscape:collect="always"
       xlink:href="#linearGradient15364"
       id="linearGradient15370"
       x1="225.75901"
       y1="438.78523"
       x2="375.09563"
       y2="438.78523"
       gradientUnits="userSpaceOnUse" />
  </defs>
  <metadata
     id="metadata7">
    <rdf:RDF>
      <cc:Work
         rdf:about="">
        <dc:format>image/svg+xml</dc:format>
        <dc:type
           rdf:resource="http://purl.org/dc/dcmitype/StillImage" />
        <dc:title></dc:title>
      </cc:Work>
    </rdf:RDF>
  </metadata>
  <g
     id="layer1"
     inkscape:groupmode="layer"
     inkscape:label="Camada 1"
     style="display:inline">
    <circle
       r="0"
       cy="453.34174"
       cx="387.89859"
       id="path3344-2"
       style="fill:#ff0000;fill-rule:evenodd;stroke:#000000;stroke-width:1px;stroke-linecap:butt;stroke-linejoin:miter;stroke-opacity:1" />
    <text
       sodipodi:linespacing="125%"
       id="text4435"
       y="362.93307"
       x="155.81602"
       style="font-style:normal;font-weight:normal;font-size:15px;line-height:125%;font-family:sans-serif;letter-spacing:0px;word-spacing:0px;fill:#000000;fill-opacity:1;stroke:none;stroke-width:1px;stroke-linecap:butt;stroke-linejoin:miter;stroke-opacity:1"
       xml:space="preserve"><tspan
         y="362.93307"
         x="155.81602"
         id="tspan4437"
         sodipodi:role="line" /></text>
    <path
       style="fill:#b3b3b3;stroke:none;stroke-width:1;stroke-linecap:butt;stroke-miterlimit:4;stroke-dasharray:none;stroke-dashoffset:0"
       d=""
       id="path13884"
       inkscape:connector-curvature="0" />
    <path
       style="fill:#b3b3b3;stroke:none;stroke-width:1;stroke-linecap:butt;stroke-miterlimit:4;stroke-dasharray:none;stroke-dashoffset:0"
       d=""
       id="path13906"
       inkscape:connector-curvature="0" />
    <path
       style="fill:none;fill-opacity:1;stroke:none;stroke-width:1;stroke-linecap:butt;stroke-miterlimit:4;stroke-dasharray:none;stroke-dashoffset:0"
       d="m 156.57449,514.84016 c -43.50565,-12.11578 -66.969307,-18.87432 -67.531307,-19.45192 -0.811996,-0.83454 -0.804777,-0.99582 0.126269,-2.82082 1.340153,-2.62692 1.262919,-3.01589 -0.527724,-2.65776 -0.960733,0.19214 -1.515229,0.0964 -1.515229,-0.26161 0,-0.72306 36.362881,-125.49135 36.660291,-125.78876 0.12248,-0.12249 0.89255,0.27254 1.71127,0.87784 0.81871,0.6053 1.63056,1.10054 1.80412,1.10054 0.17356,0 0.15352,-2.50012 -0.0445,-5.55584 -0.19805,-3.05571 -0.24247,-5.55584 -0.0987,-5.55584 0.14376,0 2.92187,0.91738 6.17359,2.03862 33.25034,11.4652 61.66917,35.4806 79.17179,66.9043 16.58296,29.77256 22.06047,66.28929 14.9629,99.75256 -1.67307,7.88809 -2.41925,10.10887 -3.37462,10.0435 -0.46643,-0.0319 -30.84958,-8.41307 -67.51811,-18.62481 z m 35.1893,0.67434 c 0.92809,-0.83991 1.24018,-3.46511 0.53711,-4.51806 -0.65964,-0.9879 -2.65541,-1.78153 -3.67016,-1.45946 -2.46481,0.7823 -3.38011,4.00387 -1.6734,5.88977 1.04154,1.15088 3.58048,1.19724 4.80645,0.0878 z m 31.50372,-42.32516 c 1.5016,-1.5016 1.59467,-3.4561 0.22958,-4.82118 -2.09511,-2.09512 -6.06091,-0.59292 -6.06091,2.29579 0,1.5542 2.0761,3.76512 3.53553,3.76512 0.58084,0 1.61395,-0.55788 2.2958,-1.23973 z m -57.76769,-9.69769 c 0.92809,-0.83991 1.24018,-3.46512 0.53711,-4.51806 -0.65964,-0.98791 -2.6554,-1.78154 -3.67015,-1.45947 -2.46481,0.7823 -3.38012,4.00387 -1.6734,5.88977 1.04153,1.15088 3.58047,1.19724 4.80644,0.0878 z m 38.89087,-24.74874 c 0.9281,-0.83991 1.24019,-3.46511 0.53712,-4.51806 -0.65964,-0.98791 -2.65541,-1.78153 -3.67016,-1.45947 -2.46481,0.7823 -3.38012,4.00388 -1.6734,5.88977 1.04153,1.15089 3.58048,1.19725 4.80644,0.0878 z m -45.96194,-16.66752 c 0.92809,-0.83991 1.24019,-3.46511 0.53712,-4.51806 -0.65964,-0.9879 -2.65541,-1.78153 -3.67016,-1.45946 -2.46481,0.7823 -3.38012,4.00387 -1.6734,5.88977 1.04153,1.15088 3.58048,1.19724 4.80644,0.0878 z"
       id="path13910"
       inkscape:connector-curvature="0" />
    <g
       id="g9892"
       transform="matrix(2.6090286,0,0,2.6090286,-401.68933,-861.14324)">
      <circle
         style="fill:#ff0000;fill-rule:evenodd;stroke:#000000;stroke-width:1px;stroke-linecap:butt;stroke-linejoin:miter;stroke-opacity:1"
         id="path3344"
         cx="210.11172"
         cy="392.98514"
         r="2.7779195" />
      <circle
         style="fill:#ff0000;fill-rule:evenodd;stroke:#000000;stroke-width:1px;stroke-linecap:butt;stroke-linejoin:miter;stroke-opacity:1"
         id="path3344-6"
         cx="272.74118"
         cy="444.25037"
         r="2.7779195" />
      <circle
         style="fill:#ff0000;fill-rule:evenodd;stroke:#000000;stroke-width:1px;stroke-linecap:butt;stroke-linejoin:miter;stroke-opacity:1"
         id="path3344-9"
         cx="327.28943"
         cy="386.67169"
         r="2.7779195" />
      <circle
         style="fill:#ff0000;fill-rule:evenodd;stroke:#000000;stroke-width:1px;stroke-linecap:butt;stroke-linejoin:miter;stroke-opacity:1"
         id="path3344-4"
         cx="220.97087"
         cy="470.76688"
         r="2.7779195" />
      <circle
         style="fill:#ff0000;fill-rule:evenodd;stroke:#000000;stroke-width:1px;stroke-linecap:butt;stroke-linejoin:miter;stroke-opacity:1"
         id="path3344-61"
         cx="309.10669"
         cy="484.65646"
         r="2.7779195" />
      <circle
         style="fill:#ff0000;fill-rule:evenodd;stroke:#000000;stroke-width:1px;stroke-linecap:butt;stroke-linejoin:miter;stroke-opacity:1"
         id="path3344-5"
         cx="319.20819"
         cy="427.07779"
         r="2.7779195" />
      <circle
         style="fill:#ff0000;fill-rule:evenodd;stroke:#000000;stroke-width:1px;stroke-linecap:butt;stroke-linejoin:miter;stroke-opacity:1"
         id="path3344-66"
         cx="226.27417"
         cy="375.56"
         r="2.7779195" />
      <circle
         style="fill:#ff0000;fill-rule:evenodd;stroke:#000000;stroke-width:1px;stroke-linecap:butt;stroke-linejoin:miter;stroke-opacity:1"
         id="path3344-65"
         cx="299.00516"
         cy="498.79861"
         r="2.7779195" />
      <circle
         style="fill:#ff0000;fill-rule:evenodd;stroke:#000000;stroke-width:1px;stroke-linecap:butt;stroke-linejoin:miter;stroke-opacity:1"
         id="path3344-82"
         cx="386.88843"
         cy="392.7326"
         r="2.7779195" />
      <circle
         style="fill:#ff0000;fill-rule:evenodd;stroke:#000000;stroke-width:1px;stroke-linecap:butt;stroke-linejoin:miter;stroke-opacity:1"
         id="path3344-25"
         cx="366.68536"
         cy="426.06763"
         r="2.7779195" />
      <circle
         style="fill:#ff0000;fill-rule:evenodd;stroke:#000000;stroke-width:1px;stroke-linecap:butt;stroke-linejoin:miter;stroke-opacity:1"
         id="path3344-0"
         cx="368.70569"
         cy="504.85953"
         r="2.7779195" />
      <circle
         style="fill:#ff0000;fill-rule:evenodd;stroke:#000000;stroke-width:1px;stroke-linecap:butt;stroke-linejoin:miter;stroke-opacity:1"
         id="path3344-3"
         cx="349.51279"
         cy="477.58542"
         r="2.7779195" />
      <circle
         style="fill:#ff0000;fill-rule:evenodd;stroke:#000000;stroke-width:1px;stroke-linecap:butt;stroke-linejoin:miter;stroke-opacity:1"
         id="path3344-51"
         cx="202.0305"
         cy="436.16916"
         r="2.7779195" />
      <path
         style="fill:#000000;stroke:#000000"
         id="path4391"
         sodipodi:type="arc"
         sodipodi:cx="299.76276"
         sodipodi:cy="439.19962"
         sodipodi:rx="5.0507627"
         sodipodi:ry="5.0507627"
         sodipodi:start="2.4617869"
         sodipodi:end="2.4543169"
         d="m 295.8348,442.37474 a 5.0507627,5.0507627 0 0 1 0.74551,-7.09714 5.0507627,5.0507627 0 0 1 7.09851,0.73225 5.0507627,5.0507627 0 0 1 -0.71899,7.09987 5.0507627,5.0507627 0 0 1 -7.1012,-0.70573 l 3.90413,-3.20437 z" />
      <path
         style="fill:none;stroke:#000000;stroke-width:1.31662858"
         id="path4395"
         sodipodi:type="arc"
         sodipodi:cx="300.39413"
         sodipodi:cy="438.8208"
         sodipodi:rx="75.477249"
         sodipodi:ry="75.477249"
         sodipodi:start="2.4617869"
         sodipodi:end="2.4543169"
         d="m 241.69587,486.26897 a 75.477249,75.477249 0 0 1 11.14056,-106.05773 75.477249,75.477249 0 0 1 106.07834,10.94249 75.477249,75.477249 0 0 1 -10.74436,106.09859 75.477249,75.477249 0 0 1 -106.11847,-10.5462 l 58.34219,-47.88532 z" />
      <text
         xml:space="preserve"
         style="font-style:normal;font-variant:normal;font-weight:normal;font-stretch:normal;font-size:15px;line-height:125%;font-family:'Noto Sans Old Persian';-inkscape-font-specification:'Noto Sans Old Persian';letter-spacing:0px;word-spacing:0px;fill:#000000;fill-opacity:1;stroke:none;stroke-width:1px;stroke-linecap:butt;stroke-linejoin:miter;stroke-opacity:1"
         x="306.07623"
         y="451.57397"
         id="text4421"
         sodipodi:linespacing="125%"><tspan
           sodipodi:role="line"
           id="tspan4423"
           x="306.07623"
           y="451.57397">s<tspan
   style="font-style:normal;font-variant:normal;font-weight:normal;font-stretch:normal;font-size:64.99999762%;font-family:'Noto Sans Old Persian';-inkscape-font-specification:'Noto Sans Old Persian';baseline-shift:sub"
   id="tspan4425">q</tspan></tspan></text>
      <text
         xml:space="preserve"
         style="font-style:normal;font-weight:normal;font-size:15px;line-height:125%;font-family:sans-serif;letter-spacing:0px;word-spacing:0px;fill:#000000;fill-opacity:1;stroke:none;stroke-width:1px;stroke-linecap:butt;stroke-linejoin:miter;stroke-opacity:1"
         x="271.47849"
         y="475.81763"
         id="text4431"
         sodipodi:linespacing="125%"><tspan
           sodipodi:role="line"
           id="tspan4433"
           x="271.47849"
           y="475.81763"
           style="font-style:italic;font-variant:normal;font-weight:normal;font-stretch:normal;font-family:sans-serif;-inkscape-font-specification:'sans-serif Italic'">ξ</tspan></text>
      <circle
         style="fill:#ff0000;fill-rule:evenodd;stroke:#000000;stroke-width:1px;stroke-linecap:butt;stroke-linejoin:miter;stroke-opacity:1"
         id="path3344-4-6"
         cx="380.82751"
         cy="363.94324"
         r="2.7779195" />
      <circle
         style="fill:#ff0000;fill-rule:evenodd;stroke:#000000;stroke-width:1px;stroke-linecap:butt;stroke-linejoin:miter;stroke-opacity:1"
         id="path3344-4-7"
         cx="391.43411"
         cy="497.28339"
         r="2.7779195" />
      <circle
         style="fill:#ff0000;fill-rule:evenodd;stroke:#000000;stroke-width:1px;stroke-linecap:butt;stroke-linejoin:miter;stroke-opacity:1"
         id="path3344-4-9"
         cx="279.81226"
         cy="395.76306"
         r="2.7779195" />
      <circle
         style="fill:#ff0000;fill-rule:evenodd;stroke:#000000;stroke-width:1px;stroke-linecap:butt;stroke-linejoin:miter;stroke-opacity:1"
         id="path3344-4-5"
         cx="300.52039"
         cy="538.19458"
         r="2.7779195" />
      <path
         inkscape:connector-curvature="0"
         id="path13684"
         d="m 294.83324,513.36532 c -19.35601,-1.64894 -36.92423,-10.17605 -49.47665,-24.01455 -1.12266,-1.23769 -2.05937,-2.34614 -2.08157,-2.46322 -0.0222,-0.11709 11.82324,-9.94259 26.32319,-21.83445 l 26.36354,-21.62158 0.97487,0.58704 c 3.55968,2.14353 8.1253,-0.29837 8.38889,-4.48675 0.14445,-2.29525 -1.06554,-4.37757 -3.13255,-5.39093 -1.33409,-0.65405 -3.405,-0.70098 -4.71621,-0.10689 -1.07456,0.48687 -2.38769,1.80056 -2.87225,2.87347 -0.53408,1.18259 -0.54105,3.37498 -0.0143,4.51839 l 0.37892,0.82261 -26.48438,21.40549 c -14.56641,11.77303 -26.5501,21.42435 -26.63042,21.44739 -0.17037,0.0489 -2.14614,-2.61536 -3.93167,-5.30167 -5.51901,-8.30331 -9.51766,-18.44039 -11.20316,-28.40139 -0.80855,-4.77841 -1.0427,-8.28147 -0.93642,-14.00933 0.099,-5.33557 0.36995,-8.16462 1.19751,-12.50323 4.76912,-25.00311 21.78897,-45.73658 45.442,-55.35717 20.18778,-8.21115 43.19785,-7.06901 62.68002,3.1112 18.95731,9.90595 32.95261,27.86512 37.95643,48.7068 2.14187,8.92122 2.61749,19.03735 1.31676,28.00669 -2.76162,19.04305 -12.45075,35.93938 -27.48893,47.93642 -11.06177,8.82477 -23.95391,14.1498 -38.30357,15.82108 -2.8533,0.33232 -11.05495,0.48417 -13.75,0.25458 z m 5.49027,-11.51889 c 0.88551,-0.36999 1.28374,-0.75072 1.67389,-1.60033 0.97805,-2.12992 -0.34602,-4.50713 -2.61522,-4.69531 -0.52856,-0.0438 -1.16415,-0.0287 -1.41242,0.0336 -0.57394,0.14405 -1.64835,1.08205 -1.98493,1.73292 -0.32676,0.63188 -0.334,2.13861 -0.0139,2.88988 0.67063,1.5739 2.68935,2.33418 4.35257,1.63924 z m 10.14212,-14.16813 c 1.94943,-0.88551 2.58699,-3.26054 1.33808,-4.98461 -1.19535,-1.65013 -3.76078,-1.83206 -5.13159,-0.36391 -0.52366,0.56085 -0.94694,1.60778 -0.9421,2.33022 0.008,1.25573 1.19605,2.86662 2.36087,3.20222 0.74793,0.21549 1.64908,0.1457 2.37474,-0.18392 z m 40.60784,-7.15937 c 2.37524,-1.21175 2.35445,-4.71957 -0.0348,-5.8762 -2.31123,-1.11885 -4.80508,0.38591 -4.83961,2.92016 -0.0339,2.48743 2.62836,4.10191 4.87444,2.95604 z m -74.50285,-1.78423 c 1.37785,-0.62547 1.92771,-2.31959 1.07474,-3.31124 -0.33007,-0.38373 -0.63481,-0.49676 -1.69982,-0.63048 -1.47475,-0.18518 -1.88649,-0.36048 -2.2888,-0.97448 -0.35875,-0.54752 -0.20493,-1.33524 0.40146,-2.05589 0.51558,-0.61273 1.8447,-1.07009 3.10977,-1.07009 0.88563,0 1.05813,-0.15828 1.05813,-0.97092 0,-0.36935 -0.10434,-0.41575 -1.15568,-0.51392 -1.19791,-0.11186 -2.1874,-0.49909 -2.34857,-0.91909 -0.13385,-0.3488 0.39978,-1.29278 0.92555,-1.63728 0.58453,-0.383 2.26268,-0.77389 3.33763,-0.77743 0.59929,-0.002 0.84821,-0.0748 0.84821,-0.24832 0,-0.13504 0.0502,-0.49665 0.11161,-0.80357 l 0.1116,-0.55804 -2.95671,0 c -3.23857,0 -2.96616,-0.094 -3.23545,1.11607 -0.10181,0.45747 -0.0693,0.49128 0.47448,0.49408 l 0.58376,0.003 -0.56379,0.36118 c -0.70104,0.44911 -1.20248,1.61527 -1.04819,2.43768 0.0677,0.36099 0.31379,0.73971 0.63487,0.97709 l 0.52429,0.38762 -0.87006,0.49691 c -0.62689,0.35803 -0.97537,0.71443 -1.24681,1.27516 -0.42061,0.86886 -0.49403,2.17698 -0.16298,2.90356 0.29786,0.65373 1.38732,1.15682 2.8417,1.31222 0.67859,0.0725 1.32354,0.22158 1.43324,0.33127 0.3401,0.3401 0.0123,1.13562 -0.55644,1.35028 -0.47031,0.17752 -0.70909,0.56199 -0.71554,1.15209 -0.003,0.31699 0.50163,0.27027 1.3778,-0.12747 l 0,10e-6 z m 42.68581,-25.85468 0.0482,-3.79464 -0.52439,0 c -0.28841,0 -0.55501,0.0919 -0.59244,0.20418 -0.0511,0.15319 -0.16333,0.15319 -0.44957,0 -0.49285,-0.26377 -1.5128,-0.26131 -2.0974,0.005 -1.44556,0.65864 -1.72459,3.65935 -0.45352,4.87711 0.64061,0.61374 1.7015,0.7746 2.47401,0.37512 l 0.56478,-0.29206 0,1.13554 c 0,1.24741 0.077,1.41392 0.61765,1.33652 0.35211,-0.0504 0.36613,-0.18104 0.41268,-3.84682 z m -7.71157,-1.31476 c 0.85939,-0.26006 1.52929,-1.07691 1.63224,-1.99029 0.16861,-1.49586 -0.64636,-2.31158 -2.80815,-2.81074 -1.51705,-0.35028 -1.96428,-0.63369 -1.96428,-1.24474 0,-0.75625 0.56391,-1.07864 1.87009,-1.06913 0.59199,0.004 1.39777,0.12364 1.79062,0.26517 0.39286,0.14153 0.73438,0.25854 0.75893,0.26002 0.0245,10e-4 0.0446,-0.31251 0.0446,-0.69775 0,-0.64334 -0.0514,-0.7174 -0.63055,-0.90854 -0.95479,-0.31511 -3.3021,-0.27614 -3.96334,0.0658 -1.16078,0.60026 -1.64945,1.71471 -1.26096,2.8757 0.30667,0.91651 0.86719,1.29441 2.56203,1.72731 0.7798,0.19917 1.55845,0.48858 1.73032,0.64312 0.44389,0.39911 0.39957,1.21581 -0.0844,1.55478 -0.56513,0.39583 -2.24957,0.35661 -3.39585,-0.0791 -0.51668,-0.19638 -0.95951,-0.35709 -0.98406,-0.35714 -0.0246,-5e-5 -0.0446,0.35575 -0.0446,0.79067 l 0,0.79077 0.9375,0.19116 c 1.77765,0.36248 2.59355,0.36096 3.80983,-0.007 l 0,-1e-5 z m -37.19249,-4.4001 c 0.29276,-0.17156 0.78188,-0.62072 1.08694,-0.99814 0.49757,-0.6156 0.55464,-0.8099 0.55464,-1.88808 0,-0.98705 -0.0798,-1.31977 -0.44642,-1.86148 -0.5193,-0.76726 -1.93438,-1.54636 -2.80866,-1.54636 -0.68239,0 -1.75327,0.40722 -2.24845,0.85502 -1.03461,0.9356 -1.34452,2.79768 -0.68183,4.09666 0.83312,1.63304 2.97031,2.26444 4.54378,1.34238 z M 320.7261,430.0596 c 0.61107,-0.31215 1.36662,-1.13824 1.59578,-1.74477 0.44723,-1.18369 0.0613,-2.93065 -0.82439,-3.73157 -0.50544,-0.45707 -1.57091,-0.85502 -2.28925,-0.85502 -0.71834,0 -1.78381,0.39795 -2.28925,0.85502 -0.92302,0.8347 -1.28263,2.62144 -0.77306,3.841 0.29783,0.71282 1.38436,1.69067 2.0388,1.83488 0.26829,0.0591 0.56815,0.13411 0.66637,0.16665 0.28915,0.0958 1.3924,-0.11966 1.875,-0.36619 z m 47.75669,-1.17022 c 1.25904,-0.86271 1.83342,-2.537 1.36121,-3.96783 -0.4352,-1.31865 -2.32793,-2.44487 -3.64177,-2.16695 -1.69422,0.35839 -2.79756,1.64933 -2.79756,3.27323 0,1.49733 0.76323,2.63556 2.16878,3.23436 0.66065,0.28145 2.25213,0.0775 2.90934,-0.37281 z m -87.34638,-30.04526 c 1.26043,-0.52664 2.25749,-2.31278 1.99189,-3.56832 -0.35839,-1.69422 -1.64932,-2.79756 -3.27322,-2.79756 -1.21143,0 -2.20557,0.51367 -2.83414,1.4644 -0.40419,0.61135 -0.49073,0.93867 -0.48822,1.8465 0.003,0.91751 0.0882,1.22627 0.50834,1.83258 0.88729,1.28036 2.67765,1.81475 4.09535,1.2224 z m 47.39056,-9.05581 c 1.21614,-0.45949 2.07158,-1.74524 2.07158,-3.11364 0,-1.92199 -1.41076,-3.30357 -3.37334,-3.30357 -1.36531,0 -2.48194,0.74551 -3.01016,2.00972 -0.91697,2.19462 0.62143,4.57018 2.97264,4.59027 0.46012,0.004 1.0628,-0.0783 1.33928,-0.18278 z"
         style="fill:url(#linearGradient15370);fill-opacity:1;stroke:none;stroke-width:1;stroke-linecap:butt;stroke-miterlimit:4;stroke-dasharray:none;stroke-dashoffset:0" />
      <path
         inkscape:connector-curvature="0"
         id="path13696"
         d="m 231.43211,480.60383 c 0,-0.1307 0.11365,-0.30787 0.25254,-0.39371 0.1389,-0.0858 0.25254,0.0211 0.25254,0.23763 0,0.21654 -0.11364,0.39371 -0.25254,0.39371 -0.13889,0 -0.25254,-0.10693 -0.25254,-0.23763 z"
         style="fill:#b3b3b3;stroke:none;stroke-width:1;stroke-linecap:butt;stroke-miterlimit:4;stroke-dasharray:none;stroke-dashoffset:0" />
      <path
         inkscape:connector-curvature="0"
         id="path9869"
         d="m 315.82353,453.28807 c -0.8383,-1.19684 -0.21183,-3.2268 0.99583,-3.2268 0.74984,0 1.38896,0.87153 1.38896,1.89403 0,1.66026 -1.54904,2.52596 -2.38479,1.33277 z"
         style="fill:#b3b3b3;fill-opacity:0.36862745;stroke:none;stroke-width:1;stroke-linecap:butt;stroke-miterlimit:4;stroke-dasharray:none;stroke-dashoffset:0" />
    </g>
  </g>
</svg>
